<svg width="315" height="57" viewBox="0 0 315 57" fill="none" xmlns="http://www.w3.org/2000/svg">
<path d="M18.1682 1H313L297.783 56H2L18.1682 1Z" fill="#F1B200" stroke="white" stroke-width="2"/>
<path d="M71.48 21.6162L73.384 20.8322C74.312 22.7042 76.136 24.9442 77.592 26.2882C77.096 26.6882 76.36 27.4242 75.992 27.9522C74.488 26.3362 72.648 23.8082 71.48 21.6162ZM66.984 20.8002L69.16 21.4242C68.136 23.9362 66.456 26.4162 64.824 27.9362C64.44 27.5362 63.496 26.8162 63 26.5122C64.648 25.2162 66.152 23.0242 66.984 20.8002ZM71.752 29.7762L73.608 28.9122C75 30.6402 76.504 32.8962 77.288 34.4322L75.304 35.4722C75.144 35.0882 74.92 34.6562 74.648 34.1922C70.808 34.4482 66.776 34.6882 63.96 34.8162L63.704 32.8162L65.928 32.7362C66.952 30.8322 68.056 28.2722 68.664 26.2722L70.952 26.8002C70.12 28.7682 69.08 30.9122 68.104 32.6402C69.832 32.5602 71.704 32.4642 73.56 32.3682C72.984 31.4722 72.344 30.5602 71.752 29.7762Z" fill="white"/>
<path d="M84.024 28.6882V32.2082C85 32.0322 86.024 31.8402 87 31.6482L87.144 33.3442C84.52 33.9202 81.704 34.4962 79.64 34.9442L79.112 33.0242C79.928 32.8962 80.984 32.7362 82.136 32.5442V28.6882H79.72V26.8482H86.584V28.6882H84.024ZM93.416 25.0242H89.08C89.416 29.6962 90.392 33.3922 91.56 33.3922C91.896 33.3922 92.088 32.5442 92.168 30.5122C92.6 30.9602 93.304 31.4242 93.832 31.6322C93.544 34.6562 92.904 35.3922 91.384 35.3922C88.648 35.3922 87.448 30.6562 87.064 25.0242H79.112V23.1682H86.968C86.936 22.3042 86.92 21.4082 86.92 20.5282H88.968C88.952 21.4082 88.952 22.3042 88.984 23.1682H91.512C91.08 22.6242 90.28 21.9682 89.64 21.4882L90.904 20.4482C91.624 20.9442 92.568 21.6962 93 22.2242L91.912 23.1682H93.416V25.0242Z" fill="white"/>
<path d="M103.672 21.1842C103.624 21.4082 103.528 22.1762 103.528 22.5762V23.8562H107.24C107.704 23.8562 108.392 23.8082 108.824 23.7442V25.8402C108.328 25.8082 107.704 25.7922 107.256 25.7922H103.528V33.2322C103.528 34.1602 102.984 34.7362 101.848 34.7362C101 34.7362 100.056 34.7042 99.256 34.5922L99.048 32.6082C99.736 32.7362 100.44 32.8002 100.84 32.8002C101.256 32.8002 101.4 32.6402 101.416 32.2242C101.432 31.6322 101.432 26.5602 101.432 25.8082V25.7922H97.368C96.888 25.7922 96.28 25.8082 95.832 25.8562V23.7442C96.312 23.7922 96.872 23.8562 97.368 23.8562H101.432V22.5762C101.432 22.1602 101.352 21.4562 101.304 21.1842H103.672ZM99.912 28.0642C99.176 29.4882 97.688 31.5842 96.824 32.5282L95.08 31.3442C96.152 30.3362 97.432 28.5762 98.088 27.2162L99.912 28.0642ZM106.776 27.1682C107.592 28.1922 108.872 30.2082 109.512 31.3762L107.64 32.4002C106.952 31.0402 105.816 29.1042 105.032 28.1122L106.776 27.1682Z" fill="white"/>
<path d="M111.72 26.5922C112.296 26.6402 113.464 26.6882 114.296 26.6882H122.888C123.64 26.6882 124.344 26.6242 124.76 26.5922V29.1042C124.376 29.0882 123.56 29.0242 122.888 29.0242H114.296C113.384 29.0242 112.312 29.0562 111.72 29.1042V26.5922Z" fill="white"/>
<path d="M134.644 21.9362C134.436 22.4162 134.196 23.0082 133.956 23.7122C133.444 25.2802 132.148 29.3442 131.348 31.4882C133.3 31.2962 135.572 31.0402 137.188 30.8482C136.628 29.6962 136.036 28.6242 135.508 27.9202L137.508 27.1042C138.644 28.8322 140.276 31.9682 141.012 33.7602L138.852 34.7202C138.644 34.1762 138.388 33.5202 138.084 32.8322C135.492 33.1362 130.644 33.6482 128.628 33.8562C128.228 33.9042 127.636 33.9842 127.124 34.0482L126.756 31.7122C127.3 31.7122 127.988 31.7122 128.516 31.6962C128.644 31.6962 128.804 31.6802 128.948 31.6802C129.876 29.3122 131.252 24.9282 131.716 23.2642C131.94 22.4482 132.036 21.9522 132.1 21.4082L134.644 21.9362Z" fill="white"/>
<path d="M153.332 24.2082C153.332 24.7682 153.78 25.2162 154.34 25.2162C154.9 25.2162 155.364 24.7682 155.364 24.2082C155.364 23.6482 154.9 23.1842 154.34 23.1842C153.78 23.1842 153.332 23.6482 153.332 24.2082ZM152.276 24.2082C152.276 23.0562 153.188 22.1282 154.34 22.1282C155.492 22.1282 156.42 23.0562 156.42 24.2082C156.42 25.3602 155.492 26.2722 154.34 26.2722C153.188 26.2722 152.276 25.3602 152.276 24.2082ZM142.324 29.4402C142.804 29.0562 143.156 28.7042 143.652 28.2242C144.372 27.4882 145.62 25.9202 146.724 24.6082C147.668 23.4882 148.612 23.3122 149.86 24.4802C150.932 25.4882 152.164 26.7682 153.124 27.8082C154.196 28.9442 155.828 30.7202 157.06 32.0322L155.3 33.9202C154.228 32.5922 152.868 30.9442 151.924 29.8402C150.996 28.7362 149.572 27.1842 148.996 26.5922C148.484 26.0802 148.148 26.1122 147.684 26.6882C147.06 27.4882 145.924 29.0722 145.284 29.9362C144.916 30.4482 144.532 31.0082 144.244 31.4242L142.324 29.4402Z" fill="white"/>
<path d="M159.236 26.5922C159.812 26.6402 160.98 26.6882 161.812 26.6882H170.404C171.156 26.6882 171.86 26.6242 172.276 26.5922V29.1042C171.892 29.0882 171.076 29.0242 170.404 29.0242H161.812C160.9 29.0242 159.828 29.0562 159.236 29.1042V26.5922Z" fill="white"/>
<path d="M185.131 21.7122C185.579 22.3842 186.219 23.4562 186.587 24.1922L185.195 24.7842C184.731 23.7762 184.363 23.0882 183.787 22.2722L185.131 21.7122ZM187.323 20.9442C187.819 21.5842 188.443 22.6242 188.827 23.3282L187.467 23.9362C186.955 22.9282 186.555 22.3042 185.963 21.5042L187.323 20.9442ZM178.171 21.4082C179.227 21.9842 180.987 23.1042 181.819 23.6962L180.635 25.4562C179.739 24.8322 178.075 23.7602 177.019 23.1682L178.171 21.4082ZM175.211 32.7682C177.003 32.4642 178.923 31.9202 180.651 30.9602C183.371 29.4402 185.611 27.2482 186.875 24.9602L188.107 27.1362C186.635 29.3602 184.363 31.3762 181.755 32.8962C180.123 33.8082 177.819 34.6082 176.411 34.8642L175.211 32.7682ZM175.707 25.0562C176.795 25.6322 178.555 26.7362 179.371 27.3122L178.203 29.1042C177.291 28.4642 175.627 27.3922 174.555 26.8162L175.707 25.0562Z" fill="white"/>
<path d="M197.035 31.9202C197.035 32.5762 197.675 32.8482 198.523 32.8482C199.499 32.8482 199.835 32.3362 199.835 31.3922C199.835 31.3122 199.835 31.2162 199.835 31.1042C199.419 30.9922 198.987 30.9282 198.555 30.9282C197.643 30.9282 197.035 31.3122 197.035 31.9202ZM201.787 21.4722C201.739 21.7762 201.707 22.1602 201.691 22.5122C201.675 22.8642 201.659 23.4562 201.643 24.1602C202.523 24.0802 203.355 23.9522 204.123 23.7922V25.7922C203.355 25.9042 202.523 26.0002 201.643 26.0642C201.675 27.6162 201.755 28.8962 201.819 29.9842C203.147 30.5282 204.155 31.3442 204.923 32.0482L203.819 33.7282C203.147 33.1042 202.507 32.5442 201.867 32.1122C201.771 33.6482 200.907 34.7362 198.747 34.7362C196.539 34.7362 195.163 33.8082 195.163 32.1282C195.163 30.5122 196.539 29.3922 198.715 29.3922C199.083 29.3922 199.435 29.4082 199.755 29.4562C199.723 28.4642 199.659 27.2962 199.643 26.1602C199.259 26.1762 198.875 26.1762 198.507 26.1762C197.563 26.1762 196.651 26.1442 195.707 26.0802V24.1762C196.619 24.2722 197.547 24.3202 198.507 24.3202C198.875 24.3202 199.259 24.3202 199.627 24.3042C199.627 23.5202 199.611 22.8642 199.611 22.5282C199.611 22.2882 199.563 21.7922 199.499 21.4722H201.787ZM193.979 21.6482C193.851 21.9682 193.659 22.7842 193.611 23.0722C193.371 24.1442 192.843 27.6642 192.843 29.2642C192.843 29.5842 192.859 29.9842 192.907 30.3042C193.115 29.7442 193.387 29.2002 193.627 28.6562L194.603 29.4562C194.155 30.7682 193.643 32.4002 193.451 33.2642C193.403 33.4882 193.371 33.8402 193.371 34.0162C193.371 34.1762 193.387 34.4482 193.403 34.6722L191.595 34.8162C191.259 33.6962 190.955 31.8722 190.955 29.6962C190.955 27.2802 191.435 24.2562 191.611 23.0242C191.675 22.5762 191.755 21.9682 191.771 21.4562L193.979 21.6482Z" fill="white"/>
<path d="M208.939 22.3682C210.123 22.4962 211.611 22.5602 213.291 22.5602C214.875 22.5602 216.699 22.4642 217.931 22.3362V24.4642C216.811 24.5602 214.827 24.6562 213.307 24.6562C211.627 24.6562 210.235 24.5922 208.939 24.4802V22.3682ZM210.283 29.1522C210.123 29.7282 210.011 30.2242 210.011 30.7682C210.011 31.7922 210.987 32.5282 213.291 32.5282C215.451 32.5282 217.499 32.2882 218.907 31.8882L218.923 34.1442C217.531 34.4802 215.611 34.6882 213.371 34.6882C209.707 34.6882 207.867 33.4562 207.867 31.2642C207.867 30.3362 208.059 29.5522 208.187 28.9602L210.283 29.1522Z" fill="white"/>
<path d="M228.699 21.2482C228.523 21.8082 228.427 22.3522 228.315 22.8802C228.283 23.0242 228.251 23.2002 228.219 23.3762C230.043 23.2802 232.203 23.0402 234.139 22.6242L234.171 24.5282C232.507 24.8002 229.963 25.1042 227.819 25.2162C227.595 26.1922 227.339 27.2162 227.099 28.0002C228.395 27.2802 229.643 26.9922 231.067 26.9922C233.659 26.9922 235.371 28.3682 235.371 30.4162C235.371 34.0162 231.899 35.3122 226.731 34.7522L226.171 32.6882C229.675 33.2642 233.211 32.8322 233.211 30.4802C233.211 29.5202 232.395 28.7202 230.827 28.7202C228.987 28.7202 227.355 29.3762 226.395 30.5922C226.219 30.8162 226.107 31.0242 225.947 31.2962L224.059 30.6242C224.827 29.1362 225.467 27.0082 225.883 25.2482C224.875 25.2322 223.931 25.1842 223.115 25.1042V23.1202C224.075 23.2802 225.275 23.4082 226.251 23.4242C226.283 23.1842 226.315 22.9602 226.347 22.7682C226.443 22.0802 226.459 21.6802 226.427 21.1522L228.699 21.2482Z" fill="white"/>
<path d="M242.795 21.1202C244.315 21.6002 247.803 22.2082 249.195 22.3682L248.715 24.3202C247.099 24.1122 243.531 23.3602 242.283 23.0402L242.795 21.1202ZM242.891 24.3362C242.683 25.2162 242.395 27.1682 242.283 28.0802C243.739 27.0242 245.323 26.5602 247.003 26.5602C249.803 26.5602 251.435 28.2882 251.435 30.2242C251.435 33.1362 249.131 35.3762 242.475 34.8162L241.867 32.7202C246.667 33.3762 249.211 32.2082 249.211 30.1762C249.211 29.1362 248.219 28.3682 246.827 28.3682C245.019 28.3682 243.387 29.0402 242.379 30.2562C242.091 30.6082 241.931 30.8642 241.787 31.1842L239.947 30.7202C240.267 29.1522 240.635 26.0162 240.747 24.0322L242.891 24.3362Z" fill="white"/>
<path d="M284 28L276 34V22L284 28Z" fill="white"/>
</svg>
