<svg width="311" height="55" viewBox="0 0 311 55" fill="none" xmlns="http://www.w3.org/2000/svg">
<path d="M16.1682 0H311L295.783 55H0L16.1682 0Z" fill="#F1B200"/>
<path d="M84.2812 32.7188C83.6458 33.1094 82.8646 33.3047 81.9375 33.3047C80.4115 33.3047 79.1615 32.7761 78.1875 31.7188C77.1719 30.6563 76.6641 29.2032 76.6641 27.3594C76.6641 25.4948 77.1771 24.0001 78.2031 22.8751C79.2292 21.7501 80.5859 21.1876 82.2734 21.1876C83.737 21.1876 84.9115 21.5599 85.7969 22.3047C86.6875 23.0443 87.1979 23.9688 87.3281 25.0782H84.9609C84.7786 24.2917 84.3333 23.7422 83.625 23.4297C83.2292 23.2579 82.7891 23.1719 82.3047 23.1719C81.3776 23.1719 80.6146 23.5235 80.0156 24.2266C79.4219 24.9245 79.125 25.9766 79.125 27.3829C79.125 28.7995 79.4479 29.8021 80.0938 30.3907C80.7396 30.9792 81.474 31.2735 82.2969 31.2735C83.1042 31.2735 83.7656 31.0417 84.2812 30.5782C84.7969 30.1094 85.1146 29.4974 85.2344 28.7422H82.5703V26.8204H87.3672V33.0001H85.7734L85.5312 31.5626C85.0677 32.1094 84.651 32.4948 84.2812 32.7188Z" fill="white"/>
<path d="M96.5938 25.5626C97.3125 26.4636 97.6719 27.5287 97.6719 28.7579C97.6719 30.0079 97.3125 31.0782 96.5938 31.9688C95.875 32.8542 94.7839 33.2969 93.3203 33.2969C91.8568 33.2969 90.7656 32.8542 90.0469 31.9688C89.3281 31.0782 88.9688 30.0079 88.9688 28.7579C88.9688 27.5287 89.3281 26.4636 90.0469 25.5626C90.7656 24.6615 91.8568 24.211 93.3203 24.211C94.7839 24.211 95.875 24.6615 96.5938 25.5626ZM93.3125 26.0938C92.6615 26.0938 92.1589 26.3256 91.8047 26.7891C91.4557 27.2474 91.2812 27.9037 91.2812 28.7579C91.2812 29.612 91.4557 30.2709 91.8047 30.7344C92.1589 31.198 92.6615 31.4297 93.3125 31.4297C93.9635 31.4297 94.4635 31.198 94.8125 30.7344C95.1615 30.2709 95.3359 29.612 95.3359 28.7579C95.3359 27.9037 95.1615 27.2474 94.8125 26.7891C94.4635 26.3256 93.9635 26.0938 93.3125 26.0938Z" fill="white"/>
<path d="M106.375 25.5626C107.094 26.4636 107.453 27.5287 107.453 28.7579C107.453 30.0079 107.094 31.0782 106.375 31.9688C105.656 32.8542 104.565 33.2969 103.102 33.2969C101.638 33.2969 100.547 32.8542 99.8281 31.9688C99.1094 31.0782 98.75 30.0079 98.75 28.7579C98.75 27.5287 99.1094 26.4636 99.8281 25.5626C100.547 24.6615 101.638 24.211 103.102 24.211C104.565 24.211 105.656 24.6615 106.375 25.5626ZM103.094 26.0938C102.443 26.0938 101.94 26.3256 101.586 26.7891C101.237 27.2474 101.062 27.9037 101.062 28.7579C101.062 29.612 101.237 30.2709 101.586 30.7344C101.94 31.198 102.443 31.4297 103.094 31.4297C103.745 31.4297 104.245 31.198 104.594 30.7344C104.943 30.2709 105.117 29.612 105.117 28.7579C105.117 27.9037 104.943 27.2474 104.594 26.7891C104.245 26.3256 103.745 26.0938 103.094 26.0938Z" fill="white"/>
<path d="M111.461 34.4922C111.701 34.6954 112.104 34.7969 112.672 34.7969C113.474 34.7969 114.01 34.5287 114.281 33.9922C114.458 33.6485 114.547 33.0704 114.547 32.2579V31.711C114.333 32.0756 114.104 32.349 113.859 32.5313C113.417 32.8698 112.841 33.0391 112.133 33.0391C111.039 33.0391 110.164 32.6563 109.508 31.8907C108.857 31.1198 108.531 30.0782 108.531 28.7657C108.531 27.5001 108.846 26.4376 109.477 25.5782C110.107 24.7136 111 24.2813 112.156 24.2813C112.583 24.2813 112.956 24.3464 113.273 24.4766C113.815 24.7006 114.253 25.112 114.586 25.711V24.4844H116.75V32.5626C116.75 33.6615 116.565 34.4896 116.195 35.0469C115.56 36.0053 114.341 36.4844 112.539 36.4844C111.451 36.4844 110.562 36.2709 109.875 35.8438C109.188 35.4167 108.807 34.7787 108.734 33.9297H111.156C111.219 34.1902 111.32 34.3777 111.461 34.4922ZM111.086 30.0938C111.388 30.8126 111.93 31.1719 112.711 31.1719C113.232 31.1719 113.672 30.9766 114.031 30.586C114.391 30.1902 114.57 29.5626 114.57 28.7032C114.57 27.8959 114.398 27.2813 114.055 26.8594C113.716 26.4376 113.26 26.2266 112.688 26.2266C111.906 26.2266 111.367 26.5938 111.07 27.3282C110.914 27.7188 110.836 28.2006 110.836 28.7735C110.836 29.2683 110.919 29.7084 111.086 30.0938Z" fill="white"/>
<path d="M118.883 21.4844H121.109V33.0001H118.883V21.4844Z" fill="white"/>
<path d="M130.578 30.5001C130.521 31.0053 130.258 31.5183 129.789 32.0391C129.06 32.8672 128.039 33.2813 126.727 33.2813C125.643 33.2813 124.688 32.9323 123.859 32.2344C123.031 31.5365 122.617 30.4011 122.617 28.8282C122.617 27.3542 122.99 26.224 123.734 25.4376C124.484 24.6511 125.456 24.2579 126.648 24.2579C127.357 24.2579 127.995 24.3907 128.562 24.6563C129.13 24.9219 129.599 25.3412 129.969 25.9141C130.302 26.4193 130.518 27.0053 130.617 27.6719C130.674 28.0626 130.698 28.6251 130.688 29.3594H124.859C124.891 30.2136 125.159 30.8126 125.664 31.1563C125.971 31.3698 126.341 31.4766 126.773 31.4766C127.232 31.4766 127.604 31.3464 127.891 31.086C128.047 30.9454 128.185 30.7501 128.305 30.5001H130.578ZM128.375 27.8907C128.339 27.3021 128.159 26.8568 127.836 26.5547C127.518 26.2474 127.122 26.0938 126.648 26.0938C126.133 26.0938 125.732 26.2553 125.445 26.5782C125.164 26.9011 124.987 27.3386 124.914 27.8907H128.375Z" fill="white"/>
<path d="M146.404 22.9201C146.18 23.1761 145.988 23.3841 145.86 23.5921C144.708 25.4641 142.66 28.0241 140.404 29.8481C141.316 30.7601 142.26 31.8001 142.884 32.5521L141.012 34.0401C140.34 33.1441 138.996 31.6401 137.956 30.5841C137.028 29.6401 135.396 28.2001 134.436 27.5121L136.132 26.1521C136.772 26.6321 137.828 27.4961 138.836 28.3761C140.644 26.9361 142.148 25.0801 142.9 23.7681H134.436C133.796 23.7681 132.932 23.8481 132.596 23.8801V21.6401C133.012 21.7041 133.892 21.7841 134.436 21.7841H143.316C143.924 21.7841 144.468 21.7201 144.804 21.6081L146.404 22.9201Z" fill="white"/>
<path d="M155.236 23.4961C155.54 24.1841 156.324 26.2641 156.548 27.0001L154.628 27.6721C154.436 26.8881 153.732 24.9521 153.332 24.1201L155.236 23.4961ZM161.14 24.6641C160.948 25.1761 160.852 25.5121 160.756 25.8321C160.34 27.4481 159.668 29.1121 158.58 30.5201C157.092 32.4401 155.092 33.7841 153.22 34.4881L151.54 32.7761C153.3 32.3121 155.524 31.0961 156.852 29.4321C157.94 28.0721 158.708 25.9441 158.9 23.9441L161.14 24.6641ZM151.524 24.3441C151.924 25.1601 152.692 27.0961 153.012 27.9921L151.06 28.7281C150.788 27.8641 149.988 25.7361 149.604 25.0321L151.524 24.3441Z" fill="white"/>
<path d="M176.02 21.2721C176.02 21.7681 176.436 22.1841 176.948 22.1841C177.444 22.1841 177.86 21.7681 177.86 21.2721C177.86 20.7601 177.444 20.3441 176.948 20.3441C176.436 20.3441 176.02 20.7601 176.02 21.2721ZM175.028 21.2721C175.028 20.2161 175.892 19.3521 176.948 19.3521C177.988 19.3521 178.852 20.2161 178.852 21.2721C178.852 22.3121 177.988 23.1761 176.948 23.1761C176.884 23.1761 176.804 23.1761 176.74 23.1601C176.692 23.3361 176.66 23.4961 176.612 23.6401C176.244 25.2081 175.556 27.6881 174.212 29.4641C172.772 31.3841 170.628 32.9681 167.78 33.8961L166.036 31.9761C169.204 31.2401 171.012 29.8481 172.308 28.2161C173.364 26.8881 173.972 25.0801 174.18 23.7041H166.74C166.004 23.7041 165.236 23.7361 164.836 23.7681V21.5121C165.3 21.5761 166.212 21.6401 166.74 21.6401H174.148C174.372 21.6401 174.724 21.6241 175.06 21.5761C175.044 21.4801 175.028 21.3841 175.028 21.2721Z" fill="white"/>
<path d="M180.26 22.0241C180.9 22.0081 181.524 21.9761 181.828 21.9441C183.172 21.8321 185.812 21.5921 188.74 21.3521C190.388 21.2081 192.132 21.1121 193.268 21.0641L193.284 23.1121C192.42 23.1281 191.044 23.1281 190.196 23.3361C188.26 23.8481 186.804 25.9121 186.804 27.8161C186.804 30.4561 189.268 31.4001 191.988 31.5441L191.236 33.7361C187.876 33.5121 184.708 31.7201 184.708 28.2481C184.708 25.9441 186.004 24.1201 187.092 23.3041C185.588 23.4641 182.324 23.8161 180.468 24.2161L180.26 22.0241ZM190.996 24.6801C191.396 25.2561 191.972 26.2321 192.276 26.8561L191.06 27.4001C190.66 26.5201 190.324 25.8961 189.812 25.1761L190.996 24.6801ZM192.788 23.9441C193.188 24.5041 193.796 25.4481 194.132 26.0721L192.932 26.6481C192.5 25.7841 192.132 25.1921 191.62 24.4881L192.788 23.9441Z" fill="white"/>
<path d="M199.812 26.6801V27.6721H206.5V26.6801H199.812ZM199.812 24.1361V25.1281H206.5V24.1361H199.812ZM199.812 21.6081V22.6001H206.5V21.6081H199.812ZM206.532 32.4561H208.196C208.74 32.4561 208.836 32.1841 208.916 30.3281C209.316 30.6321 210.164 30.9521 210.66 31.0801C210.452 33.6081 209.956 34.2641 208.372 34.2641H206.26C204.356 34.2641 203.908 33.6881 203.908 31.8961V29.3361H201.972C201.636 31.8801 200.692 33.5601 196.74 34.4561C196.564 33.9441 196.052 33.1601 195.684 32.7601C198.964 32.1521 199.652 31.0801 199.924 29.3361H197.972V19.9441H208.436V29.3361H205.828V31.8801C205.828 32.3921 205.924 32.4561 206.532 32.4561Z" fill="white"/>
<path d="M217.396 31.1121C217.396 31.7041 218.052 32.1041 219.012 32.1041C219.348 32.1041 219.652 32.0881 219.94 32.0561C219.844 31.0161 219.252 30.3441 218.388 30.3441C217.78 30.3441 217.396 30.7121 217.396 31.1121ZM214.676 20.8081C215.124 20.8721 215.684 20.8881 216.132 20.8881C216.98 20.8881 220.404 20.8241 221.316 20.7441C221.972 20.6801 222.34 20.6321 222.532 20.5681L223.572 21.9921C223.204 22.2321 222.82 22.4561 222.452 22.7281C221.588 23.3361 219.908 24.7441 218.9 25.5441C219.428 25.4161 219.908 25.3681 220.42 25.3681C223.14 25.3681 225.204 27.0641 225.204 29.4001C225.204 31.9281 223.284 33.9281 219.412 33.9281C217.188 33.9281 215.508 32.9041 215.508 31.3041C215.508 30.0081 216.676 28.8081 218.372 28.8081C220.356 28.8081 221.556 30.0241 221.78 31.5441C222.66 31.0801 223.108 30.3441 223.108 29.3681C223.108 27.9281 221.668 26.9521 219.78 26.9521C217.332 26.9521 215.732 28.2481 214.02 30.2001L212.564 28.6961C213.7 27.7841 215.636 26.1521 216.58 25.3681C217.476 24.6321 219.14 23.2881 219.924 22.6001C219.108 22.6161 216.9 22.7121 216.052 22.7601C215.62 22.7921 215.108 22.8401 214.74 22.8881L214.676 20.8081Z" fill="white"/>
<path d="M282 27L274 33V21L282 27Z" fill="white"/>
</svg>
