<svg width="315" height="59" viewBox="0 0 315 59" fill="none" xmlns="http://www.w3.org/2000/svg">
<g filter="url(#filter0_d_406_99)">
<path d="M16.1682 0H311L295.783 55H0L16.1682 0Z" fill="url(#paint0_linear_406_99)"/>
<path d="M2.00442 53.5L17.2907 1.5H309.029L294.642 53.5H2.00442Z" stroke="white" stroke-width="3"/>
</g>
<path d="M125.952 23.176V22.248H122.64V20.696H125.952V19.448H127.84V20.696H131.216V22.248H127.84V23.176H130.752V24.712H123.216V23.176H125.952ZM117.072 28.808L118.592 29.064C118.448 30.584 118.096 32.168 117.648 33.192C117.328 32.968 116.64 32.664 116.256 32.52C116.72 31.576 116.944 30.152 117.072 28.808ZM121.248 27.704L120.448 27.768V34.392H118.816V27.896L116.592 28.072L116.4 26.424L117.552 26.36C117.792 26.072 118.032 25.752 118.272 25.416C117.824 24.696 117.088 23.832 116.448 23.176L117.376 21.896C117.488 22.008 117.616 22.12 117.744 22.232C118.192 21.352 118.64 20.28 118.896 19.464L120.544 20.04C119.984 21.144 119.328 22.408 118.736 23.304C118.928 23.512 119.104 23.736 119.248 23.928C119.808 23.032 120.32 22.12 120.688 21.336L122.24 22.056C121.36 23.4 120.272 24.984 119.264 26.264L120.656 26.184C120.496 25.832 120.32 25.48 120.144 25.16L121.488 24.6C121.904 25.32 122.304 26.184 122.592 26.952V25.448H131.376V28.616H129.712V26.92H124.176V28.616H122.592V28.136L121.488 28.648C121.44 28.376 121.344 28.056 121.248 27.704ZM120.592 29.144L121.92 28.744C122.304 29.624 122.64 30.792 122.736 31.56L121.328 32.024C121.248 31.24 120.944 30.056 120.592 29.144ZM124.512 28.968V27.72H126.224V29C126.224 30.648 125.792 32.952 122.816 34.408C122.528 34.024 121.936 33.48 121.52 33.144C124.144 31.896 124.512 30.136 124.512 28.968ZM129.328 32.632H129.872C130.096 32.632 130.176 32.376 130.208 30.648C130.544 30.952 131.248 31.224 131.728 31.352C131.568 33.64 131.136 34.232 130.048 34.232H129.024C127.664 34.232 127.376 33.72 127.376 32.136V27.72H129.088V32.136C129.088 32.568 129.12 32.632 129.328 32.632Z" fill="#003E92"/>
<path d="M134.336 24.872C136.72 25.096 138.88 25.112 140.656 25C140.576 24.808 140.512 24.616 140.448 24.44C140.32 24.072 140.224 23.768 140.128 23.496C138.624 23.576 136.752 23.544 134.736 23.352L134.624 21.512C136.528 21.736 138.16 21.8 139.632 21.752C139.472 21.24 139.312 20.728 139.12 20.168L141.264 19.928C141.344 20.504 141.44 21.064 141.552 21.608C142.656 21.464 143.68 21.24 144.704 20.92L144.96 22.76C144.08 23 143.072 23.208 142.016 23.352C142.096 23.608 142.176 23.864 142.256 24.104C142.336 24.328 142.432 24.568 142.528 24.824C143.84 24.664 144.8 24.392 145.584 24.184L145.904 26.072C145.168 26.264 144.304 26.44 143.344 26.568C143.616 27.08 143.888 27.576 144.176 27.992C144.384 28.296 144.608 28.536 144.896 28.808L143.92 30.28C143.024 30.104 141.296 29.896 140.128 29.768L140.288 28.248C140.96 28.312 141.824 28.392 142.304 28.44C141.968 27.88 141.664 27.32 141.408 26.776C139.44 26.904 136.864 26.904 134.448 26.76L134.336 24.872ZM137.408 28.584C137.024 29.112 136.704 29.672 136.704 30.36C136.704 31.544 137.824 32.024 139.936 32.024C141.456 32.024 142.816 31.896 143.952 31.672L143.84 33.704C142.72 33.896 141.264 34.008 139.952 34.008C136.752 34.008 134.768 33.064 134.736 30.776C134.704 29.752 135.056 28.968 135.424 28.2L137.408 28.584Z" fill="#003E92"/>
<path d="M155.776 20.168C155.696 20.568 155.584 21.096 155.376 21.768C156.896 21.688 158.496 21.544 159.904 21.304L159.888 23.16C158.368 23.384 156.4 23.512 154.672 23.56C154.4 24.152 154.08 24.728 153.76 25.192C154.176 25 155.04 24.872 155.568 24.872C156.544 24.872 157.344 25.288 157.696 26.104C158.528 25.72 159.2 25.448 159.856 25.16C160.48 24.888 161.04 24.632 161.632 24.328L162.432 26.184C161.92 26.328 161.072 26.648 160.528 26.856C159.808 27.144 158.896 27.496 157.92 27.944C157.936 28.84 157.968 30.024 157.984 30.76H156.064C156.112 30.28 156.128 29.512 156.144 28.808C154.944 29.496 154.304 30.12 154.304 30.92C154.304 31.8 155.056 32.04 156.624 32.04C157.984 32.04 159.76 31.864 161.168 31.592L161.104 33.656C160.048 33.8 158.08 33.928 156.576 33.928C154.064 33.928 152.208 33.32 152.208 31.256C152.208 29.208 154.128 27.928 155.952 26.984C155.712 26.584 155.28 26.44 154.832 26.44C153.936 26.44 152.944 26.952 152.336 27.544C151.856 28.024 151.392 28.6 150.848 29.304L149.136 28.024C150.816 26.472 151.952 25.048 152.672 23.608C152.592 23.608 152.528 23.608 152.464 23.608C151.808 23.608 150.64 23.576 149.76 23.512V21.64C150.576 21.768 151.76 21.832 152.576 21.832C152.816 21.832 153.088 21.832 153.344 21.832C153.52 21.192 153.632 20.568 153.664 19.992L155.776 20.168Z" fill="#003E92"/>
<path d="M173.728 23.144V22.184H170.432V20.648H173.728V19.448H175.616V20.648H179.136V22.184H175.616V23.144H178.656V24.68H170.96V23.144H173.728ZM171.936 26.952V28.52H170.256V25.464H179.248V28.52H177.488V26.952H171.936ZM169.632 19.944V21.384H165.328V19.944H169.632ZM170.144 22.088V23.592H164.528V22.088H170.144ZM169.664 24.312V25.768H165.232V24.312H169.664ZM165.232 27.928V26.504H169.664V27.928H165.232ZM168.128 32.04V30.2H166.736V32.04H168.128ZM169.696 28.712V32.856C172.064 31.928 172.288 30.376 172.384 27.704H174.16C174.032 31.048 173.6 33.208 170.64 34.44C170.464 34.024 170.048 33.416 169.696 33.048V33.528H166.736V34.168H165.184V28.712H169.696ZM177.232 32.616H177.792C178.048 32.616 178.112 32.36 178.144 30.584C178.496 30.872 179.232 31.16 179.712 31.288C179.552 33.656 179.136 34.264 177.984 34.264H176.912C175.52 34.264 175.2 33.736 175.2 32.12V27.72H176.96V32.104C176.96 32.568 176.992 32.616 177.232 32.616Z" fill="#003E92"/>
<path d="M186.4 20.056C186.304 20.52 186.24 21.112 186.24 22.056C187.168 21.944 188.144 21.768 189.104 21.496V23.416C188.16 23.64 187.152 23.784 186.24 23.864V25.96C186.544 26.376 186.704 26.936 186.704 27.576C186.704 28.584 186.448 29.576 185.872 30.28C185.872 30.504 185.872 30.728 185.872 30.92C185.872 31.608 186.048 31.96 187.936 31.96C188.736 31.96 189.776 31.864 190.384 31.672C191.216 31.432 191.568 30.888 191.568 30.072C191.568 29.432 191.552 28.84 191.44 28.088L193.664 28.76C193.664 29.592 193.68 29.976 193.632 30.632C193.552 32.088 193.12 32.984 191.264 33.544C190.544 33.784 188.88 33.896 187.792 33.896C184.064 33.896 183.904 32.712 183.904 31.592C183.904 31.48 183.904 31.368 183.904 31.256C183.824 31.272 183.744 31.272 183.648 31.272C182.48 31.272 181.296 30.44 181.296 28.392C181.296 26.504 182.512 25.08 184.256 25.08H184.32C184.32 24.728 184.32 24.36 184.32 23.992C184.208 23.992 184.096 23.992 183.984 23.992C183.296 23.992 182.432 23.96 181.376 23.864L181.264 21.992C182.144 22.12 183.088 22.2 183.84 22.2C184 22.2 184.16 22.2 184.32 22.2C184.32 22.152 184.32 22.104 184.32 22.072C184.32 21.064 184.288 20.52 184.16 20.056H186.4ZM191.776 21.528C192.768 22.152 194.448 23.72 195.168 24.584L193.728 26.056C192.864 25 191.344 23.528 190.432 22.856L191.776 21.528ZM183.856 29.352C184.592 29.352 184.88 28.568 184.88 27.672C184.88 27.048 184.576 26.68 184.128 26.68C183.488 26.68 182.976 27.304 182.976 28.248C182.976 28.952 183.392 29.352 183.856 29.352Z" fill="#003E92"/>
<path d="M282 27L274 33V21L282 27Z" fill="#003E92"/>
<defs>
<filter id="filter0_d_406_99" x="0" y="0" width="315" height="59" filterUnits="userSpaceOnUse" color-interpolation-filters="sRGB">
<feFlood flood-opacity="0" result="BackgroundImageFix"/>
<feColorMatrix in="SourceAlpha" type="matrix" values="0 0 0 0 0 0 0 0 0 0 0 0 0 0 0 0 0 0 127 0" result="hardAlpha"/>
<feOffset dx="4" dy="4"/>
<feComposite in2="hardAlpha" operator="out"/>
<feColorMatrix type="matrix" values="0 0 0 0 0.521569 0 0 0 0 0.945098 0 0 0 0 0.941176 0 0 0 1 0"/>
<feBlend mode="normal" in2="BackgroundImageFix" result="effect1_dropShadow_406_99"/>
<feBlend mode="normal" in="SourceGraphic" in2="effect1_dropShadow_406_99" result="shape"/>
</filter>
<linearGradient id="paint0_linear_406_99" x1="20.9235" y1="11" x2="311.566" y2="50.8772" gradientUnits="userSpaceOnUse">
<stop stop-color="#84F0EF"/>
<stop offset="1" stop-color="#D7F8AD"/>
</linearGradient>
</defs>
</svg>
