<svg width="55" height="49" viewBox="0 0 55 49" fill="none" xmlns="http://www.w3.org/2000/svg">
<path d="M27.4972 8.16823e-08C25.9172 -0.000184031 24.3527 0.310876 22.893 0.915416C21.4333 1.51996 20.1069 2.40613 18.9897 3.52333C17.8725 4.64053 16.9863 5.96687 16.3818 7.4266C15.7773 8.88633 15.4662 10.4508 15.4664 12.0308C15.4664 17.4021 23.3285 27.193 26.3408 30.7463C26.4821 30.9154 26.6588 31.0513 26.8583 31.1446C27.0579 31.2379 27.2755 31.2862 27.4958 31.2862C27.7161 31.2862 27.9337 31.2379 28.1333 31.1446C28.3328 31.0513 28.5095 30.9154 28.6508 30.7463C31.6645 27.193 39.528 17.4021 39.528 12.0308C39.5282 10.4508 39.2171 8.88633 38.6126 7.4266C38.0081 5.96687 37.1219 4.64053 36.0047 3.52333C34.8875 2.40613 33.5611 1.51996 32.1014 0.915416C30.6417 0.310876 29.0772 -0.000184031 27.4972 8.16823e-08ZM27.4972 16.0397C26.704 16.0397 25.9287 15.8045 25.2692 15.3638C24.6097 14.9232 24.0957 14.2969 23.7922 13.5641C23.4887 12.8313 23.4092 12.025 23.564 11.247C23.7187 10.4691 24.1007 9.75457 24.6615 9.19372C25.2224 8.63287 25.9369 8.25093 26.7148 8.09619C27.4928 7.94146 28.2991 8.02087 29.0319 8.3244C29.7646 8.62793 30.391 9.14194 30.8316 9.80142C31.2723 10.4609 31.5075 11.2363 31.5075 12.0294C31.5077 12.5561 31.404 13.0777 31.2026 13.5643C31.0011 14.0509 30.7057 14.4931 30.3333 14.8655C29.9609 15.2379 29.5187 15.5333 29.0321 15.7348C28.5455 15.9363 28.0239 16.0399 27.4972 16.0397ZM1.92034 20.6176C1.35342 20.8445 0.867486 21.2361 0.525203 21.7417C0.182919 22.2474 -1.05919e-05 22.8441 8.50646e-06 23.4547V47.3551C-0.00082567 47.6051 0.0597041 47.8515 0.176288 48.0727C0.292871 48.2938 0.461947 48.483 0.668681 48.6236C0.875415 48.7642 1.11349 48.8519 1.36202 48.879C1.61056 48.9062 1.86195 48.8719 2.09415 48.7792L15.2702 42.78V20.5195C14.4705 19.1018 13.792 17.6192 13.2419 16.0873L1.92034 20.6176ZM27.4972 34.3417C26.8333 34.3417 26.1775 34.1968 25.5754 33.9172C24.9733 33.6376 24.4395 33.23 24.0112 32.7227C22.1343 30.508 20.1383 27.985 18.3315 25.3974V42.7785L36.6629 48.8886V25.3974C34.8561 27.9836 32.8615 30.508 30.9832 32.7227C30.5549 33.2299 30.021 33.6375 29.419 33.9171C28.8169 34.1967 28.161 34.3416 27.4972 34.3417ZM52.9003 15.3865L39.7242 21.3858V48.8844L53.0797 43.5425C53.6467 43.3157 54.1327 42.9243 54.475 42.4185C54.8174 41.9128 55.0002 41.3161 55 40.7054V16.8064C55.0005 16.5561 54.9395 16.3094 54.8223 16.0882C54.7052 15.8669 54.5354 15.6779 54.328 15.5376C54.1206 15.3974 53.882 15.3103 53.633 15.2839C53.384 15.2575 53.1324 15.2928 52.9003 15.3865Z" fill="#0B59BF"/>
</svg>
