<svg width="50" height="50" viewBox="0 0 50 50" fill="none" xmlns="http://www.w3.org/2000/svg">
<path d="M25 6.5801e-07C20.0554 6.6614e-07 15.2219 1.46626 11.1106 4.21336C6.99934 6.96046 3.79503 10.865 1.90289 15.4332C0.0107371 20.0015 -0.484262 25.0282 0.480484 29.8778C1.44523 34.7273 3.82639 39.1819 7.32285 42.6782C10.8193 46.1744 15.274 48.5553 20.1236 49.5198C24.9732 50.4843 30 49.989 34.5681 48.0966C39.1362 46.2042 43.0406 42.9996 45.7874 38.8882C48.5343 34.7768 50.0003 29.9432 50 24.9986C50.0006 21.7154 49.3543 18.4643 48.0981 15.431C46.8419 12.3977 45.0004 9.6416 42.6788 7.32014C40.3572 4.99868 37.601 3.15735 34.5676 1.90134C31.5343 0.64533 28.2831 -0.000752663 25 6.5801e-07ZM30.7561 35.2907L21.8675 28.8293C21.7143 28.7163 21.5898 28.569 21.5039 28.3992C21.418 28.2294 21.3731 28.0418 21.3729 27.8515V10.8857C21.3736 10.565 21.5014 10.2577 21.7281 10.0309C21.9549 9.80419 22.2622 9.67646 22.5829 9.67571H27.4214C27.7421 9.67646 28.0495 9.80419 28.2762 10.0309C28.503 10.2577 28.6307 10.565 28.6314 10.8857V24.7663L35.0356 29.4242C35.1643 29.5179 35.2732 29.6361 35.3561 29.7721C35.439 29.908 35.4942 30.059 35.5186 30.2163C35.543 30.3736 35.536 30.5342 35.4982 30.6889C35.4603 30.8435 35.3922 30.9891 35.2979 31.1174L32.455 35.0341C32.2631 35.2926 31.9768 35.4647 31.6585 35.5128C31.3402 35.5609 31.0158 35.481 30.7561 35.2907Z" fill="#0B59BF"/>
</svg>
