<svg width="55" height="55" viewBox="0 0 55 55" fill="none" xmlns="http://www.w3.org/2000/svg">
<path d="M34.8738 21.6074C36.7713 21.6074 38.3113 23.1474 38.3113 25.0449V38.3018C38.3113 41.1676 37.1729 43.9161 35.1465 45.9425C33.12 47.9689 30.3716 49.1074 27.5058 49.1074C24.64 49.1074 21.8916 47.9689 19.8651 45.9425C17.8387 43.9161 16.7003 41.1676 16.7003 38.3018V25.0449C16.7003 23.1474 18.2383 21.6074 20.1378 21.6074H34.8738ZM7.36597 21.6074L15.9735 21.6034C15.2656 22.4564 14.8395 23.5077 14.7536 24.6127L14.734 25.0449V38.3018C14.734 40.5274 15.3056 42.6213 16.3054 44.4441C14.9597 45.0313 13.489 45.2741 12.026 45.1506C10.5629 45.0271 9.15372 44.5411 7.9255 43.7367C6.69728 42.9322 5.68873 41.8346 4.99091 40.5428C4.29308 39.251 3.92795 37.8058 3.92847 36.3375V25.0449C3.92899 24.133 4.29159 23.2587 4.93656 22.6141C5.58153 21.9695 6.4541 21.6074 7.36597 21.6074ZM39.0381 21.6034L47.6338 21.6074C49.5313 21.6074 51.0713 23.1474 51.0713 25.0449V36.3395C51.0719 37.8071 50.7071 39.2518 50.0097 40.5432C49.3123 41.8346 48.3044 42.932 47.0768 43.7364C45.8492 44.5408 44.4407 45.0269 42.9783 45.1508C41.5159 45.2747 40.0457 45.0325 38.7003 44.4461L38.8103 44.2457C39.6529 42.6488 40.1656 40.8495 40.2599 38.9422L40.2756 38.3018V25.0449C40.2756 23.7366 39.8101 22.5384 39.0381 21.6034ZM27.4999 5.89307C28.4027 5.89307 29.2967 6.07089 30.1308 6.41639C30.965 6.7619 31.7229 7.2683 32.3613 7.90671C32.9997 8.54511 33.5061 9.303 33.8516 10.1371C34.1971 10.9712 34.3749 11.8652 34.3749 12.7681C34.3749 13.6709 34.1971 14.5649 33.8516 15.399C33.5061 16.2331 32.9997 16.991 32.3613 17.6294C31.7229 18.2678 30.965 18.7742 30.1308 19.1197C29.2967 19.4652 28.4027 19.6431 27.4999 19.6431C25.6765 19.6431 23.9278 18.9187 22.6385 17.6294C21.3492 16.3401 20.6249 14.5914 20.6249 12.7681C20.6249 10.9447 21.3492 9.19602 22.6385 7.90671C23.9278 6.6174 25.6765 5.89307 27.4999 5.89307ZM43.2201 7.85735C43.9939 7.85735 44.7602 8.00978 45.4752 8.30592C46.1901 8.60206 46.8398 9.03613 47.387 9.58333C47.9342 10.1305 48.3682 10.7802 48.6644 11.4951C48.9605 12.2101 49.1129 12.9763 49.1129 13.7502C49.1129 14.5241 48.9605 15.2904 48.6644 16.0053C48.3682 16.7203 47.9342 17.3699 47.387 17.9171C46.8398 18.4643 46.1901 18.8984 45.4752 19.1945C44.7602 19.4906 43.9939 19.6431 43.2201 19.6431C41.6572 19.6431 40.1583 19.0222 39.0532 17.9171C37.9481 16.812 37.3272 15.3131 37.3272 13.7502C37.3272 12.1873 37.9481 10.6885 39.0532 9.58333C40.1583 8.47821 41.6572 7.85735 43.2201 7.85735ZM11.7797 7.85735C12.5536 7.85735 13.3199 8.00978 14.0348 8.30592C14.7498 8.60206 15.3994 9.03613 15.9466 9.58333C16.4938 10.1305 16.9279 10.7802 17.224 11.4951C17.5202 12.2101 17.6726 12.9763 17.6726 13.7502C17.6726 14.5241 17.5202 15.2904 17.224 16.0053C16.9279 16.7203 16.4938 17.3699 15.9466 17.9171C15.3994 18.4643 14.7498 18.8984 14.0348 19.1945C13.3199 19.4906 12.5536 19.6431 11.7797 19.6431C10.2168 19.6431 8.71796 19.0222 7.61284 17.9171C6.50771 16.812 5.88686 15.3131 5.88686 13.7502C5.88686 12.1873 6.50771 10.6885 7.61284 9.58333C8.71796 8.47821 10.2168 7.85735 11.7797 7.85735Z" fill="#0B59BF"/>
</svg>
