<svg width="184" height="130" viewBox="0 0 184 130" fill="none" xmlns="http://www.w3.org/2000/svg">
<g clip-path="url(#clip0_408_113)">
<path d="M65.9103 106.966C65.9297 106.676 65.7556 106.412 65.4849 106.316L64.3633 105.93V107.764C64.9885 107.629 65.4011 107.552 65.4011 107.552C65.6847 107.5 65.8974 107.256 65.9168 106.973L65.9103 106.966Z" fill="white"/>
<path d="M120.746 105.924C121.332 107.482 121.635 108.788 121.642 108.788V108.808L121.655 108.833C121.958 109.812 122.583 110.411 123.285 110.752L123.717 109.554C123.35 109.348 123.06 109.007 122.873 108.447C122.731 107.926 121.539 102.962 119.186 100.761C117.877 99.5698 116.478 98.9775 115.234 98.6299C115.621 98.9067 115.989 99.1964 116.337 99.5118C117.033 100.13 117.652 100.832 118.187 101.591C118.232 101.63 118.277 101.662 118.316 101.701C119.282 102.563 120.166 104.359 120.739 105.917L120.746 105.924Z" fill="white"/>
<path d="M183.162 9.92671C183.162 9.92671 181.931 8.05338 180.609 6.07062C179.269 4.07497 177.902 2.04714 177.438 1.53214C176.722 0.766069 175.691 0 174.344 0C173.661 0 172.932 0.206002 172.197 0.656631C170.193 1.87977 147.548 18.553 145.311 20.3749C138.53 25.9369 135.12 32.0462 134.714 35.6576C133.986 36.1533 133.373 36.5718 132.884 36.9065C132.51 35.9795 131.93 35.0589 131.085 34.1899C129.931 33.0118 128.326 32.5998 126.676 32.5998C124.265 32.5998 121.648 33.4495 119.566 34.3572C119.598 33.971 119.618 33.6491 119.644 33.4367C119.708 32.883 120.14 31.4668 120.559 30.2694C120.971 29.0591 121.371 28.0291 121.371 28.0227C121.481 27.7394 121.371 27.424 121.12 27.2566C120.862 27.0957 120.527 27.1279 120.32 27.3467C120.32 27.3467 120.32 27.3467 120.295 27.3725C120.069 27.5656 118.644 28.6986 114.435 30.1664C114.351 30.1921 114.274 30.2308 114.19 30.2565C114.493 29.5613 114.745 28.8402 114.912 28.0871C115.402 25.8403 115.595 23.8576 115.595 22.1388C115.595 18.2698 114.635 15.772 113.945 14.6583C113.629 14.1884 113.204 12.7077 112.933 11.4331C112.643 10.152 112.463 9.02545 112.463 9.02545C112.411 8.73576 112.166 8.51045 111.87 8.49114C111.573 8.47182 111.302 8.65851 111.212 8.9482C111.212 8.9482 110.993 9.69496 110.445 10.8859C110.394 11.0018 110.336 11.1177 110.278 11.24C109.382 10.725 108.183 10.0941 107.138 9.79796C106.603 9.6499 105.907 9.54689 105.172 9.54689C104.051 9.56621 102.762 9.74646 102.033 10.7829C101.376 11.7936 101.324 12.1541 100.493 13.7571C100.19 14.3364 100.067 14.948 100.067 15.5338C100.067 16.5638 100.428 17.5037 100.886 18.2054C101.672 19.4028 102.613 20.4586 103.29 21.1667C102.845 22.1194 102.407 23.3168 101.956 24.8876C101.911 25.0357 101.885 25.1902 101.846 25.3447C101.221 25.6794 100.26 26.085 99.7319 26.0657C99.5321 26.0657 99.4419 26.0206 99.4096 25.9884C99.184 25.7824 99.184 25.7052 99.1711 25.5957C99.1067 25.261 99.8222 24.4498 100.241 23.5679C100.441 23.0658 100.609 22.5057 100.615 21.907C100.628 21.2246 100.357 20.4779 99.7061 19.9307C99.0873 19.4157 97.8755 18.8878 96.3027 18.405C94.7427 17.935 92.8799 17.5552 91.1266 17.5552C90.3724 17.5552 89.644 17.626 88.9543 17.7934C86.0665 18.5466 83.7202 21.4113 81.593 24.3404C79.4981 27.2695 77.6158 30.3595 76.23 31.4925C74.9601 32.5547 73.5871 33.0955 72.5557 33.0826C71.3632 33.0311 70.6413 32.5612 70.4157 31.0226C70.3964 30.8745 70.3899 30.72 70.3899 30.5655C70.3641 28.1128 72.5106 24.8039 72.9941 23.0915C73.065 22.8018 73.1037 22.4928 73.1037 22.1645C73.1037 21.3984 72.9167 20.5294 72.3882 19.7955C71.8725 19.0552 70.9636 18.5015 69.7711 18.508C69.4295 18.508 69.0685 18.5466 68.6882 18.6367C67.9469 18.817 66.3999 19.6024 64.6079 20.4328C62.8546 21.2568 60.9143 22.0937 59.9474 22.2739C59.1997 22.422 58.2908 22.5508 57.4593 23.0593C56.6213 23.5679 55.9703 24.5335 55.822 25.9755C55.532 28.5827 54.9712 31.1063 54.2041 33.8036C54.0365 34.4023 53.5788 36.2949 52.6377 38.0653C52.6313 38.0781 52.6184 38.0975 52.6119 38.1103C52.0447 37.7241 50.8651 36.9194 49.2923 35.8443C48.9184 32.2328 45.502 26.0979 38.6887 20.5036C36.4519 18.6818 13.8008 2.01495 11.7961 0.785382C11.0613 0.334753 10.3264 0.128751 9.64961 0.128751C8.3024 0.128751 7.27105 0.89482 6.56199 1.66733C6.09143 2.18233 4.73134 4.21016 3.39058 6.2058C2.06915 8.18857 0.837975 10.0619 0.837975 10.0619C0.244947 10.9567 0 11.8194 0 12.5919C0.0322298 14.8514 1.92734 15.9587 1.97246 16.0038L24.3657 31.132C33.1129 37.6018 40.2744 39.5073 44.5545 39.5073C45.5472 39.5073 46.3723 39.3978 47.062 39.2176C48.2674 40.106 49.202 40.7819 49.7177 41.1553C49.3181 41.3291 48.8926 41.445 48.4414 41.4707C47.2553 41.548 45.7534 41.6188 44.4771 41.9793C43.839 42.1596 43.2331 42.4171 42.7561 42.8355C42.2726 43.2539 41.9439 43.8848 41.9568 44.6058C41.9568 44.7925 41.9761 44.9856 42.0148 45.1852C42.1244 45.6165 42.3306 45.8354 42.582 46.2088C43.3362 47.2645 44.6512 49.022 44.8574 51.8867C44.9026 52.5433 45.0637 53.6377 45.0637 54.5325C45.0637 55.0282 44.9928 55.4595 44.9219 55.5883C44.735 55.9745 44.5352 56.5411 44.5287 57.1848C44.4965 57.8736 44.8768 58.8006 45.8501 59.0968C46.7203 59.3671 48.0289 59.3156 49.5695 59.5731C51.0971 59.8242 52.7409 60.3392 54.0107 61.543C54.5844 62.0258 55.7834 63.8606 57.6398 64.0086C57.672 64.0086 57.6978 64.0086 57.7107 64.0086C58.6002 63.97 59.2577 63.4228 60.0441 62.8692C60.4696 62.5537 60.9208 62.2125 61.3785 61.9035C61.6041 62.7404 61.6879 63.5902 61.6879 64.3691C61.6879 65.5214 61.5267 66.4291 61.4429 67.015C58.6969 68.5793 54.5071 71.8174 51.5484 78.0167C49.4921 82.317 48.9893 86.6431 48.9893 89.8747C48.9893 90.0163 48.9893 90.158 48.9893 90.2932C48.6219 90.0871 48.2093 89.9648 47.7581 89.9648C47.7001 89.9648 47.6421 89.9777 47.5841 89.9842C47.8419 88.3812 47.9386 86.6881 47.9386 85.1045C47.9386 82.3556 47.6743 79.9544 47.539 78.9952C47.4358 78.2678 47.4036 76.8322 47.4036 75.519C47.4036 73.9418 47.4487 72.5191 47.4487 72.5191C47.4616 72.2294 47.2747 71.9719 46.9975 71.8882C46.7203 71.8045 46.4238 71.9139 46.2691 72.165C46.2691 72.165 46.166 72.3324 45.9275 72.6607C45.3602 73.4525 44.0581 75.0941 41.9825 76.9417C41.57 76.3237 41.0543 75.2872 40.6805 73.6199C40.0552 70.8839 37.7927 67.6716 34.2861 65.206C30.5796 62.6245 25.4615 62.2319 23.315 61.395C22.4706 61.0731 21.7938 60.5645 21.3426 60.1268C21.1105 59.9143 20.9429 59.7148 20.8269 59.5731C20.7109 59.4315 20.6722 59.3671 20.6658 59.3671C20.5239 59.1611 20.279 59.0581 20.0341 59.0968C19.7891 59.1354 19.5893 59.3156 19.5184 59.5538C19.5055 59.5925 19.3766 60.0624 19.3766 60.7255C19.3766 61.5302 19.5828 62.6954 20.5626 63.5773C22.4835 65.2575 24.456 64.794 26.1771 65.5021C26.9183 65.7725 27.8852 66.6545 28.6007 67.4656C28.6265 67.4978 28.6523 67.5235 28.6781 67.5557C27.4276 67.2853 25.6807 66.9892 23.8243 66.9506C23.7598 66.9506 23.6954 66.9506 23.6373 66.9506C20.0985 66.9441 18.674 68.9333 18.6224 69.0428C18.4806 69.2488 18.4806 69.5256 18.6095 69.738C18.7384 69.9505 18.9898 70.0664 19.2348 70.0342C19.2348 70.0342 19.5119 69.9955 20.0469 69.9955C21.7745 69.9955 25.8354 70.4269 29.1809 74.122C31.495 76.6842 32.4941 79.2334 32.9711 81.1583C33.3707 82.6711 34.7631 84.1582 35.7171 85.1109C35.2723 86.0959 34.9629 86.907 34.7953 87.319C33.3707 91.0206 32.8873 94.4068 32.8551 97.2393C32.3136 97.0075 31.7721 96.8595 31.2371 96.8595C30.5023 96.853 29.7675 97.1491 29.2518 97.7478C28.1431 99.0032 27.7112 100.181 27.4147 101.224C27.1182 102.273 26.9248 103.175 26.2866 104.166C25.4809 105.454 23.1926 107.552 20.8914 109.477C18.5773 111.415 16.2438 113.211 15.1867 114.106C12.5825 116.327 8.05101 119.224 5.41461 121.696C4.68621 122.371 4.33813 123.221 4.34458 124.032C4.36392 125.88 5.94962 127.457 7.88986 127.476C8.36041 127.476 8.84386 127.38 9.31442 127.167C10.8937 126.44 18.3517 121.502 19.499 120.595C19.4733 120.614 21.71 119.005 24.3464 117.286C26.957 115.573 30.0446 113.745 31.4241 113.391C33.3321 112.889 34.7824 112.921 36.1361 112.908C37.4704 112.908 38.7725 112.85 40.1068 112.039C40.3968 111.865 40.6289 111.614 40.8223 111.325C41.7956 111.679 42.7754 111.975 43.7165 112.155C45.3216 112.451 46.7719 112.58 48.0804 112.58H48.1256C49.144 112.58 50.0851 112.503 50.9424 112.368V111.067C50.0851 111.209 49.1376 111.305 48.0804 111.305C46.8557 111.305 45.4827 111.189 43.9486 110.906C41.4862 110.456 38.5146 109.039 36.2972 107.803C35.9556 107.436 35.5044 107.172 34.9951 107.057C34.9113 107.005 34.8404 106.96 34.7566 106.915C35.0531 106.915 35.369 106.915 35.6977 106.915C37.5929 106.915 39.8941 106.928 41.1768 106.992C43.8325 107.121 46.6043 107.655 50.0658 107.848C50.343 107.861 50.6395 107.874 50.9424 107.881V106.599C50.6588 106.599 50.3881 106.587 50.1367 106.567C46.7783 106.387 44.0259 105.853 41.2413 105.711C39.907 105.647 37.6057 105.634 35.7042 105.634C35.2014 105.634 34.7308 105.634 34.3054 105.634C34.7244 105.299 35.2272 104.919 35.8138 104.52C35.8202 104.52 35.8331 104.507 35.8395 104.501C38.2052 102.891 41.8085 101.018 45.6632 101.025C45.921 101.025 46.1853 101.031 46.4496 101.05C48.1127 101.16 49.6017 101.43 50.9424 101.791V99.4924C50.2398 99.2671 49.4728 99.0611 48.7379 98.868C49.2214 98.7843 49.7564 98.7006 50.3365 98.6105C50.5299 98.5783 50.7362 98.5525 50.9424 98.5203V98.4238C50.9424 97.986 51.0714 97.5547 51.2905 97.1749C49.8789 97.368 48.6348 97.574 47.7001 97.7478C48.493 97.0268 49.6081 96.1449 51.0262 95.3402C51.3872 95.1664 51.8964 94.9089 52.4895 94.5934C54.4297 93.7179 56.7889 93.0677 59.5349 93.0677C59.7799 93.0677 60.0312 93.0677 60.2826 93.0806C65.014 93.2866 68.8235 94.3617 71.8854 96.0741C72.1239 95.9968 72.3817 95.9518 72.646 95.9518H74.1415C73.9674 95.8423 73.8063 95.7329 73.658 95.6363C70.7058 93.7244 67.0573 92.4497 62.6419 91.9798C63.641 91.6386 64.3629 90.6987 64.3629 89.5915C64.3629 89.5657 64.3629 89.54 64.3565 89.5142C65.4459 90.0228 66.8253 90.7116 67.6568 91.291C69.3263 92.4433 73.9352 95.3145 78.2089 95.3402C78.2991 95.3402 78.3893 95.3402 78.4731 95.3402C82.9144 95.205 86.479 93.7179 88.9349 91.9798C89.7665 91.3811 91.1524 90.9948 92.2997 90.7953C93.4536 90.5893 94.3624 90.5571 94.3624 90.5571C94.6461 90.5442 94.8846 90.3511 94.9555 90.0743C95.0264 89.7975 94.9039 89.5142 94.659 89.3662C94.659 89.3662 93.576 88.7224 92.2997 87.9241C91.9323 87.6924 91.5456 87.4478 91.1652 87.2031C92.3964 87.4993 93.7243 87.6859 95.1553 87.6859H95.252C100.918 87.6666 104.483 84.9242 106.636 81.7505C107.899 82.6518 109.027 83.4565 109.994 84.1453C107.854 84.5959 106.719 85.0659 106.41 85.2332C105.849 85.6517 105.946 86.083 105.907 86.3856C105.907 86.7718 105.978 87.1001 105.978 87.1194C106.062 87.6795 106.275 88.0014 106.404 88.2653C106.539 88.5486 106.719 88.9863 106.932 90.158C107.319 92.3145 107.396 93.8016 107.583 95.7458C107.59 95.8294 107.609 95.9067 107.628 95.984C108.118 96.0097 108.602 96.0548 109.079 96.132C108.95 95.9518 108.859 95.7715 108.853 95.6234C108.672 93.7179 108.589 92.1665 108.189 89.9326C107.97 88.7031 107.751 88.1044 107.557 87.7053C107.358 87.2933 107.306 87.2868 107.241 86.8941C107.241 86.8684 107.19 86.6109 107.19 86.3791C107.19 86.3405 107.19 86.3019 107.19 86.2697C107.609 86.0894 109.072 85.5615 111.425 85.1624C111.483 85.2075 111.547 85.2526 111.605 85.2912C111.064 85.5294 110.503 85.8062 109.904 86.1409C109.291 86.5079 109.169 87.1581 109.169 87.7117C109.169 88.5357 109.44 89.4627 109.781 90.2932C110.136 91.13 110.51 91.8253 110.999 92.2566C111.85 92.8939 113.243 93.0613 114.783 93.4154C116.298 93.7244 117.877 94.1492 118.586 94.7286C119.347 95.2629 120.527 97.986 121.442 100.6C121.919 101.913 122.364 103.22 122.77 104.282C123.195 105.357 123.492 106.13 123.949 106.625C124.149 106.825 124.375 106.973 124.607 107.095L125.045 105.878C124.981 105.833 124.91 105.782 124.852 105.724C124.742 105.653 124.336 104.848 123.962 103.831C123.376 102.286 122.66 100.123 121.9 98.1856C121.113 96.235 120.378 94.5484 119.379 93.7179C118.271 92.8682 116.601 92.5012 115.054 92.1665C113.533 91.8639 112.044 91.5163 111.812 91.2717C111.676 91.1815 111.244 90.5313 110.967 89.8168C110.671 89.0958 110.452 88.2524 110.452 87.7181C110.452 87.5314 110.477 87.3963 110.503 87.319C110.529 87.2546 110.535 87.2611 110.535 87.2546C111.386 86.7782 112.147 86.4306 112.843 86.1731C113.391 86.5658 113.687 86.7783 113.687 86.7783C114.732 87.5057 118.225 89.997 123.028 93.4282C122.319 94.7029 122.145 95.778 122.145 96.4925C122.145 96.9238 122.209 97.22 122.241 97.3487C122.518 99.1319 123.878 100.49 125.129 101.668C125.503 102.003 125.87 102.338 126.205 102.653L126.676 101.359C126.45 101.16 126.225 100.954 126.006 100.735C124.762 99.5954 123.646 98.3337 123.505 97.1427V97.0848L123.479 97.0268C123.479 97.0268 123.479 97.014 123.46 96.9238C123.447 96.8337 123.427 96.6856 123.427 96.4925C123.427 96.0033 123.537 95.205 124.078 94.1814C125.387 95.1213 126.786 96.1191 128.242 97.162C128.468 96.7758 128.79 96.4668 129.177 96.2608C121.674 90.8918 115.834 86.7203 114.422 85.7418C114.422 85.7418 111.67 83.7783 107.306 80.669C107.512 80.3021 107.712 79.9287 107.893 79.5617C108.099 79.1304 108.279 78.7056 108.453 78.2871C111.206 80.1926 113.14 81.5381 113.836 82.0273C115.106 82.9157 119.637 86.0251 125.728 90.203L127.114 91.1493C129.306 92.6493 131.678 94.2716 134.14 95.9646H136.39C136.377 94.5033 136.332 93.0806 136.216 92.4819C135.984 91.3682 135.075 90.6665 134.128 90.673C133.431 90.6665 132.716 91.0721 132.355 91.806C132.258 92.0249 132.207 92.2309 132.104 92.5978C132.078 92.7072 132.046 92.8231 132.013 92.9454L128.275 90.3962C128.146 90.306 128.017 90.2223 127.888 90.1322C129.951 88.658 131.73 88.2074 132.529 88.2203C132.645 88.2203 132.735 88.2331 132.787 88.2396C132.813 88.2396 132.825 88.246 132.838 88.2524C133.025 88.3812 132.993 88.3748 133.18 88.6644C133.354 88.9541 133.657 89.3726 134.295 89.8683C135.32 90.6665 137.247 91.4455 139.033 92.2502C139.923 92.6493 140.76 93.0356 141.386 93.3961C141.695 93.5699 141.953 93.7437 142.127 93.8853C142.301 94.0205 142.353 94.1235 142.359 94.1235C142.462 94.3488 142.61 95.6299 142.604 97.0783C142.604 98.3015 142.52 99.7177 142.34 100.999L143.165 103.284C143.255 102.975 143.332 102.647 143.403 102.306C147.799 105.318 152.234 108.357 156.373 111.196L158.693 112.799C158.809 112.87 158.932 112.953 159.041 113.031C158.506 113.262 158.023 113.739 157.849 114.466C157.746 114.827 157.694 115.168 157.694 115.49C157.681 116.211 157.978 116.797 158.403 117.202C154.155 114.157 149.405 110.752 144.628 107.333L145.672 110.224C145.898 110.224 146.124 110.198 146.356 110.159L148.702 111.853C148.47 111.878 148.231 111.891 147.974 111.904C147.31 111.923 146.762 111.943 146.291 111.949L146.749 113.217C147.123 113.211 147.542 113.192 148.012 113.179C148.818 113.153 149.533 113.043 150.172 112.876C151.093 113.539 152.009 114.189 152.905 114.833C152.834 115.2 152.789 115.561 152.789 115.902C152.802 118.303 154.252 119.874 154.297 119.932C157.043 122.803 161.188 123.859 163.115 125.236C163.805 125.719 164.623 125.886 165.436 125.886C166.222 125.874 167.021 125.725 167.769 125.494C171.192 127.946 173.293 129.459 173.3 129.466C173.828 129.833 174.408 130 174.963 130H174.969C176.858 129.955 178.373 128.281 178.405 126.446C178.405 125.603 178.031 124.721 177.225 124.077C176.871 123.794 175.233 122.648 172.642 120.852C173.035 119.616 173.19 118.251 173.19 116.919C173.19 114.337 172.629 111.82 171.946 110.256C170.521 107.069 167.556 106.2 165.9 104.848C165.075 104.211 163.702 102.531 162.232 101.031C160.737 99.5439 159.177 98.1148 157.417 98.0697C157.417 98.0697 157.398 98.0697 157.372 98.0697C154.439 98.1148 152.647 99.8658 151.203 101.874C150.481 102.872 149.894 103.992 149.475 104.919C147.535 103.593 145.582 102.254 143.642 100.922C143.816 99.6341 143.887 98.2822 143.887 97.0848C143.874 95.5204 143.797 94.3295 143.558 93.6664C143.268 93.0227 142.72 92.7072 142.024 92.2888C139.961 91.13 136.203 89.7782 135.088 88.8705C134.547 88.4327 134.405 88.2138 134.269 88.0014C134.147 87.7954 133.941 87.4156 133.496 87.1581C133.18 86.9778 132.884 86.9521 132.529 86.9456C132.149 86.9456 131.691 87.0164 131.169 87.1452C131.356 87.0293 131.465 86.9392 131.485 86.9327L131.53 86.8941L131.562 86.8555C132.149 86.2182 132.091 85.51 132.129 85.156C132.181 84.7697 132.239 84.3835 133.025 83.5273C135.178 81.2484 136.126 80.4437 136.7 79.5424C136.938 79.1626 137.048 78.7442 137.048 78.3515C137.048 77.315 136.319 76.3752 135.249 76.3043C135.178 76.3043 135.107 76.3043 135.043 76.3043C133.689 76.3237 132.993 76.8129 129.751 77.8622C128.906 78.139 127.933 78.2678 126.947 78.2678C124.729 78.2871 122.454 77.5597 121.635 76.7292C120.333 75.4675 119.818 73.9482 119.818 72.4483C119.805 70.2788 120.965 68.1866 122.357 67.3626C123.937 66.3969 125.999 66.0107 128.223 66.0107C133.754 66.0043 140.155 68.4248 142.095 69.3132C142.398 69.4483 142.714 69.5256 143.036 69.5192C144.351 69.487 145.318 68.4827 146.194 67.2274C148.786 63.3649 150.642 56.0775 150.778 55.0926C150.79 54.9574 150.797 54.8415 150.797 54.7192C150.797 54.1012 150.578 53.5476 150.178 53.2064C149.778 52.8652 149.301 52.7558 148.863 52.7558C148.451 52.7558 148.057 52.8523 147.703 53.0197C146.955 53.3931 145.995 54.2686 144.531 55.1119C143.087 55.9424 141.25 56.6891 139.027 56.6891C137.125 56.6891 134.914 56.1355 132.381 54.5712C133 54.2042 133.625 53.8888 134.186 53.6313C135.339 53.1034 136.203 52.833 136.203 52.833C136.467 52.7493 136.642 52.5111 136.648 52.2408C136.648 51.9704 136.487 51.7193 136.229 51.6292C136.223 51.6292 133.012 50.4447 131.407 49.6271C131.24 49.5434 131.021 49.4469 130.776 49.3374C131.311 47.8117 132.149 46.3118 132.49 45.1723C132.716 44.3741 133.154 43.1187 133.367 41.6574C134.16 41.0909 134.708 40.6982 134.946 40.5308C135.359 40.2347 136.036 39.7455 136.912 39.1017C137.602 39.2884 138.44 39.3978 139.446 39.3978C143.726 39.3978 150.881 37.4923 159.66 31.0033L182.053 15.875C182.053 15.875 183.968 14.7356 184.006 12.476C184.006 11.7099 183.761 10.8473 183.168 9.94602L183.162 9.92671ZM133.341 92.9261C133.386 92.7587 133.425 92.6171 133.457 92.5077C133.47 92.4562 133.489 92.4111 133.496 92.3854C133.496 92.3789 133.496 92.366 133.502 92.3596C133.676 92.0377 133.883 91.9476 134.121 91.9347C134.45 91.9412 134.824 92.1536 134.959 92.733C135.024 93.0034 135.062 93.9497 135.088 95.0505C134.424 94.5999 133.773 94.1492 133.128 93.7051C133.206 93.4154 133.27 93.1386 133.335 92.9132L133.341 92.9261ZM156.289 109.587C155.799 109.252 155.309 108.917 154.813 108.576C154.838 108.492 154.851 108.428 154.851 108.421C155.509 105.956 156.141 104.507 156.695 103.728C157.256 102.949 157.617 102.84 158.036 102.782C158.113 102.776 158.19 102.769 158.261 102.769C159.821 102.711 161.794 104.636 163.25 107.024C163.856 107.996 164.391 109.033 164.81 109.999C164.636 109.921 164.488 109.85 164.378 109.799C163.702 109.451 161.916 108.144 160.543 107.732C160.298 107.662 160.027 107.61 159.737 107.61C158.719 107.617 157.675 108.183 156.289 109.593V109.587ZM158.242 110.926C158.036 110.784 157.829 110.642 157.623 110.501L157.359 110.314C158.558 109.136 159.28 108.872 159.744 108.878C159.892 108.878 160.034 108.904 160.189 108.949C161.188 109.226 162.973 110.475 163.779 110.913C164.204 111.138 164.868 111.395 165.455 111.621C165.674 112.271 165.809 112.805 165.842 113.153C165.893 113.668 165.919 114.151 165.919 114.595C165.919 116.037 165.674 117.086 165.442 117.769C165.326 118.11 165.21 118.354 165.126 118.515C165.042 118.67 165.004 118.715 165.01 118.721C164.778 119.101 164.436 119.423 164.056 119.687L161.362 117.73C161.807 117.576 162.2 117.318 162.47 116.887C162.896 116.172 163.064 115.4 163.064 114.653C163.064 113.584 162.722 112.58 162.238 111.795C161.742 111.016 161.136 110.398 160.305 110.256C160.169 110.237 160.027 110.224 159.905 110.224C159.106 110.237 158.577 110.578 158.255 110.919L158.242 110.926ZM161.458 113.134C160.762 112.657 160.053 112.168 159.331 111.672C159.467 111.582 159.641 111.511 159.892 111.511C159.957 111.511 160.027 111.511 160.105 111.531C160.279 111.531 160.775 111.872 161.136 112.477C161.259 112.677 161.368 112.902 161.458 113.14V113.134ZM159.073 114.807C159.299 114.189 159.434 114.196 159.834 114.151C160.208 114.144 160.756 114.337 161.175 114.556C161.433 114.685 161.633 114.814 161.755 114.897C161.723 115.367 161.6 115.825 161.355 116.243C161.304 116.385 160.84 116.642 160.311 116.629C160.131 116.629 159.957 116.603 159.795 116.558C159.273 116.372 158.996 116.14 158.97 115.483C158.97 115.297 159.003 115.078 159.073 114.814V114.807ZM159.048 117.646L161.446 119.384C160.633 118.805 159.802 118.206 158.938 117.588C158.97 117.608 159.009 117.627 159.041 117.646H159.048ZM157.107 117.846C157.945 118.451 158.77 119.037 159.57 119.61C159.364 119.487 159.151 119.359 158.951 119.23C158.39 118.876 157.855 118.515 157.468 118.219C157.301 118.091 157.159 117.981 157.069 117.897C157.082 117.885 157.095 117.865 157.114 117.846H157.107ZM172.139 122.05C174.589 123.743 176.175 124.863 176.413 125.056C176.935 125.487 177.109 125.944 177.116 126.434C177.116 126.968 176.858 127.56 176.439 128.004C176.02 128.449 175.472 128.719 174.963 128.712C174.653 128.712 174.35 128.629 174.028 128.41C174.035 128.416 172.197 127.097 169.174 124.927C169.877 124.586 170.463 124.2 170.857 123.839C171.392 123.324 171.804 122.713 172.139 122.043V122.05ZM152.228 102.615C153.64 100.69 154.993 99.3894 157.385 99.3379H157.417C158.358 99.2993 159.911 100.458 161.31 101.913C162.741 103.368 164.063 105.009 165.1 105.833C167.112 107.385 169.632 108.138 170.766 110.752C171.359 112.084 171.907 114.511 171.907 116.9C171.907 119.294 171.347 121.625 169.98 122.912C169.355 123.537 167.124 124.625 165.436 124.599C164.797 124.599 164.25 124.464 163.85 124.18C161.549 122.61 157.617 121.599 155.238 119.056C155.245 119.069 155.193 119.005 155.077 118.857C154.742 118.4 154.065 117.279 154.071 115.902C154.071 115.837 154.071 115.767 154.071 115.702L156.057 117.112C155.902 117.331 155.78 117.621 155.754 118C155.754 118.058 155.754 118.11 155.767 118.148C155.889 118.606 156.018 118.618 156.16 118.792C156.663 119.262 157.681 119.945 158.719 120.582C159.789 121.213 160.685 121.741 161.381 121.85C161.458 121.85 161.542 121.863 161.639 121.863C162.851 121.837 164.901 121.155 166.061 119.43C166.106 119.365 167.195 117.769 167.195 114.588C167.195 114.099 167.17 113.578 167.112 113.018C166.95 111.582 165.9 108.859 164.34 106.342C162.773 103.864 160.769 101.54 158.268 101.482C158.145 101.482 158.029 101.488 157.913 101.501C157.172 101.559 156.327 101.99 155.651 102.982C154.987 103.934 154.361 105.402 153.704 107.778L150.558 105.608C150.952 104.713 151.538 103.567 152.241 102.608L152.228 102.615ZM119.424 35.8057C121.493 34.8336 124.33 33.8551 126.67 33.8615C128.126 33.8615 129.338 34.222 130.163 35.0654C130.976 35.9022 131.485 36.7649 131.794 37.6275C131.588 37.7691 130.615 38.4386 129.074 39.5008C128.758 38.8957 128.352 38.2906 127.817 37.6983L127.798 37.679L127.772 37.6533C125.98 35.9924 123.904 35.5096 122.087 35.5096C121.107 35.5096 120.198 35.6447 119.418 35.8121C119.418 35.8121 119.418 35.8057 119.418 35.7992L119.424 35.8057ZM122.093 36.7906C123.685 36.7906 125.368 37.1898 126.889 38.5803C127.385 39.1403 127.746 39.694 128.01 40.2412C125.709 41.8312 122.506 44.0458 118.767 46.6272C118.702 46.6272 118.638 46.6272 118.58 46.6272C116.91 46.7173 115.241 47.213 113.668 47.9147C114.861 46.7045 116.002 45.2882 116.994 43.6273C118.303 41.4192 118.915 39.0824 119.231 37.164C120.056 36.9709 121.042 36.7906 122.087 36.7906H122.093ZM118.374 33.2628C118.206 34.7177 118.187 39.1017 115.898 42.9771C112.617 48.5327 107.435 51.2687 104.573 52.4146C104.444 52.2794 104.309 52.1506 104.154 52.0412C105.424 49.2022 108.17 43.7046 111.973 39.327C114.964 35.8829 112.965 37.8078 118.999 30.8616C118.702 31.7822 118.445 32.6835 118.374 33.2564V33.2628ZM69.9 80.6239C70.0483 79.3879 70.261 77.6884 70.5124 75.8537C71.0023 72.2036 71.6469 67.987 72.2077 65.8691C72.6782 64.0859 74.0641 58.35 74.8699 55.0218C75.1084 55.9874 75.3468 56.9724 75.4758 57.4616C75.7143 58.3758 76.636 61.5302 76.636 65.6116C76.636 66.0236 76.6232 66.4484 76.6038 66.8798C76.3202 67.2853 76.159 67.781 76.159 68.3153C76.159 68.663 76.2299 68.9913 76.3524 69.2938C75.927 71.6307 74.5733 74.2057 73.0972 76.4202C72.9812 76.5876 72.8716 76.755 72.762 76.9159C72.5493 77.2249 72.3366 77.5275 72.1239 77.8172C71.3052 78.9373 70.5188 79.8965 69.8936 80.6239H69.9ZM71.995 81.3385C71.5051 81.4673 71.0345 81.6153 70.5897 81.7763C70.7638 81.5831 70.9507 81.3643 71.1505 81.1325C71.1957 81.1518 71.2279 81.184 71.2795 81.1905C71.2795 81.1905 71.5437 81.2484 72.0014 81.3385H71.995ZM64.8851 65.9013C64.7175 65.7274 64.4725 65.6631 64.2469 65.7339C64.2211 65.7339 63.6926 65.9013 62.8352 66.2939C62.8997 65.7532 62.9642 65.0837 62.9642 64.3627C62.9642 63.4099 62.8481 62.322 62.5065 61.234C63.2865 60.8542 64.5628 60.159 65.9164 59.2384C66.2838 59.747 66.6255 60.2684 66.9478 60.8156C66.1936 62.5473 65.5297 64.7167 64.9431 67.4913C64.6917 68.663 64.5757 69.796 64.5563 70.8775C64.5305 70.5942 64.5176 70.311 64.5176 70.0277C64.5176 69.0814 64.653 68.1995 64.7819 67.5621C64.9173 66.9248 65.0462 66.545 65.0398 66.545C65.1171 66.3197 65.0591 66.0686 64.8915 65.9013H64.8851ZM65.3105 76.5232C65.5168 77.2314 65.7553 77.8944 66.0002 78.4996C65.7295 78.5124 65.4652 78.5639 65.2202 78.6541C65.2847 78.0167 65.3105 77.3987 65.3105 76.8194C65.3105 76.7164 65.3105 76.6198 65.3105 76.5168V76.5232ZM64.9366 80.5403C65.13 80.0896 65.5748 79.7678 66.1033 79.7678C66.3483 79.7678 66.5803 79.845 66.7737 79.9673C66.7737 79.9673 66.7802 79.9673 66.7866 79.9738C67.1347 80.1991 67.3668 80.5853 67.3668 81.0359C67.3668 81.7312 66.7995 82.2977 66.1033 82.2977C65.4072 82.2977 64.8399 81.7312 64.8399 81.0424C64.8786 80.875 64.9044 80.7141 64.9431 80.5467L64.9366 80.5403ZM65.8197 71.2573C65.8197 70.1436 65.9293 68.9784 66.1871 67.7617C67.4828 61.6525 69.0878 58.7749 71.0474 57.1011C72.1368 56.1677 72.9876 55.3565 73.6387 54.687C72.8394 58.0152 71.4406 63.7833 70.9765 65.5472C70.0741 68.9784 69.0427 77.0511 68.6108 80.669C68.5141 79.9931 68.1532 79.4008 67.6246 79.0081C66.7093 77.0897 65.8197 74.4117 65.8197 71.2573ZM66.9671 58.4916C68.0694 57.6612 69.1587 56.6956 70.0225 55.6269C70.1643 55.7299 70.3061 55.8265 70.4479 55.9295C70.3706 56.0003 70.2997 56.0582 70.2159 56.129C69.249 56.9595 68.3852 58.0217 67.6117 59.4508C67.4054 59.1289 67.1927 58.8071 66.9671 58.4916ZM70.7896 54.5969C71.1957 54.0368 71.5953 53.5154 71.9563 53.0197C72.2592 53.2257 72.5622 53.4381 72.8652 53.6442C72.4784 54.0497 71.995 54.5261 71.4277 55.0475C71.215 54.893 71.0023 54.745 70.7896 54.5905V54.5969ZM94.5171 45.1595C94.5881 47.522 95.065 52.8201 95.4776 57.0754C94.5236 57.3972 93.6469 57.7771 92.8348 58.1891C91.9645 56.7921 91.191 55.0347 90.7914 52.8716C90.8043 52.6785 90.8172 52.4918 90.8172 52.2987C90.8172 52.2408 90.8172 52.1828 90.8172 52.112C90.8172 51.2816 90.6947 50.361 90.4949 49.3889C90.4949 49.3761 90.5013 49.3632 90.5013 49.3503C90.5851 44.1488 92.4351 39.9064 94.2786 36.9644C94.7363 36.2306 95.1875 35.5932 95.613 35.0267C95.0522 37.0803 94.4914 40.0931 94.4914 43.9492C94.4914 44.3419 94.4914 44.7474 94.5107 45.1595H94.5171ZM91.7131 58.8071C90.5787 59.483 89.5989 60.2169 88.7738 60.9443C89.4442 59.4766 90.0179 57.8608 90.3788 56.1033C90.7656 57.114 91.2233 58.0152 91.7131 58.8071ZM89.5409 52.2923C89.4313 57.1333 87.5168 61.1825 85.4928 64.1309C85.2865 64.0794 85.0674 64.0408 84.8482 64.0344C84.1649 64.0344 83.5526 64.3047 83.0949 64.7425C83.8426 61.498 84.6999 57.5067 85.0094 55.1184C85.5702 50.7215 85.8667 43.917 85.9956 40.254C86.363 41.0845 86.782 42.063 87.201 43.1316C88.387 46.1186 89.5538 49.7623 89.5473 52.1056C89.5473 52.1506 89.5473 52.2086 89.5473 52.2858L89.5409 52.2923ZM86.1116 66.5772C86.1116 67.2725 85.5444 67.839 84.8482 67.839C84.152 67.839 83.5848 67.2725 83.5848 66.5772C83.5848 65.8819 84.152 65.3154 84.8482 65.3154C85.5444 65.3154 86.1116 65.8819 86.1116 66.5772ZM83.7395 54.9574C83.3463 58.0796 81.9088 64.2726 81.1289 67.5428C80.9355 66.9313 80.5165 66.4227 79.9686 66.1137C79.0533 64.0022 78.138 61.0924 78.138 57.9251C78.138 56.8951 78.2346 55.8394 78.4538 54.7772C79.8655 48.0306 82.9789 44.7088 84.2939 42.372C84.4292 42.1338 84.5452 41.8956 84.6613 41.6574C84.513 45.4556 84.2229 51.1657 83.7395 54.9638V54.9574ZM82.5792 67.7038C82.4954 67.7875 82.4181 67.8647 82.3407 67.942C82.3794 67.781 82.4181 67.6072 82.4632 67.4334C82.4954 67.5235 82.5341 67.6136 82.5792 67.7038ZM78.4474 65.8047C78.2604 65.824 78.0864 65.8626 77.9188 65.9141C77.9188 65.8111 77.9252 65.7081 77.9252 65.6116C77.9252 65.1352 77.9123 64.6781 77.893 64.2275C78.067 64.7811 78.254 65.309 78.4538 65.8047H78.4474ZM78.7116 67.0536C79.4078 67.0536 79.9751 67.6201 79.9751 68.3153C79.9751 69.0106 79.4078 69.5771 78.7116 69.5771C78.0155 69.5771 77.4482 69.0106 77.4482 68.3153C77.4482 67.6201 78.0155 67.0536 78.7116 67.0536ZM78.312 70.8131C77.8285 71.1736 77.3709 71.5534 76.9326 71.9461C77.1195 71.4569 77.2806 70.9676 77.4096 70.4784C77.6803 70.6393 77.9832 70.7552 78.312 70.8067V70.8131ZM82.6437 69.944C85.6411 69.0042 88.5675 68.663 91.2104 68.663C94.1497 68.663 96.7346 69.0814 98.6941 69.5385C98.7006 69.5385 98.7135 69.5385 98.7199 69.5385C98.8295 69.5642 98.9391 69.59 99.0422 69.6157C97.6563 69.7638 95.8772 70.0277 93.763 70.5041C88.5804 71.6629 84.3003 73.4783 81.9088 74.4696C77.6029 76.2657 74.8118 77.7399 73.1488 78.7249C73.3357 78.4094 73.5484 78.0747 73.7805 77.7142C73.9481 77.4695 74.1157 77.2249 74.2833 76.9674C76.1462 74.2894 79.0662 71.032 82.6437 69.9312V69.944ZM76.8617 57.6676C76.8036 57.4487 76.7585 57.2685 76.7263 57.1397C76.6618 56.908 76.578 56.5539 76.4749 56.1419C76.6232 56.2449 76.7714 56.3479 76.9261 56.4574C76.8939 56.8629 76.8745 57.2685 76.8681 57.6676H76.8617ZM82.4052 75.6542C84.7966 74.6628 88.993 72.886 94.053 71.753C96.1093 71.2895 97.8304 71.032 99.1711 70.8904C98.6877 71.1736 98.1978 71.5019 97.7337 71.8882C96.0384 73.3624 93.6598 77.1605 89.4764 79.1369C86.724 80.4373 83.3012 80.8493 80.1878 80.8493C77.3 80.8493 74.7023 80.5016 73.1294 80.2377C74.5862 79.3236 77.4805 77.7013 82.4116 75.6477L82.4052 75.6542ZM90.0114 80.2956C93.0217 78.8665 95.1746 76.5812 96.6959 74.8623C99.1905 74.7915 100.815 74.7851 101.969 74.7851C103.928 74.7851 104.541 74.7851 105.817 74.431C106.262 74.3023 106.655 74.1478 107.029 73.974C105.101 76.388 101.511 79.8128 96.2189 80.7591C95.194 80.9394 93.8468 81.0166 92.4029 81.0166C91.1459 81.0166 89.8245 80.9587 88.5482 80.8814C89.0445 80.7076 89.5344 80.5145 90.005 80.2956H90.0114ZM97.8497 73.5555C98.1075 73.2723 98.346 73.0341 98.5523 72.8667C98.8811 72.5899 99.2291 72.3517 99.5901 72.1328C100.267 72.6028 100.937 73.0663 101.582 73.5169C100.673 73.5169 99.4805 73.5233 97.8497 73.5619V73.5555ZM99.3838 68.3153C99.2807 68.3153 99.1711 68.3153 99.068 68.3153C97.2696 67.8905 94.9619 67.4978 92.3255 67.4076C89.9598 66.7961 88.1743 66.0043 87.1365 65.4828C87.1172 65.4442 87.0978 65.4056 87.0721 65.3669C88.1163 64.7425 90.2821 63.7704 94.1626 63.4421C95.3809 63.3391 96.4187 63.3005 97.3276 63.3005C100.177 63.3005 101.859 63.6867 104.218 63.6867C104.889 63.6867 105.604 63.6545 106.41 63.5709C108.589 63.3455 111.186 62.8627 113.391 62.4057C112.65 62.8499 111.953 63.3262 111.425 63.8155C110.168 65.0064 105.147 68.1608 100.351 68.296C100.028 68.3089 99.7061 68.3089 99.3903 68.3089L99.3838 68.3153ZM106.275 62.3027C105.514 62.3799 104.844 62.4121 104.212 62.4121C102.02 62.4121 100.293 62.0258 97.3211 62.0258C96.3736 62.0258 95.2971 62.0645 94.0466 62.1739C91.3457 62.3992 89.3862 62.9335 88.0196 63.4872C89.6891 61.6138 92.6414 59.0903 97.1149 57.9251C98.5974 57.5389 100.035 57.3844 101.389 57.3844C106.468 57.3844 110.374 59.5474 111.734 60.0431C112.521 60.3199 113.713 60.5838 114.867 60.7963C112.43 61.337 108.982 62.0387 106.275 62.3155V62.3027ZM101.982 51.6936C101.943 51.7064 101.898 51.7193 101.859 51.7322C101.904 51.4747 101.943 51.2172 101.988 50.9597C101.988 51.1593 101.988 51.3524 101.988 51.5391C101.988 51.5906 101.988 51.6356 101.988 51.6936H101.982ZM102.697 52.8588C103.393 52.8588 103.96 53.4253 103.96 54.1205C103.96 54.8158 103.393 55.3823 102.697 55.3823C102.001 55.3823 101.434 54.8158 101.434 54.1205C101.434 53.4253 102.001 52.8588 102.697 52.8588ZM102.188 47.2388C102.065 44.4835 101.44 42.3656 100.692 40.7369C100.873 40.7755 101.053 40.8012 101.247 40.8012C101.891 40.8012 102.471 40.5566 102.916 40.1639C102.948 40.2669 102.968 40.3248 102.968 40.3313C103.026 40.5115 103.168 40.6596 103.342 40.7304C103.419 40.7626 103.496 40.7755 103.574 40.7755C103.632 40.7755 103.69 40.769 103.748 40.7497C102.858 42.7003 102.407 45.0629 102.181 47.2452L102.188 47.2388ZM100.937 47.8439C100.937 47.9276 100.937 48.0177 100.937 48.1079C100.937 50.8181 100.177 53.7278 99.2549 56.232C98.4492 56.3286 97.6241 56.4702 96.7797 56.6956C96.7539 56.6956 96.7346 56.7084 96.7152 56.7149C96.3091 52.5176 95.845 47.3611 95.7805 45.1337C95.7677 44.7346 95.7612 44.3419 95.7612 43.9621C95.7612 40.6467 96.1931 37.988 96.6637 36.0696C96.7023 36.237 96.741 36.4108 96.7926 36.5846C97.1342 37.6275 98.114 38.5674 99.0487 40.2991C99.9833 42.005 100.873 44.3741 100.937 47.8568V47.8439ZM101.124 56.1097C100.97 56.1097 100.815 56.1162 100.66 56.1226C100.699 56.0067 100.737 55.8909 100.776 55.775C100.879 55.8973 100.995 56.0067 101.124 56.1097ZM105.495 55.8072C105.217 56.0003 104.94 56.187 104.663 56.3801C104.45 56.3479 104.238 56.3093 104.018 56.2835C104.379 56.0647 104.676 55.7557 104.889 55.3887C104.998 55.466 105.205 55.614 105.495 55.8136V55.8072ZM105.172 53.5605C105.404 53.4703 105.649 53.3609 105.901 53.2515C105.63 53.5025 105.398 53.7214 105.217 53.8952C105.205 53.7858 105.198 53.6699 105.172 53.5605ZM106.397 56.7406C106.487 56.6762 106.584 56.6119 106.674 56.5475C106.951 56.7084 107.254 56.8822 107.577 57.0625C107.203 56.9466 106.803 56.8436 106.397 56.7406ZM109.382 56.5539C108.337 56.0518 107.48 55.5561 106.842 55.157C109.33 54.7063 114.326 53.8502 117.774 53.6184C119.399 53.509 120.881 53.4768 122.222 53.4768C124.014 53.4768 125.542 53.5347 126.766 53.5347C127.321 53.5347 127.811 53.5218 128.249 53.4896C129.151 53.4124 130.769 53.2708 132.278 53.1356C131.401 53.6184 130.486 54.2042 129.706 54.9059C128.552 55.9166 126.367 58.5753 118.992 58.8071C118.844 58.8071 118.696 58.8071 118.554 58.8071C115.002 58.8071 111.747 57.6869 109.382 56.5604V56.5539ZM114.854 31.3638C116.098 30.9325 117.11 30.5205 117.942 30.1535C111.999 36.9902 113.894 35.1877 111.012 38.503C107.325 42.7518 104.663 47.9019 103.264 50.9275C103.303 48.0885 103.658 43.6724 105.108 40.8849C105.385 40.3442 105.669 39.8292 105.952 39.327C105.952 39.3142 105.965 39.3077 105.972 39.2948C108.144 35.5096 110.632 32.838 114.861 31.3638H114.854ZM112.14 13.5317C112.347 14.2334 112.579 14.8772 112.856 15.3343C113.384 16.1711 114.319 18.4887 114.313 22.1323C114.313 23.7546 114.132 25.6472 113.655 27.8038C113.41 28.9304 112.953 30.0119 112.366 31.029C109.575 32.4324 107.557 34.4731 105.868 37.0031C107.061 34.4731 108.66 30.6943 109.962 26.2459C111.193 22.0164 111.825 16.9823 112.134 13.5317H112.14ZM101.949 17.4973C101.614 16.9887 101.337 16.242 101.343 15.5274C101.343 15.1154 101.427 14.7163 101.621 14.3429C102.497 12.6562 102.536 12.3408 103.097 11.4782C103.303 11.0919 104.193 10.8022 105.166 10.8215C105.778 10.8215 106.397 10.9117 106.79 11.0275C107.641 11.2657 108.827 11.8837 109.691 12.3794C109.33 13.036 108.898 13.7571 108.389 14.4974C107.983 14.3171 107.493 14.1626 106.932 14.1626C106.126 14.1562 105.211 14.4781 104.379 15.2956C103.735 15.9136 103.438 16.6475 103.445 17.3299C103.451 18.1925 103.844 18.8942 104.251 19.4285C104.135 19.5959 104.025 19.7762 103.909 19.9629C103.303 19.3127 102.562 18.4372 101.943 17.4973H101.949ZM107.615 15.5531C106.687 16.7505 105.881 17.4329 105.069 18.3663C104.863 18.0252 104.715 17.6582 104.721 17.3299C104.721 16.9887 104.831 16.6475 105.269 16.2098C105.914 15.5918 106.449 15.4437 106.926 15.4373C107.164 15.4373 107.396 15.4823 107.609 15.5596L107.615 15.5531ZM103.181 25.2352C104.089 22.0808 104.889 20.6324 105.733 19.5702C106.571 18.508 107.564 17.7548 108.789 16.1325C109.684 14.9416 110.381 13.7892 110.922 12.7785C110.864 13.4545 110.793 14.2077 110.709 15.0188C110.361 18.2698 109.755 22.4027 108.737 25.8918C107.57 29.9089 106.139 33.3852 105.005 35.8507C104.534 36.8808 104.115 37.7176 103.786 38.3614C103.786 38.3292 103.799 38.3035 103.799 38.2713C103.799 37.7756 103.651 37.3249 103.406 36.9323C103 35.0654 102.587 32.5354 102.587 29.9797C102.587 28.351 102.755 26.7159 103.181 25.2352ZM102.517 38.2648C102.517 38.9601 101.956 39.5266 101.253 39.5266C100.557 39.5266 99.9898 38.9665 99.9898 38.2648C99.9898 37.5631 100.557 37.0031 101.253 37.0031C101.949 37.0031 102.517 37.5696 102.517 38.2648ZM101.878 35.8121C101.679 35.7606 101.472 35.7284 101.253 35.7284C100.099 35.7284 99.1389 36.4945 98.8295 37.5438C98.3976 36.9129 98.0818 36.4623 98.0302 36.2177C97.8368 35.5482 97.7659 34.8916 97.7659 34.3122C97.7659 33.6749 97.8497 33.1277 97.9335 32.7414C98.0173 32.3552 98.0882 32.162 98.0882 32.162C98.1849 31.8852 98.0882 31.5762 97.8433 31.4153C97.5983 31.2543 97.276 31.2736 97.0569 31.4732C97.0117 31.5247 91.0105 36.9258 89.5537 45.874C88.1163 41.4707 85.9891 37.2541 85.9827 37.2219C85.8602 36.9773 85.5895 36.8357 85.3188 36.8743C85.048 36.9129 84.8289 37.1254 84.7773 37.3958C84.7773 37.3958 84.6806 37.9365 84.4292 38.7734C84.1778 39.6038 83.7717 40.7111 83.1787 41.7733C82.0313 43.8591 78.6536 47.522 77.2033 54.539C77.1711 54.7063 77.1388 54.8802 77.113 55.0475C76.7456 54.7965 76.3782 54.539 76.0172 54.2879C75.7401 53.1613 75.5016 52.1571 75.5016 52.1571C75.4435 51.9124 75.2437 51.7258 74.9923 51.6807C74.7474 51.6356 74.4895 51.7451 74.3477 51.9511C74.3477 51.9511 74.2897 52.0283 74.1479 52.2215C74.0512 52.3438 73.9094 52.5176 73.7418 52.7171C73.3937 52.4725 73.0456 52.2343 72.6976 51.9961C73.0521 51.4361 73.3293 50.8824 73.4646 50.3095C73.5484 49.9168 73.5935 49.4984 73.5935 49.0799C73.5935 48.0499 73.3035 46.9362 72.4462 46.1573C71.808 45.6036 70.1836 44.7668 68.527 43.9106C66.8962 43.0801 65.2525 42.2754 65.0011 42.1209C64.6143 41.9149 64.0277 41.3227 63.0931 41.2969C62.6741 41.2969 62.2229 41.4579 61.8361 41.7797L60.0828 43.2089C60.5469 42.2111 61.0884 40.724 61.6492 39.0695C62.3905 36.8421 63.0995 34.3959 63.4347 32.7285C63.6926 31.4475 64.0406 29.4325 64.5176 27.5849C64.9753 25.7373 65.6586 24.025 66.2516 23.5421C67.0445 22.834 68.0758 22.4606 68.7333 22.4735C69.0234 22.4735 69.2232 22.5443 69.3005 22.6087C69.3779 22.6795 69.4101 22.7053 69.4166 22.9048C69.4166 22.937 69.4166 22.9563 69.4166 22.9628C69.3908 23.5164 68.6108 25.5185 67.7986 27.3532C66.9607 29.3038 66.1098 31.1063 65.9422 31.9689C65.91 32.1556 65.8777 32.4388 65.8777 32.7736C65.8777 33.6813 66.1162 35.1491 67.5086 35.9409C69.0943 36.8099 74.2317 38.9987 75.4435 39.3142C75.9721 39.4493 76.7392 39.5652 77.6287 39.5652C78.7052 39.5652 79.9686 39.3914 81.1611 38.812C84.6355 37.1125 87.3492 33.8036 89.3346 30.7844C91.3006 27.7909 92.6156 24.9584 92.9766 24.4885C93.6212 23.6001 94.8717 22.6988 96.0191 22.7181C96.2962 22.7181 96.5734 22.7632 96.8635 22.8726C96.8957 22.8919 96.9215 22.8726 96.9408 23.1108C96.9408 23.2975 96.8635 23.5808 96.741 23.7803C96.7474 23.8962 95.4583 24.7138 95.4454 26.2073C95.4454 26.394 95.4647 26.6 95.5163 26.8124C95.787 27.8424 96.9215 29.2329 98.23 30.8166C99.4805 32.2908 100.86 33.7843 101.691 34.6598C101.756 35.0589 101.82 35.4516 101.885 35.8186L101.878 35.8121ZM65.3363 48.4555C65.2976 48.7902 65.2589 49.1572 65.2009 49.537C65.1622 49.8589 65.1042 50.1872 65.0462 50.5155C62.4872 48.6872 60.1344 47.007 58.0975 45.5586C58.6325 45.1916 59.0579 44.7732 59.3866 44.3483C61.1399 45.5586 63.1446 46.9427 65.3298 48.4555H65.3363ZM64.1115 46.0543C64.1567 45.9963 64.2082 45.932 64.2598 45.8676C64.3823 45.726 64.5112 45.5843 64.6272 45.4813C64.6337 45.5135 64.6466 45.5457 64.653 45.5908C64.711 45.7968 64.8399 46.0993 65.1042 46.3375C65.2912 46.5113 65.4265 46.6208 65.4845 46.6723C65.4845 46.7367 65.4716 46.8525 65.4652 46.9877C65.0075 46.6723 64.5499 46.3568 64.1051 46.0478L64.1115 46.0543ZM54.8036 52.9682C55.6544 55.3179 57.8396 56.9788 59.3931 58.6075C58.8516 58.8071 58.2715 58.9165 57.6334 58.9101C57.4142 58.9101 57.1886 58.8972 56.963 58.8714C54.7133 58.5109 52.67 57.3329 51.168 52.376C50.8586 51.3653 49.7757 48.3396 49.7951 47.4255C49.7951 47.3804 49.7951 47.3482 49.7951 47.3289C49.866 47.1873 49.9369 47.1036 50.1947 46.9942C50.4525 46.8912 50.8973 46.8268 51.5161 46.8268C51.8126 46.8268 52.1543 46.8397 52.5346 46.8718C52.8311 46.8976 53.1147 46.904 53.3855 46.904C54.5393 46.904 55.5449 46.7173 56.4086 46.4083C55.5771 47.3032 54.4813 48.8804 54.4555 50.9854C54.4555 51.6099 54.5586 52.2794 54.8036 52.9682ZM56.009 52.5433C55.8156 51.9897 55.7318 51.4683 55.7318 50.9854C55.7318 49.6979 56.3055 48.5907 56.905 47.7988C57.2079 47.4062 57.5044 47.0907 57.73 46.8847C57.73 46.8847 57.73 46.8847 57.7365 46.8783C58.452 47.3868 59.2062 47.9276 59.9926 48.4877C59.6316 48.9769 59.2706 49.7945 59.29 51.1142C59.348 53.1806 61.1271 54.7836 62.6096 56.0132C62.0553 56.7406 61.3785 57.4616 60.5663 58.0024C58.871 56.1677 56.66 54.4875 56.009 52.5433ZM60.5727 51.1142C60.5727 50.0906 60.8048 49.5627 60.9724 49.2988C60.9917 49.2666 61.011 49.2473 61.0304 49.2215C62.2164 50.0649 63.4605 50.9532 64.7626 51.8803C64.5692 52.6656 64.3372 53.3545 64.0793 53.76C63.8795 54.0948 63.6281 54.5132 63.338 54.9638C61.9328 53.7987 60.5147 52.2794 60.5727 51.1078V51.1142ZM44.548 38.2262C40.6353 38.2262 33.693 36.443 25.0941 30.0827L2.66863 14.9287C2.66863 14.9287 2.58483 14.8772 2.44947 14.7678C2.03692 14.4459 1.26985 13.6541 1.2763 12.5854C1.2763 12.0833 1.42456 11.491 1.90156 10.7572C1.90156 10.7572 3.13274 8.88383 4.44771 6.91393C5.7498 4.95692 7.21303 2.82609 7.49665 2.52996C8.08968 1.89264 8.81808 1.39695 9.64316 1.40339C10.0686 1.40339 10.5456 1.5257 11.1257 1.87333C12.9306 2.96771 35.7686 19.7697 37.8636 21.4886C43.7423 26.2652 46.9588 31.6084 47.8033 34.84C41.6667 30.6621 31.669 23.8705 26.9699 20.7418C26.6669 20.5422 26.3382 20.4328 26.0095 20.4328C25.2102 20.4328 24.6107 21.083 24.6107 21.8233C24.6107 22.2611 24.8363 22.7181 25.2295 23.0143C25.8934 23.5293 38.6178 33.0053 45.631 38.1683C45.2958 38.2005 44.9412 38.2262 44.5416 38.2262H44.548ZM26.0223 22.0036C25.8934 21.9006 25.8999 21.8491 25.8934 21.8169C25.8999 21.7589 25.9321 21.7074 26.0159 21.7074C26.061 21.7074 26.1384 21.7139 26.2673 21.804C32.7519 26.1236 49.4083 37.473 51.9287 39.1983C51.6064 39.6489 51.2583 40.0609 50.8651 40.4021C50.6975 40.2798 50.5621 40.1832 50.4783 40.1253C47.2489 37.8271 26.8152 22.6216 26.0223 22.0036ZM59.2771 61.8456C58.5487 62.4121 57.8847 62.7726 57.7107 62.734H57.6978C56.7954 62.7533 55.5706 61.3113 54.8938 60.616C53.3468 59.1547 51.4259 58.5818 49.7757 58.3114C48.1449 58.0539 46.6623 58.041 46.2498 57.8801C45.8695 57.7256 45.8372 57.5904 45.7986 57.1784C45.7986 56.8307 45.9404 56.3801 46.0564 56.1484C46.2949 55.6462 46.3271 55.1055 46.3336 54.5197C46.3336 53.4961 46.1595 52.3502 46.1273 51.7837C45.979 49.6336 45.2507 47.9984 44.5545 46.8397C44.2064 46.2603 43.8648 45.7968 43.6134 45.4491C43.4845 45.2753 43.3878 45.1337 43.3233 45.0307C43.2911 44.9792 43.2717 44.9406 43.2589 44.9148C43.2331 44.7925 43.2266 44.6895 43.2266 44.5865C43.2331 44.2131 43.3491 44.0071 43.6005 43.7689C44.3547 43.0286 46.7397 42.8097 48.5188 42.7261C51.0971 42.5458 52.7409 40.5695 53.7593 38.6446C54.7842 36.7069 55.2677 34.6855 55.4288 34.1319C56.2152 31.3895 56.7889 28.7952 57.0854 26.0979C57.2337 24.9262 57.6205 24.4563 58.1297 24.1215C58.6518 23.7868 59.3995 23.6516 60.1795 23.5035C61.4429 23.2524 63.3445 22.3963 65.1364 21.5658C66.8898 20.7418 68.6173 19.9242 68.9589 19.8599C69.2619 19.7955 69.5261 19.7633 69.7582 19.7633C70.5768 19.7762 71.0023 20.0723 71.3375 20.5101C71.6598 20.9542 71.8145 21.5916 71.8145 22.1388C71.8145 22.3705 71.7887 22.5829 71.7436 22.7503C71.447 24.0443 69.1265 27.5141 69.1007 30.5398C69.1007 30.7393 69.1136 30.9389 69.1329 31.1385C69.3199 33.192 70.8411 34.3765 72.5429 34.3315C73.9932 34.3315 75.5854 33.6491 77.0357 32.4453C78.7374 31.0097 80.5294 27.9519 82.6179 25.055C84.6742 22.1645 87.014 19.5315 89.2508 19.0037C89.8051 18.862 90.4368 18.7977 91.1072 18.7977C92.6736 18.7977 94.4462 19.1453 95.9095 19.5895C97.3663 20.0208 98.5717 20.6066 98.8488 20.8641C99.2098 21.186 99.3065 21.4757 99.3129 21.8748C99.3129 22.2224 99.2034 22.6409 99.0293 23.0658C98.8746 23.5936 97.9335 24.3726 97.869 25.57C97.8562 26.0592 98.114 26.5678 98.5459 26.9347C98.894 27.2309 99.3194 27.321 99.7061 27.321C100.325 27.3081 100.95 27.115 101.505 26.8768C101.356 27.8939 101.285 28.9304 101.285 29.9604C101.285 30.8166 101.331 31.6663 101.401 32.4839C100.705 31.7243 99.9124 30.8423 99.1711 29.9668C97.8948 28.4926 96.7732 26.8961 96.7281 26.5099C96.7023 26.3875 96.6894 26.291 96.6894 26.188C96.683 25.4477 97.3276 25.0614 97.7981 24.4241C98.0366 24.025 98.1849 23.5679 98.1849 23.0915C98.2042 22.5829 97.9464 21.9006 97.2825 21.6559C96.8506 21.495 96.4123 21.4242 95.9933 21.4242C94.2206 21.4435 92.7574 22.5958 91.9194 23.7095C91.3586 24.4885 90.179 27.1085 88.2388 30.0634C86.3179 32.9989 83.6879 36.1276 80.5745 37.6404C79.6141 38.1103 78.5376 38.2648 77.5965 38.2648C76.823 38.2648 76.1397 38.1554 75.7207 38.0524C74.8312 37.8464 69.4681 35.5739 68.1016 34.8079C67.3216 34.3894 67.1282 33.4946 67.1282 32.7607C67.1282 32.5097 67.154 32.2843 67.1734 32.1685C67.2314 31.7371 68.1016 29.7479 68.9396 27.8489C69.7775 25.879 70.6091 24.0185 70.6671 22.9306V22.8791C70.68 22.3576 70.4286 21.8491 70.0354 21.5658C69.6422 21.2761 69.1781 21.1796 68.7011 21.1796C67.631 21.186 66.3999 21.6753 65.3749 22.5701C64.3371 23.5293 63.7635 25.3189 63.2478 27.2502C62.7514 29.175 62.4034 31.2093 62.152 32.4582C61.8361 34.0354 61.1335 36.4688 60.4051 38.6511C59.6896 40.8205 58.8968 42.8226 58.5358 43.3441C57.8525 44.3805 56.1637 45.6101 53.3726 45.6101C53.1276 45.6101 52.8762 45.5972 52.6184 45.5779C52.2123 45.5457 51.8449 45.5328 51.5032 45.5328C50.8006 45.5328 50.2205 45.5972 49.7242 45.7839C49.2278 45.9641 48.8024 46.3311 48.6026 46.8203C48.5123 47.0328 48.5059 47.2195 48.4994 47.4062C48.5252 48.8546 49.6468 51.7386 49.924 52.7171C51.4194 57.938 54.0558 59.7598 56.7825 60.1203C57.079 60.1525 57.3497 60.1718 57.6205 60.1718C62.094 60.1332 64.2211 55.9037 65.1622 54.4167C65.8713 53.2386 66.2194 51.3588 66.4643 49.6979C66.6899 48.0499 66.7673 46.6594 66.7673 46.6465V46.6015V46.55C66.7608 46.3118 66.6255 45.9899 66.4579 45.829C66.2967 45.6616 66.1742 45.5715 65.9744 45.3912C65.9035 45.3204 65.9035 45.314 65.852 45.1015C65.8133 44.9213 65.6844 44.4513 65.2525 44.2003C65.1042 44.1101 64.9173 44.0651 64.7626 44.0651C64.3436 44.0779 64.0986 44.2646 63.873 44.4384C63.5572 44.7024 63.2671 45.0371 63.048 45.314C62.3776 44.8569 61.733 44.4063 61.1142 43.9814L62.6225 42.7518C62.8288 42.5844 62.9448 42.5651 63.0673 42.5587C63.3316 42.5329 63.8021 42.8612 64.3178 43.196C64.7175 43.4342 66.2774 44.1874 67.9211 45.0243C69.5326 45.8418 71.2601 46.7817 71.5695 47.0843C72.0594 47.522 72.2915 48.2495 72.2915 49.0542C72.2915 49.376 72.2528 49.7044 72.1883 50.0134C72.0272 50.9211 70.7702 52.3953 69.4037 54.3008C67.5472 56.9724 63.4798 59.3478 61.907 60.0881C60.895 60.571 60.0184 61.2727 59.2642 61.8263L59.2771 61.8456ZM47.7581 91.2459C48.4543 91.2459 49.0215 91.8124 49.0215 92.5077C49.0215 93.2029 48.4543 93.7694 47.7581 93.7694C47.062 93.7694 46.4947 93.2029 46.4947 92.5077C46.4947 91.8124 47.062 91.2459 47.7581 91.2459ZM34.2023 80.8493C33.693 78.7764 32.5972 76.0018 30.1155 73.2658C26.9699 69.7831 23.2248 68.9269 21.0074 68.7595C21.6198 68.4763 22.4706 68.2381 23.6245 68.2381C23.6825 68.2381 23.734 68.2381 23.7727 68.2381C25.4358 68.2703 27.0279 68.5278 28.2075 68.7724C29.3871 69.0235 30.1284 69.2552 30.1349 69.2552C30.3927 69.3389 30.6828 69.2488 30.8439 69.0235C31.0051 68.8046 31.0115 68.5085 30.8568 68.2832C30.8053 68.251 28.8263 65.206 26.6154 64.3112C24.398 63.5065 22.7607 63.8992 21.4006 62.631C20.9687 62.2447 20.7689 61.749 20.6851 61.2727C21.2137 61.7362 21.9356 62.2383 22.8445 62.5859C25.3455 63.5065 30.2187 63.9121 33.5319 66.2489C36.8193 68.5407 38.9078 71.6049 39.4106 73.8967C39.836 75.8087 40.4678 77.0318 40.9899 77.7721C40.7643 77.9588 40.5451 78.1455 40.3002 78.3322C38.6178 79.6519 37.2512 81.9179 36.2779 83.8749C35.4141 82.9801 34.3828 81.7119 34.1958 80.8428L34.2023 80.8493ZM31.0889 112.149C29.3162 112.631 26.3189 114.466 23.6438 116.204C20.9816 117.942 18.7255 119.565 18.7191 119.571C17.7715 120.35 10.0428 125.442 8.78585 125.996C8.47644 126.137 8.17348 126.195 7.88341 126.195C7.29038 126.195 6.71669 125.931 6.29126 125.519C5.86583 125.107 5.61443 124.554 5.62088 124.026C5.62088 123.562 5.79492 123.093 6.29126 122.616C8.77295 120.273 13.298 117.37 16.0118 115.065C17.0109 114.215 19.3766 112.393 21.71 110.443C24.0499 108.473 26.3511 106.413 27.3631 104.842C28.1302 103.638 28.3558 102.544 28.6394 101.559C28.9295 100.567 29.2518 99.6727 30.2058 98.5783C30.5023 98.25 30.7924 98.1341 31.2242 98.1212C31.6561 98.1212 32.2298 98.3015 32.8615 98.6555C32.8809 99.0354 32.9002 99.4087 32.9324 99.7628C32.3716 99.3508 31.8044 99.0611 31.1662 99.0482C30.8826 99.0482 30.5861 99.119 30.3283 99.2735C29.7094 99.6276 29.4516 100.323 29.4709 100.96C29.5032 102.557 30.6119 104.63 32.0042 106.554C32.0171 106.58 32.0364 106.606 32.0558 106.632C32.0816 106.664 32.0944 106.696 32.1267 106.722C32.3394 107.018 32.565 107.301 32.7906 107.584C32.2491 108.048 31.8946 108.73 31.8946 109.503C31.8946 110.468 32.4425 111.299 33.2354 111.724C32.5779 111.801 31.8688 111.923 31.0953 112.129L31.0889 112.149ZM31.6561 100.484C31.2823 100.786 30.9986 101.192 30.8504 101.662C30.7859 101.404 30.7472 101.166 30.7601 100.973C30.773 100.574 30.8504 100.477 30.9922 100.387C31.0502 100.355 31.0953 100.342 31.1791 100.342C31.2823 100.336 31.4563 100.387 31.6626 100.484H31.6561ZM32.3523 104.81C32.5843 104.9 32.8357 104.951 33.0936 104.964C32.9389 105.093 32.8035 105.209 32.6875 105.312C32.5714 105.145 32.4619 104.977 32.3587 104.803L32.3523 104.81ZM36.974 109.606C37.1803 109.709 37.3866 109.818 37.5993 109.921C37.5993 109.986 37.5864 110.037 37.5735 110.069C37.4962 110.082 37.2577 110.011 36.9547 109.838C36.9676 109.76 36.974 109.683 36.9805 109.606H36.974ZM36.4777 111.029C36.8322 111.215 37.1803 111.338 37.5735 111.344C37.7476 111.344 37.928 111.318 38.1021 111.241C38.4631 111.08 38.6693 110.797 38.7789 110.481C39.0432 110.604 39.3139 110.72 39.5847 110.835C39.5395 110.874 39.4944 110.913 39.4493 110.945C38.4179 111.563 37.4575 111.614 36.1296 111.627C36.0458 111.627 35.9556 111.627 35.8653 111.627C36.1038 111.466 36.3101 111.26 36.4841 111.022L36.4777 111.029ZM34.4408 108.26C35.1369 108.26 35.7042 108.827 35.7042 109.522C35.7042 110.217 35.1369 110.784 34.4408 110.784C33.7446 110.784 33.1774 110.217 33.1774 109.522C33.1774 108.827 33.7446 108.26 34.4408 108.26ZM33.2612 103.709C32.565 103.709 31.9978 103.143 31.9978 102.447C31.9978 101.752 32.565 101.185 33.2612 101.185C33.9573 101.185 34.5246 101.752 34.5246 102.447C34.5246 103.143 33.9573 103.709 33.2612 103.709ZM35.672 101.681C35.4463 100.973 34.9307 100.4 34.2538 100.11C34.1765 99.3315 34.1249 98.4817 34.1249 97.5612C34.1249 94.7994 34.5697 91.4584 35.9878 87.7761C36.4519 86.5272 38.5726 81.2677 41.0995 79.3493C41.5313 79.0146 41.9245 78.6862 42.3113 78.3579C43.3942 77.4374 44.2902 76.5554 45.0122 75.77C43.6521 79.6197 41.4218 85.9478 40.4935 88.7739C39.604 91.4712 37.219 97.6835 35.672 101.681ZM39.9521 100.883C38.7918 101.327 37.7153 101.855 36.7613 102.409C38.3084 98.4302 40.7772 91.9927 41.7118 89.173C42.6143 86.4306 44.7737 80.3085 46.1402 76.4395C46.1531 77.4824 46.1918 78.4996 46.282 79.1819C46.4109 80.0832 46.6688 82.4458 46.6688 85.1109C46.6688 86.9006 46.5463 88.819 46.2047 90.5249C45.6116 90.9884 45.2249 91.703 45.2249 92.5141C45.2249 92.7845 45.2764 93.042 45.3538 93.2866C44.0775 96.3895 41.9761 98.9517 39.9521 100.883ZM45.2571 98.4495C45.1217 98.6233 45.0831 98.8551 45.1604 99.0611C45.2378 99.2671 45.4183 99.4216 45.631 99.4667C45.631 99.4667 46.3851 99.6212 47.4036 99.8594C47.1135 99.8272 46.8235 99.8014 46.5205 99.7757C46.2304 99.7564 45.9404 99.7499 45.6503 99.7499C44.548 99.7499 43.4845 99.9044 42.4596 100.13C43.8648 98.5525 45.2055 96.6728 46.2047 94.5162C46.6365 94.8509 47.1715 95.0569 47.7581 95.0569C48.3447 95.0569 48.912 94.8381 49.3438 94.4904C49.3632 94.6192 49.3825 94.7351 49.4019 94.8316C46.7074 96.5762 45.2764 98.4302 45.2507 98.456L45.2571 98.4495ZM50.5041 93.5634C50.3881 92.675 50.2721 91.4069 50.2721 89.8876C50.2721 86.7847 50.7555 82.6518 52.7022 78.5832C54.9647 73.8452 57.9621 70.9483 60.3858 69.223C61.2495 68.6115 62.0295 68.1544 62.6805 67.8132C61.9457 68.9848 60.9852 70.5556 60.3278 71.7594C59.1224 73.9675 57.6398 77.3279 56.4924 80.6561C55.8156 82.6196 54.1912 86.1152 52.7344 89.0893C51.8384 90.9305 51.0069 92.5785 50.5041 93.5634ZM52.0254 93.3896C53.5531 90.3704 56.6407 84.1582 57.7043 81.0681C58.8258 77.8107 60.2955 74.489 61.4494 72.3646C61.9457 71.4569 62.629 70.3174 63.2542 69.3067C63.2413 69.5449 63.2284 69.7895 63.2284 70.0406C63.2284 70.7294 63.2929 71.4697 63.4605 72.2036C63.6023 72.8023 64.0406 74.5147 64.0406 76.8322C64.0406 77.8751 63.9439 79.0467 63.6926 80.2763C63.641 80.4373 63.6088 80.6046 63.5894 80.7849C63.2542 82.1818 62.7128 83.6496 61.8619 85.1174C60.3342 87.7632 57.3239 90.1451 54.694 91.8253C53.7142 92.4497 52.7989 92.9776 52.0254 93.3961V93.3896ZM60.3213 91.8124C60.0506 91.7995 59.7799 91.7931 59.5156 91.7931C58.5229 91.7931 57.5882 91.8768 56.6922 92.0184C57.5689 91.4069 58.452 90.7309 59.2964 89.9906C59.4253 90.7953 59.9217 91.4648 60.6178 91.8317C60.5147 91.8317 60.4245 91.8124 60.3213 91.8124ZM61.8039 90.8597C61.1077 90.8597 60.5405 90.2931 60.5405 89.5979C60.5405 88.9026 61.1077 88.3361 61.8039 88.3361C62.5 88.3361 63.0673 88.9026 63.0673 89.5979C63.0673 90.2931 62.5 90.8597 61.8039 90.8597ZM62.8675 87.2997C62.6161 87.1838 62.3453 87.113 62.0617 87.0873C62.3905 86.6559 62.6934 86.2117 62.9642 85.7611C63.5314 84.7826 63.9633 83.8041 64.3049 82.8385C64.7626 83.302 65.4007 83.5852 66.1033 83.5852C66.9671 83.5852 67.7213 83.1539 68.1789 82.5037C68.2563 82.6132 68.3208 82.6968 68.3788 82.7677C65.4459 84.3127 63.6281 86.3276 62.8675 87.2997ZM88.1808 90.9434C85.9118 92.5463 82.5857 93.9433 78.428 94.072C78.3507 94.072 78.2733 94.072 78.196 94.072C74.496 94.0978 69.9194 91.3489 68.3788 90.2545C67.4312 89.5979 66.026 88.8962 64.9237 88.3812C65.2331 88.3104 65.5877 88.2331 65.9744 88.1559C67.6053 87.834 69.8098 87.5121 72.1174 87.5121C72.2528 87.5121 72.3882 87.5121 72.5235 87.5121C78.2153 87.6087 82.8371 88.9348 85.7506 89.4691C86.9431 89.688 88.5353 89.894 90.0114 90.0614C89.3604 90.2867 88.7287 90.57 88.1872 90.9434H88.1808ZM91.5004 88.9413C89.7471 88.7546 87.491 88.4906 85.9762 88.2138C83.1723 87.7053 78.4087 86.3405 72.5493 86.2375C72.401 86.2375 72.2592 86.2375 72.111 86.2375C69.1587 86.2375 66.4192 86.7332 64.711 87.1259C66.4256 85.304 70.0289 82.375 75.6563 82.0466C75.9141 82.0273 76.1719 82.0209 76.4298 82.0209C81.8831 82.008 86.6595 85.4392 88.0454 86.5851C88.8254 87.2224 90.2435 88.1559 91.5004 88.9477V88.9413ZM105.069 81.7312C103.058 84.3255 100.048 86.3791 95.2391 86.4177H95.1488C89.8567 86.4242 85.8602 83.7204 83.8168 81.9436C84.0747 81.9179 84.3261 81.8793 84.5839 81.8406C86.6982 82.0595 89.6891 82.3106 92.4029 82.3106C93.8919 82.3106 95.2907 82.2333 96.4445 82.0338C102.433 80.9394 106.313 77.0318 108.286 74.4568C107.822 76.5425 106.893 79.3686 105.076 81.7312H105.069ZM117.929 83.302C116.285 82.169 115.112 81.3578 114.564 80.978C113.836 80.4694 111.799 79.0532 108.898 77.0447C109.884 74.0705 110.007 71.6436 110.013 71.6049C110.026 71.3281 109.865 71.0771 109.607 70.9805C109.356 70.8775 109.059 70.9547 108.885 71.1607C108.885 71.1607 108.827 71.2316 108.679 71.3732C108.241 71.7981 107.125 72.7444 105.456 73.2208C104.844 73.401 104.418 73.4718 103.786 73.504C102.845 72.8538 101.866 72.1714 100.847 71.4697C101.04 71.3796 101.234 71.2959 101.414 71.2316C102.285 70.8904 102.897 70.7616 102.897 70.7552C103.168 70.6972 103.367 70.4655 103.393 70.1887C103.419 69.9119 103.264 69.6544 103.006 69.5449C103 69.5449 102.82 69.4677 102.51 69.3518C106.997 68.5471 110.948 65.9785 112.282 64.7682C113.133 63.9764 114.738 63.0752 116.105 62.4185C117.478 61.7555 118.606 61.3113 118.612 61.3048C118.883 61.1954 119.05 60.925 119.012 60.6353C118.98 60.365 118.773 60.1525 118.509 60.0946C118.522 60.0946 118.535 60.0946 118.548 60.0946C118.702 60.0946 118.864 60.0946 119.018 60.0881C125.239 59.953 128.268 57.8929 129.751 56.599C131.433 58.5045 133.747 59.9208 136.339 60.2813C136.719 60.3328 137.106 60.3585 137.486 60.3585C139.549 60.3585 141.624 59.689 143.287 59.0388C144.119 58.7169 144.847 58.3951 145.402 58.1569C145.537 58.0989 145.653 58.0474 145.769 58.0024C145.576 58.7427 145.099 60.0366 144.583 61.2405C143.893 62.882 143.133 64.5043 142.875 65.0386C142.668 65.3927 142.623 65.3605 142.398 65.3927C142.108 65.4056 141.605 65.1931 141.141 65.0129C139.175 64.3047 134.566 63.1009 134.553 63.0945C132.587 62.5666 129.396 62.1675 126.347 62.1675C124.239 62.1675 122.215 62.3542 120.694 62.8756C116.124 64.4464 114.184 68.4634 114.197 72.0813C114.197 74.3151 114.906 76.446 116.24 77.8815C119.192 81.036 123.382 81.6025 126.328 81.6025C127.959 81.6025 129.261 81.4222 129.719 81.3965C129.744 81.3965 129.751 81.3965 129.764 81.3965C129.764 81.3965 129.764 81.4286 129.764 81.4544C129.764 81.6282 129.693 81.9243 129.615 82.1561C129.532 82.3878 129.454 82.5488 129.454 82.5488C129.177 83.0895 128.636 83.7655 128.23 83.7075C128.152 83.7075 128.068 83.6947 127.972 83.6625C126.837 83.302 124.478 83.2698 122.396 83.2633C120.81 83.2633 119.431 83.302 119.205 83.302C118.767 83.302 118.348 83.3084 117.929 83.3148V83.302ZM126.773 89.3726C125.206 88.2975 123.737 87.2933 122.396 86.3727C123.511 86.2568 124.716 86.1152 125.67 86.1216C125.748 86.1216 125.819 86.1216 125.896 86.1216C126.753 86.1409 127.482 86.4177 127.997 86.701C128.255 86.8426 128.455 86.9778 128.591 87.0808C128.726 87.1838 128.777 87.2353 128.777 87.2353L128.803 87.2611L128.835 87.2804C129.132 87.4993 129.467 87.5765 129.77 87.5765H129.783C129.783 87.5765 129.835 87.5765 129.86 87.5701C128.932 87.9499 127.888 88.5421 126.779 89.3726H126.773ZM139.02 57.9444C141.534 57.9444 143.603 57.0947 145.163 56.1934C146.704 55.305 147.845 54.3201 148.244 54.1527C148.418 54.069 148.65 54.0111 148.857 54.0111C149.082 54.0111 149.243 54.0755 149.334 54.1527C149.417 54.23 149.508 54.3458 149.514 54.6999C149.514 54.7707 149.514 54.848 149.501 54.9381C149.469 55.3115 148.592 58.8457 147.31 62.1031C146.671 63.7447 145.917 65.3476 145.131 66.4935C144.351 67.6651 143.539 68.2638 143.036 68.2316C142.901 68.2316 142.772 68.2059 142.63 68.1415C140.554 67.2016 134.115 64.7296 128.23 64.7232C125.87 64.7232 123.576 65.1223 121.706 66.2553C119.837 67.4076 118.561 69.8346 118.548 72.4354C118.548 74.2315 119.192 76.1241 120.752 77.6369C122.048 78.8601 124.484 79.5167 126.953 79.536C128.049 79.536 129.151 79.3944 130.157 79.0661C133.47 77.9652 134.166 77.5532 135.049 77.5725C135.101 77.5725 135.146 77.5725 135.191 77.5725C135.423 77.5725 135.778 77.8944 135.771 78.3386C135.771 78.4996 135.733 78.6734 135.617 78.8601C135.256 79.4652 134.276 80.3536 132.104 82.6389C131.169 83.6045 130.911 84.4221 130.859 85.0208C130.801 85.6131 130.859 85.6967 130.647 85.9607C130.595 85.9993 130.505 86.0572 130.382 86.1216C130.189 86.2246 129.938 86.3083 129.783 86.3083C129.699 86.3083 129.654 86.2954 129.615 86.2697C129.364 86.0508 127.991 84.9178 125.941 84.8599C125.857 84.8599 125.774 84.8599 125.683 84.8599C124.091 84.8599 122.074 85.1817 120.759 85.259C120.411 85.0208 120.082 84.7955 119.76 84.5702C120.353 84.5573 121.313 84.538 122.402 84.538C124.407 84.5251 126.889 84.6281 127.572 84.8727C127.798 84.95 128.017 84.9822 128.236 84.9822C129.648 84.9242 130.26 83.6882 130.595 83.1346C130.621 83.0573 131.034 82.2913 131.053 81.448C131.053 81.1776 131.008 80.8557 130.776 80.5596C130.544 80.257 130.138 80.1025 129.764 80.1154C129.719 80.1154 129.667 80.1154 129.615 80.1154C129.08 80.154 127.888 80.3214 126.334 80.3214C123.53 80.3214 119.734 79.7613 117.181 77.006C116.13 75.8859 115.479 74.0448 115.486 72.0749C115.499 68.8754 117.123 65.4635 121.126 64.0794C122.402 63.6352 124.336 63.4357 126.36 63.4357C129.287 63.4357 132.439 63.8348 134.237 64.3176C134.25 64.3176 138.878 65.5343 140.715 66.2038C141.096 66.3326 141.682 66.648 142.411 66.6609C142.997 66.6866 143.713 66.3133 144.035 65.5923C144.306 65.0322 145.073 63.4035 145.775 61.7297C146.478 60.0238 147.129 58.4273 147.155 57.4681C147.142 57.2556 147.161 56.9016 146.71 56.6183C146.549 56.541 146.426 56.5282 146.33 56.5282C145.853 56.5539 145.518 56.7406 144.918 56.9788C143.216 57.7062 140.18 59.0839 137.499 59.0774C137.164 59.0774 136.841 59.0581 136.525 59.0131C134.282 58.7041 132.213 57.4552 130.711 55.7428C130.879 55.6012 131.053 55.466 131.227 55.3308C134.121 57.2363 136.745 57.9509 139.027 57.9509L139.02 57.9444ZM130.827 50.7344C131.478 51.0627 132.336 51.4361 133.154 51.7708C131.414 51.9318 129.242 52.1249 128.146 52.215C127.765 52.2472 127.301 52.2601 126.766 52.2601C125.58 52.2601 124.04 52.2021 122.222 52.2021C120.862 52.2021 119.347 52.2343 117.684 52.3438C114.396 52.5691 109.846 53.3223 107.203 53.7922C109.575 51.6807 114.358 48.0757 118.644 47.9147C118.818 47.9083 118.992 47.9019 119.173 47.9019C123.369 47.8825 129.441 50.0069 130.834 50.7279L130.827 50.7344ZM125.155 47.4898C126.309 46.6658 127.385 45.8998 128.378 45.1916C128.152 46.1959 127.823 47.1873 127.546 48.1529C126.799 47.9212 125.993 47.6958 125.155 47.4898ZM131.259 44.7989C131.014 45.6745 130.17 47.2066 129.583 48.8417C129.325 48.7452 129.055 48.6486 128.765 48.552C129.132 47.2517 129.661 45.7581 129.854 44.1423C130.589 43.6209 131.253 43.1445 131.846 42.7196C131.652 43.5179 131.42 44.2324 131.259 44.7989ZM134.198 39.4751C133.412 40.0352 129.287 42.9771 123.479 47.1229C122.615 46.9555 121.751 46.8139 120.9 46.7302C127.424 42.2239 132.046 39.0309 132.523 38.7026C133.999 37.6919 151.68 25.6343 158.41 21.1538C158.532 21.0701 158.609 21.0572 158.654 21.0572C158.745 21.0572 158.777 21.1152 158.777 21.1731C158.777 21.2053 158.777 21.2504 158.654 21.3598C157.862 21.9778 137.428 37.1833 134.205 39.4751H134.198ZM182.034 14.1691C181.86 14.3751 181.679 14.536 181.544 14.6454C181.415 14.7484 181.351 14.7871 181.351 14.7871L158.912 29.9411C150.294 36.3142 143.352 38.1039 139.439 38.0975C139.033 38.0975 138.666 38.0717 138.33 38.0395C145.15 33.0182 158.751 22.8919 159.441 22.3641C159.841 22.0615 160.06 21.6044 160.06 21.1731C160.06 20.4328 159.46 19.7826 158.654 19.7826C158.332 19.7826 157.997 19.892 157.7 20.0916C152.834 23.3361 142.262 30.514 136.21 34.6405C137.08 31.4024 140.296 26.1043 146.13 21.3598C148.231 19.641 171.063 2.83896 172.868 1.74458C173.435 1.39695 173.919 1.28107 174.344 1.27464C175.169 1.27464 175.904 1.75745 176.49 2.40121C176.774 2.69734 178.237 4.82817 179.539 6.77875C180.861 8.75508 182.086 10.622 182.086 10.622C182.563 11.3558 182.717 11.9545 182.717 12.4502C182.717 13.1712 182.388 13.7377 182.034 14.1562V14.1691Z" fill="white"/>
<path d="M69.8616 98.8354L70.3063 97.6123C68.4305 97.3226 66.0907 97.0136 63.7314 96.8076C64.0602 97.181 64.2665 97.6509 64.3245 98.1466C66.3034 98.3333 68.2436 98.5908 69.8616 98.8419V98.8354Z" fill="white"/>
<path d="M68.3787 102.93C67.2056 103.29 65.8519 103.586 64.3564 103.741V105.022C65.6263 104.9 66.793 104.681 67.8502 104.404L68.3852 102.93H68.3787Z" fill="white"/>
<path d="M72.6331 98.4238L61.5654 129.022H69.6358L72.0014 122.462H81.6833L84.0489 129.022H92.1193L81.0516 98.4238H72.6331ZM74.2124 116.34L76.8424 109.046L79.4723 116.34H74.2124Z" fill="white"/>
<path d="M130.364 98.4238L119.296 129.022H127.366L129.732 122.462H139.414L141.779 129.022H149.85L138.782 98.4238H130.364ZM131.943 116.34L134.573 109.046L137.203 116.34H131.936H131.943Z" fill="white"/>
<path d="M114.687 115.458C116.685 113.662 117.935 111.144 117.929 108.402C117.929 105.66 116.685 103.143 114.687 101.346C112.701 99.544 109.904 98.4238 106.861 98.4238H93.2795V129.022H101.769V118.38H106.333L110.226 129.17H118.296L113.636 116.282C114.01 116.024 114.364 115.754 114.693 115.451L114.687 115.458ZM101.762 106.072H106.861C107.59 106.072 108.208 106.329 108.685 106.754C109.162 107.185 109.44 107.745 109.44 108.402C109.44 109.059 109.156 109.612 108.685 110.05C108.202 110.475 107.583 110.732 106.861 110.732H101.762V106.078V106.072Z" fill="white"/>
<path d="M61.8874 98.4238H53.398V117.736C53.398 118.895 52.863 119.932 51.9026 120.749C50.9357 121.56 49.582 122.095 48.0221 122.095C46.4622 122.095 45.1021 121.56 44.1416 120.749C43.1812 119.925 42.6462 118.895 42.6397 117.736V115.85H34.1504V117.736C34.1504 121.071 35.7683 124.097 38.2887 126.215C40.8091 128.346 44.2641 129.633 48.0157 129.633C51.7737 129.633 55.3447 128.661 57.8651 126.537C60.3855 124.419 61.8874 121.071 61.8874 117.736V98.4238Z" fill="white"/>
</g>
<defs>
<clipPath id="clip0_408_113">
<rect width="184" height="130" fill="white"/>
</clipPath>
</defs>
</svg>
