<svg width="348" height="215" viewBox="0 0 348 215" fill="none" xmlns="http://www.w3.org/2000/svg">
<g clip-path="url(#clip0_408_123)">
<path d="M166.61 197.809H155.153L145.84 142.757H145.602L136.411 197.809H124.954L112.299 112.972H125.192L131.279 166.828H131.517L141.068 112.972H150.38L160.286 168.139H160.524L166.372 112.972H179.265L166.61 197.809Z" fill="#11366E"/>
<path d="M18.6576 112.971H38.2295C52.6751 112.971 59.7143 121.432 59.7143 137.871C59.7143 147.643 56.9707 154.792 49.2102 159.08L62.3419 197.802H49.4485L38.1072 161.581H30.8232V197.802H18.6511V112.965L18.6576 112.971ZM30.8297 150.864H37.753C46.2284 150.864 47.5422 146.1 47.5422 137.639C47.5422 129.179 46.1124 124.415 37.1605 124.415H30.8361V150.864H30.8297Z" fill="#11366E"/>
<path d="M38.1071 161.588H37.6756C30.1083 184.089 32.2915 205.575 45.185 212.075C64.7054 221.905 89.0496 206.064 106.2 177.782C123.351 149.507 122.211 117.992 106.96 108.497C94.6849 100.852 76.665 107.442 61.1826 123.187C62.3032 126.209 63.5269 130.735 63.4946 136.064C76.2399 120.564 91.439 112.958 100.874 118.854C111.584 125.553 111.043 149.912 97.3125 172.556C83.569 195.205 65.1369 208.532 51.329 201.763C45.3266 198.818 43.0017 190.615 43.9677 180.283L38.1071 161.588Z" fill="#2483BE"/>
<path d="M185.145 112.972H197.317V197.809H185.145V112.972Z" fill="#11366E"/>
<path d="M205.838 112.972H217.533L235.914 164.089H236.152V112.972H248.324V197.809H236.867L218.248 146.814H218.01V197.809H205.838V112.972Z" fill="#11366E"/>
<path d="M255.775 132.991C255.775 119.169 266.279 112.258 276.185 112.258C286.09 112.258 296.594 119.169 296.594 132.991V137.28H284.422V132.991C284.422 127.154 280.603 124.415 276.185 124.415C271.767 124.415 267.947 127.154 267.947 132.991V177.795C267.947 183.633 271.767 186.372 276.185 186.372C280.603 186.372 284.422 183.633 284.422 177.795V161.826H274.755V151.102H296.6V177.795C296.6 191.618 286.096 198.529 276.191 198.529C266.286 198.529 255.782 191.618 255.782 177.795V132.991H255.775Z" fill="#11366E"/>
<path d="M309.41 112.258L330.528 123.438C332.659 124.531 333.877 124.531 336.247 124.531C338.436 124.531 341.051 124.531 341.051 121.496C341.051 119.677 339.956 118.462 337.947 118.462H334.418V112.264H337.824C342.996 112.264 347.259 116.398 347.259 121.561C347.259 128.003 342.146 130.735 336.369 130.735C332.17 130.735 331.075 130.613 327.365 128.671L309.777 119.561V130.741H303.569V112.271H309.41V112.258Z" fill="#11366E"/>
<path d="M337.947 134.855C343.73 134.855 347.259 139.169 347.259 144.088C347.259 149.006 343.73 153.32 337.947 153.32H312.508C306.724 153.32 303.195 149.006 303.195 144.088C303.195 139.169 306.724 134.855 312.508 134.855H337.947ZM312.508 141.053C310.743 141.053 309.403 142.326 309.403 144.088C309.403 145.849 310.743 147.122 312.508 147.122H337.947C339.711 147.122 341.051 145.849 341.051 144.088C341.051 142.326 339.711 141.053 337.947 141.053H312.508Z" fill="#11366E"/>
<path d="M309.41 157.454L330.528 168.634C332.659 169.727 333.877 169.727 336.247 169.727C338.436 169.727 341.051 169.727 341.051 166.693C341.051 164.873 339.956 163.658 337.947 163.658H334.418V157.461H337.824C342.996 157.461 347.259 161.594 347.259 166.757C347.259 173.199 342.146 175.931 336.369 175.931C332.17 175.931 331.075 175.809 327.365 173.867L309.777 164.757V175.938H303.569V157.467H309.41V157.454Z" fill="#11366E"/>
<path d="M328.641 187.407C328.641 191.11 329.188 192.325 332.415 192.325H338.011C339.776 192.325 341.051 191.174 341.051 189.29C341.051 187.104 339.287 186.256 338.011 186.256H334.482V180.058H338.069C343.183 180.058 347.26 184.308 347.26 189.412C347.26 192.756 345.553 195.064 344.22 196.156C342.275 197.796 340.568 198.522 335.029 198.522C329.066 198.522 328.093 198.22 325.962 194.697C323.585 198.522 322.188 198.522 316.044 198.522C310.325 198.522 309.043 198.156 307.156 196.883C304.902 195.366 303.202 192.993 303.202 189.226C303.202 185.459 305.636 180.052 312.45 180.052H315.979V186.249H312.753C310.808 186.249 309.404 187.407 309.404 189.284C309.404 191.161 310.743 192.318 312.875 192.318H319.083C322.432 192.318 323.16 191.405 323.16 187.4H328.634L328.641 187.407Z" fill="#11366E"/>
<path d="M11.2962 29.3745C11.2962 29.9274 9.80209 31.1875 9.17094 31.3418C8.38523 31.5283 5.90573 28.3523 5.90573 27.3687C5.90573 26.2307 8.03102 21.3961 8.97774 20.496C13.0351 16.7286 16.062 13.842 20.2353 10.0038C20.5895 9.68239 22.7148 7.48365 23.1463 7.37436C23.8161 7.21363 25.7031 8.17156 25.7031 8.76303C25.7031 9.11663 23.8934 11.6368 23.4619 12.7619C22.322 15.79 20.0743 26.5072 17.8331 35.1478C18.3419 34.9871 18.7798 34.8392 19.134 34.7556C20.0035 34.5499 22.1674 34.8135 22.1674 35.5207C22.1674 36.1893 21.182 38.1566 20.5895 38.298C19.9584 38.4523 18.3032 37.6294 17.7558 37.7644C17.5562 37.8094 17.363 37.8609 17.086 37.9637C16.178 41.249 15.2763 43.9813 14.4906 45.5436C13.3507 47.7809 9.9631 50.2496 7.91509 50.7382C5.67388 51.2783 0 49.4589 0 47.9609C0 46.5851 1.61651 43.602 2.83372 42.7212C4.99765 41.1397 9.17094 38.9152 12.8741 37.2373C14.8835 29.246 17.202 18.3487 18.1873 15.9507C18.7412 14.6392 19.5655 13.3019 19.5655 13.3019C17.4016 15.475 13.5825 19.6153 11.103 22.6883C10.7102 23.1769 10.3173 24.6878 10.3173 25.4721C10.3173 26.3786 11.3027 28.8152 11.3027 29.3617L11.2962 29.3745ZM12.1206 40.1046C9.52516 41.3583 6.80737 42.837 5.46779 43.9813C4.91393 44.4314 4.52107 45.1128 4.52107 45.5822C4.52107 46.9194 6.76228 48.7774 7.83137 48.5202C8.50116 48.3595 9.9953 46.3472 10.5492 45.0743C10.9807 44.0263 11.5345 42.2455 12.127 40.0982L12.1206 40.1046Z" fill="#CA191D"/>
<path d="M43.6654 20.3738C44.1806 20.2517 45.005 20.6824 45.005 21.1518C45.005 21.6211 44.4962 22.6497 44.4962 22.6497C42.3323 27.0986 40.0073 31.2389 37.1736 31.9204C35.4025 32.3447 32.1373 31.6375 31.8217 30.6153C31.8217 30.6153 29.4582 33.7784 27.4488 34.2606C25.6391 34.6977 22.3674 33.0069 22.3674 30.8853C22.3674 25.6971 27.0495 15.8864 30.6367 15.0185C33.786 14.2598 35.7954 16.1371 35.7954 16.1371C36.8194 15.8928 39.183 15.5971 39.183 16.5807C39.183 17.9565 36.5038 25.1249 36.5038 28.2687C36.5038 28.783 37.2123 29.2009 37.5665 29.1109C38.745 28.828 40.8768 25.2856 42.8024 21.2868C42.8024 21.2868 43.1566 20.496 43.6654 20.3738ZM32.0922 17.8087C30.1215 18.2844 26.9722 26.3143 26.9722 29.7731C26.9722 30.6796 27.6807 31.1746 28.3504 31.0139C29.1362 30.8275 31.1069 28.9759 32.2082 26.43C32.9939 24.5913 34.2175 19.5381 34.2175 18.4387C34.2175 17.8087 32.7234 17.6608 32.0922 17.8087Z" fill="#CA191D"/>
<path d="M50.0797 28.8152C47.0463 29.5417 44.9983 28.2302 44.9983 28.2302C44.9983 28.2302 43.0662 36.948 42.7957 38.9024C42.6798 39.4424 42.4415 39.8539 41.8104 40.0018C40.825 40.2396 38.6997 39.7639 38.6997 38.7481C38.6997 37.3723 43.4269 17.8408 44.8824 12.4212C44.9983 11.8426 45.5908 11.4247 46.1447 11.2961C46.8144 11.1354 48.9011 12.9548 48.9011 12.9548C48.9011 12.9548 51.226 10.0746 53.5059 9.5281C55.2383 9.11021 58.1493 10.6146 58.1493 12.614C58.1493 14.8963 57.4409 18.4066 55.9468 21.8333C55.9468 21.8333 56.5779 21.8333 56.9708 21.7433C59.7658 21.0682 61.6142 16.7736 61.6142 16.7736C61.6142 16.7736 61.9684 15.9829 62.4385 15.8671C62.9924 15.7321 63.8554 16.1564 63.8554 16.6258C63.8554 17.0951 63.3015 18.1366 63.3015 18.1366C63.3015 18.1366 60.8993 23.3505 55.9017 24.5528C55.4315 24.6685 54.4462 24.8614 54.4462 24.8614C53.2676 26.6808 51.6897 28.4359 50.0732 28.8216L50.0797 28.8152ZM48.9397 26.2179C49.3326 26.1214 49.8478 25.6457 50.202 25.1314C49.4936 24.9899 49.0235 24.7456 49.0235 24.3149C49.0235 23.492 50.6786 21.4797 51.5416 21.274C51.7026 21.2354 51.8572 21.2354 52.0117 21.1968C52.8747 18.593 53.5059 15.6871 53.5059 14.1956C53.5059 13.4112 52.6429 12.8326 52.0117 12.9805C51.0264 13.2184 48.5855 15.655 47.993 17.5258C47.2073 19.9174 46.2219 23.4148 46.2219 24.7135C46.2219 25.7743 47.6388 26.5329 48.9397 26.2243V26.2179Z" fill="#CA191D"/>
<path d="M81.9331 11.1678C82.4419 11.0456 83.2727 11.4764 83.2727 11.9457C83.2727 12.415 82.7574 13.4437 82.7574 13.4437C80.5935 17.8926 78.2686 22.0329 75.4348 22.7143C73.6638 23.1387 70.3986 22.4315 70.083 21.4092C70.083 21.4092 67.7194 24.5723 65.71 25.0545C63.9003 25.4917 60.6287 23.8009 60.6287 21.6793C60.6287 16.491 65.3107 6.68032 68.898 5.8124C72.0473 5.05377 74.0566 6.93105 74.0566 6.93105C75.0806 6.68675 77.4442 6.39101 77.4442 7.37465C77.4442 8.75047 74.7651 15.9188 74.7651 19.0626C74.7651 19.577 75.4735 19.9949 75.8277 19.9049C77.0063 19.622 79.138 16.0796 81.0636 12.0807C81.0636 12.0807 81.4179 11.2899 81.9331 11.1614V11.1678ZM70.3599 8.6026C68.3892 9.07835 65.2399 17.1082 65.2399 20.567C65.2399 21.4735 65.9483 21.9686 66.6181 21.8078C67.4038 21.6214 69.3746 19.7698 70.4758 17.2239C71.2615 15.3852 72.4852 10.332 72.4852 9.23265C72.4852 8.6026 70.9911 8.45473 70.3599 8.6026Z" fill="#CA191D"/>
<path d="M94.7686 15.3526C95.9472 15.0697 98.0789 11.5273 100.005 7.52848C100.005 7.52848 100.359 6.73771 100.868 6.60913C101.383 6.48698 102.207 6.91772 102.207 7.38704C102.207 7.85636 101.692 8.88501 101.692 8.88501C99.528 13.3339 97.203 17.4742 94.3693 18.1557C92.5982 18.58 89.0561 17.7828 89.0561 16.0148C89.0561 13.5011 91.2587 6.67985 91.2587 5.18831C91.2587 4.51969 90.5889 4.01179 90.0801 4.13395C89.2557 4.33325 87.0467 5.84407 86.4607 7.48348C85.4367 10.3251 83.6269 18.7022 83.3886 19.898C83.2341 20.4444 83.1117 20.8687 82.5256 21.0102C81.6176 21.2288 79.2991 20.8044 79.2991 19.7437C79.2991 18.6829 82.2938 6.0948 83.1182 3.22102C83.3564 2.61669 83.8652 2.21809 84.4577 2.07665C85.1275 1.91593 86.9759 3.78678 86.9759 3.78678C86.9759 3.78678 90.8336 0.540113 92.8816 0.045077C94.0602 -0.237801 96.1919 0.861565 96.1919 2.31453C96.1919 4.15966 93.751 12.4146 93.751 14.4976C93.751 15.0119 94.4208 15.4362 94.775 15.3526H94.7686Z" fill="#CA191D"/>
<path d="M22.2957 48.8027V67.6141C22.2957 69.3178 23.1136 70.4815 24.6721 70.4815C26.2307 70.4815 27.0486 69.3114 27.0486 67.6141V48.8027H30.5972V67.0805C30.5972 72.5387 27.332 73.9531 24.6721 73.9531C22.0123 73.9531 18.7471 72.5387 18.7471 67.0805V48.8027H22.2957Z" fill="#12356D"/>
<path d="M38.2295 48.8027L44.1545 64.3867V48.8027H47.7031V73.5995H44.1545L38.2295 58.0155V73.5995H34.6809V48.8027H38.2295Z" fill="#12356D"/>
<path d="M55.3342 48.8027V73.5995H51.7856V48.8027H55.3342Z" fill="#12356D"/>
<path d="M66.0121 73.5995H62.8886L57.6333 48.8027H61.5361L64.4085 65.949H64.5502L67.532 48.8027H71.2609L66.0121 73.5995Z" fill="#12356D"/>
<path d="M73.5735 48.8027H84.1162V52.1716H77.1285V59.4685H83.3047V62.6573H77.1285V70.2372H84.2257V73.5995H73.5799V48.8027H73.5735Z" fill="#12356D"/>
<path d="M92.057 48.8028C93.8667 48.8028 96.4944 48.6935 98.1624 50.7508C98.9803 51.7408 99.4762 53.2324 99.4762 55.0711V56.9484C99.4762 58.5428 98.9095 60.0279 98.1624 60.8829C97.6278 61.4873 96.9194 61.9116 96.2818 62.1559L100.185 73.5996H96.4944L93.0553 62.9016H90.9622V73.5996H87.4136V48.8028H92.0634H92.057ZM90.9557 59.7128H92.978C93.7572 59.7128 94.5043 59.5328 95.1805 58.8964C95.889 58.2213 95.9276 57.6234 95.9276 56.6655V54.8975C95.9276 53.9396 95.5734 53.0909 95.1097 52.628C94.4013 51.9208 93.5512 51.9916 92.8041 51.9916H90.9557V59.7128Z" fill="#12356D"/>
<path d="M111.223 55.0004C111.223 54.4668 111.184 53.4446 110.618 52.731C110.296 52.3388 109.767 51.9145 108.737 51.9145C108.241 51.9145 107.565 52.0238 106.998 52.5895C106.322 53.2967 106.251 54.2868 106.251 55.1033C106.251 55.7783 106.361 57.0127 106.818 57.6878C107.211 58.2921 107.919 58.575 108.454 58.7871L110.618 59.565C111.68 59.9572 112.923 60.4137 113.844 61.693C114.804 63.0046 114.907 64.419 114.907 65.9812V66.8298C114.907 69.3436 114.231 71.2595 113.2 72.3202C112.279 73.2782 110.643 73.9468 108.589 73.9468C106.071 73.9468 104.435 72.9182 103.623 71.7866C102.49 70.263 102.49 67.9228 102.49 67.6078V66.7913H106.039V67.4663C106.039 68.0321 106.109 69.0222 106.605 69.6651C107.211 70.4108 108.093 70.4815 108.557 70.4815C109.903 70.4815 110.508 69.9479 110.791 69.5943C111.326 68.9193 111.358 67.8971 111.358 67.1513V66.2319C111.358 65.3833 111.249 64.3161 110.791 63.6796C110.328 63.0431 109.478 62.7217 109.085 62.5802L106.496 61.6609C105.221 61.198 103.939 60.5615 103.231 58.8964C102.735 57.7649 102.696 56.5241 102.696 55.2833V54.5761C102.696 52.5188 103.514 50.963 104.538 49.9729C105.71 48.8414 107.198 48.4492 108.834 48.4492C112.382 48.4492 114.759 50.7508 114.759 54.859V55.6755H111.21V55.0004H111.223Z" fill="#12356D"/>
<path d="M122.01 48.8027V73.5995H118.461V48.8027H122.01Z" fill="#12356D"/>
<path d="M137.017 48.8027V52.1716H132.618V73.5995H129.069V52.1716H124.671V48.8027H137.017Z" fill="#12356D"/>
<path d="M146.67 63.1524V73.5995H143.122V63.0431L137.905 48.8027H141.808L144.893 58.652H145.105L148.119 48.8027H151.88L146.664 63.1524H146.67Z" fill="#12356D"/>
<path d="M166.931 54.4347C166.931 53.9396 166.789 53.2646 166.467 52.8017C166.287 52.5509 165.758 51.9145 164.619 51.9145C163.698 51.9145 163.131 52.3066 162.77 52.731C162.203 53.4382 162.165 54.3254 162.165 55.174V67.3956C162.165 68.2121 162.165 68.9514 162.628 69.5943C162.88 69.9479 163.446 70.4815 164.438 70.4815C165.217 70.4815 165.997 70.1987 166.428 69.6329C166.609 69.3886 166.924 68.8164 166.924 67.6142V66.727H170.473V67.7556C170.473 70.1987 169.623 71.6195 168.985 72.2881C168.238 73.1046 166.782 73.9532 164.335 73.9532C161.888 73.9532 160.645 72.9953 159.866 72.0759C158.59 70.5908 158.623 68.8871 158.623 67.6142V54.7561C158.623 53.1296 158.835 51.2844 160.432 49.9022C161.534 48.9121 163.163 48.4492 164.477 48.4492C165.965 48.4492 167.703 49.015 168.772 50.0436C169.661 50.9308 170.37 52.4159 170.37 54.1518V55.849H166.931V54.4347Z" fill="#12356D"/>
<path d="M177.577 48.8027V59.4621H182.368V48.8027H185.917V73.5995H182.368V62.6509H177.577V73.5995H174.028V48.8027H177.577Z" fill="#12356D"/>
<path d="M198.65 73.5995L197.477 68.2827H192.937L191.765 73.5995H188.216L193.645 48.8027H196.769L202.198 73.5995H198.65ZM195.133 55.7075L193.291 65.1325H197.052L195.133 55.7075Z" fill="#12356D"/>
<path d="M204.504 48.8027H208.052L212.947 62.4773H213.089L217.739 48.8027H221.287V73.5995H217.739V58.0863H217.558L213.829 69.2792H211.949L208.22 58.0863H208.04V73.5995H204.491V48.8027H204.504Z" fill="#12356D"/>
<path d="M225.371 48.8027H230.658C232.185 48.8027 234.065 48.8734 235.624 50.4357C237.26 52.1008 237.433 54.261 237.433 56.1061V56.8133C237.433 58.1956 237.292 60.2464 235.907 61.8408C234.452 63.506 232.539 63.7888 231.013 63.7888H228.919V73.5995H225.371V48.8027ZM228.919 60.6H230.839C231.515 60.6 232.474 60.4907 233.215 59.6807C233.962 58.8642 233.891 58.0155 233.891 57.1283V55.4954C233.891 54.6467 233.924 53.4381 232.932 52.628C232.114 51.953 231.122 51.9915 230.162 51.9915H228.919V60.6Z" fill="#12356D"/>
<path d="M244.002 48.8027V73.5995H240.453V48.8027H244.002Z" fill="#12356D"/>
<path d="M247.937 55.3219C247.937 53.4446 248.078 51.638 249.785 50.0436C250.848 49.0535 252.303 48.4492 254.152 48.4492C256 48.4492 257.449 49.0535 258.518 50.0436C260.225 51.638 260.366 53.4446 260.366 55.3219V67.0806C260.366 68.9579 260.225 70.7644 258.518 72.3588C257.455 73.3489 256 73.9532 254.152 73.9532C252.303 73.9532 250.854 73.3489 249.785 72.3588C248.078 70.7644 247.937 68.9579 247.937 67.0806V55.3219ZM256.805 54.7883C256.805 54.0425 256.734 53.3031 256.058 52.6281C255.665 52.2359 255.027 51.9209 254.139 51.9209C253.25 51.9209 252.612 52.2424 252.226 52.6281C251.55 53.3031 251.479 54.0425 251.479 54.7883V67.6142C251.479 68.36 251.55 69.0993 252.226 69.7743C252.619 70.1665 253.256 70.4815 254.139 70.4815C255.021 70.4815 255.665 70.1601 256.058 69.7743C256.734 69.0993 256.805 68.36 256.805 67.6142V54.7883Z" fill="#12356D"/>
<path d="M267.844 48.8027L273.77 64.3867V48.8027H277.318V73.5995H273.77L267.844 58.0155V73.5995H264.296V48.8027H267.844Z" fill="#12356D"/>
<path d="M289.599 55.0004C289.599 54.4668 289.561 53.4446 288.994 52.731C288.672 52.3388 288.144 51.9145 287.114 51.9145C286.618 51.9145 285.941 52.0238 285.375 52.5895C284.698 53.2967 284.628 54.2868 284.628 55.1033C284.628 55.7783 284.737 57.0127 285.194 57.6878C285.587 58.2921 286.296 58.575 286.83 58.7871L288.994 59.565C290.057 59.9572 291.3 60.4137 292.221 61.693C293.18 63.0046 293.283 64.419 293.283 65.9812V66.8298C293.283 69.3436 292.607 71.2595 291.577 72.3202C290.656 73.2782 289.02 73.9468 286.965 73.9468C284.447 73.9468 282.811 72.9182 282 71.7866C280.866 70.263 280.866 67.9228 280.866 67.6078V66.7913H284.415V67.4663C284.415 68.0321 284.486 69.0222 284.982 69.6651C285.587 70.4108 286.469 70.4815 286.933 70.4815C288.279 70.4815 288.885 69.9479 289.168 69.5943C289.703 68.9193 289.735 67.8971 289.735 67.1513V66.2319C289.735 65.3833 289.625 64.3161 289.168 63.6796C288.704 63.0431 287.854 62.7217 287.461 62.5802L284.872 61.6609C283.597 61.198 282.316 60.5615 281.607 58.8964C281.111 57.7649 281.073 56.5241 281.073 55.2833V54.5761C281.073 52.5188 281.89 50.963 282.914 49.9729C284.087 48.8414 285.574 48.4492 287.21 48.4492C290.759 48.4492 293.135 50.7508 293.135 54.859V55.6755H289.587V55.0004H289.599Z" fill="#12356D"/>
<path d="M300.386 48.8027V59.4621H305.178V48.8027H308.727V73.5995H305.178V62.6509H300.386V73.5995H296.838V48.8027H300.386Z" fill="#12356D"/>
<path d="M316.353 48.8027V73.5995H312.804V48.8027H316.353Z" fill="#12356D"/>
<path d="M320.435 48.8027H325.723C327.249 48.8027 329.129 48.8734 330.688 50.4357C332.324 52.1008 332.498 54.261 332.498 56.1061V56.8133C332.498 58.1956 332.356 60.2464 330.971 61.8408C329.516 63.506 327.603 63.7888 326.077 63.7888H323.984V73.5995H320.435V48.8027ZM323.984 60.6H325.896C326.573 60.6 327.532 60.4907 328.273 59.6807C329.02 58.8642 328.949 58.0155 328.949 57.1283V55.4954C328.949 54.6467 328.981 53.4381 327.99 52.628C327.172 51.953 326.18 51.9915 325.22 51.9915H323.977V60.6H323.984Z" fill="#12356D"/>
<path d="M343.71 55.0004C343.71 54.4668 343.671 53.4446 343.104 52.731C342.782 52.3388 342.254 51.9145 341.224 51.9145C340.728 51.9145 340.052 52.0238 339.485 52.5895C338.809 53.2967 338.738 54.2868 338.738 55.1033C338.738 55.7783 338.847 57.0127 339.305 57.6878C339.698 58.2921 340.406 58.575 340.941 58.7871L343.104 59.565C344.167 59.9572 345.41 60.4137 346.331 61.693C347.291 63.0046 347.394 64.419 347.394 65.9812V66.8298C347.394 69.3436 346.717 71.2595 345.687 72.3202C344.766 73.2782 343.13 73.9468 341.076 73.9468C338.558 73.9468 336.922 72.9182 336.11 71.7866C334.977 70.263 334.977 67.9228 334.977 67.6078V66.7913H338.525V67.4663C338.525 68.0321 338.596 69.0222 339.092 69.6651C339.698 70.4108 340.58 70.4815 341.044 70.4815C342.39 70.4815 342.995 69.9479 343.278 69.5943C343.813 68.9193 343.845 67.8971 343.845 67.1513V66.2319C343.845 65.3833 343.736 64.3161 343.278 63.6796C342.815 63.0431 341.964 62.7217 341.572 62.5802L338.983 61.6609C337.707 61.198 336.426 60.5615 335.717 58.8964C335.222 57.7649 335.183 56.5241 335.183 55.2833V54.5761C335.183 52.5188 336.001 50.963 337.025 49.9729C338.197 48.8414 339.685 48.4492 341.32 48.4492C344.869 48.4492 347.246 50.7508 347.246 54.859V55.6755H343.697V55.0004H343.71Z" fill="#12356D"/>
<path d="M18.877 86.966C18.877 85.4423 18.9929 83.9829 20.3711 82.6907C21.2341 81.887 22.4127 81.3984 23.9068 81.3984C25.4009 81.3984 26.5795 81.887 27.4425 82.6907C28.8207 83.9829 28.9367 85.4487 28.9367 86.966V96.4938C28.9367 98.0175 28.8207 99.4769 27.4425 100.769C26.5795 101.573 25.4009 102.061 23.9068 102.061C22.4127 102.061 21.2341 101.573 20.3711 100.769C18.9929 99.4769 18.877 98.0111 18.877 96.4938V86.966ZM26.0643 86.5352C26.0643 85.9309 26.0063 85.3266 25.4589 84.7865C25.1433 84.4715 24.6281 84.2144 23.9068 84.2144C23.1855 84.2144 22.6703 84.4715 22.3547 84.7865C21.8073 85.333 21.7493 85.9373 21.7493 86.5352V96.9246C21.7493 97.5289 21.8073 98.1332 22.3547 98.6733C22.6703 98.9883 23.1855 99.2455 23.9068 99.2455C24.6281 99.2455 25.1433 98.9883 25.4589 98.6733C26.0063 98.1268 26.0643 97.5225 26.0643 96.9246V86.5352Z" fill="#12356D"/>
<path d="M34.3399 81.6816L36.6391 87.995L38.9705 81.6816H42.1327L38.1655 91.1516L42.5384 101.772H39.4921L36.6456 94.5076L33.9986 101.772H30.8364L35.1514 91.1516L31.3001 81.6816H34.3464H34.3399Z" fill="#12356D"/>
<path d="M44.5479 81.6816H53.2873V84.4075H47.4202V90.438H52.566V93.1639H47.4202V101.772H44.5479V81.6816Z" fill="#12356D"/>
<path d="M55.4775 86.966C55.4775 85.4423 55.5935 83.9829 56.9717 82.6907C57.8347 81.887 59.0132 81.3984 60.5074 81.3984C62.0015 81.3984 63.1801 81.887 64.0431 82.6907C65.4213 83.9829 65.5372 85.4487 65.5372 86.966V96.4938C65.5372 98.0175 65.4213 99.4769 64.0431 100.769C63.1801 101.573 62.0015 102.061 60.5074 102.061C59.0132 102.061 57.8347 101.573 56.9717 100.769C55.5935 99.4769 55.4775 98.0111 55.4775 96.4938V86.966ZM62.6649 86.5352C62.6649 85.9309 62.6069 85.3266 62.0595 84.7865C61.7439 84.4715 61.2287 84.2144 60.5074 84.2144C59.7861 84.2144 59.2709 84.4715 58.9553 84.7865C58.4079 85.333 58.3499 85.9373 58.3499 86.5352V96.9246C58.3499 97.5289 58.4079 98.1332 58.9553 98.6733C59.2709 98.9883 59.7861 99.2455 60.5074 99.2455C61.2287 99.2455 61.7439 98.9883 62.0595 98.6733C62.6069 98.1268 62.6649 97.5225 62.6649 96.9246V86.5352Z" fill="#12356D"/>
<path d="M72.4992 81.6814C73.9675 81.6814 76.0928 81.5978 77.4453 83.2629C78.1086 84.0665 78.5079 85.2688 78.5079 86.7667V88.2904C78.5079 89.5827 78.0507 90.7849 77.4453 91.4792C77.0138 91.9678 76.4406 92.3086 75.9189 92.5143L79.0811 101.785H76.0928L73.3042 93.1186H71.6104V101.785H68.738V81.6942H72.5056L72.4992 81.6814ZM71.6104 90.5213H73.2462C73.8774 90.5213 74.4828 90.3799 75.0302 89.8591C75.6034 89.3126 75.6356 88.824 75.6356 88.0525V86.6189C75.6356 85.8409 75.3458 85.153 74.9722 84.7802C74.399 84.208 73.7099 84.2658 73.1045 84.2658H71.6104V90.5213Z" fill="#12356D"/>
<path d="M85.2634 81.6816C86.4741 81.6816 88.1937 81.7395 89.4624 82.8903C90.9308 84.2404 91.0145 86.362 91.0145 87.2235V96.0955C91.0145 97.4714 90.8728 98.9372 89.72 100.197C88.4577 101.573 86.7897 101.779 85.6627 101.779H81.3799V81.6881H85.2634V81.6816ZM84.2587 98.9629H85.5532C86.1586 98.9629 86.9056 98.8793 87.4788 98.275C88.0842 97.6128 88.1422 96.5842 88.1422 95.922V87.0242C88.1422 86.452 88.0584 85.7319 87.5947 85.1598C87.0473 84.4976 86.4419 84.4976 85.7271 84.4976H84.2587V98.9629Z" fill="#12356D"/>
<path d="M99.6123 81.6816H102.485L106.452 92.7589H106.568L110.335 81.6816H113.208V101.772H110.335V89.1972H110.194L107.173 98.2686H105.647L102.626 89.1972H102.485V101.772H99.6123V81.6816Z" fill="#12356D"/>
<path d="M116.519 81.6816H125.058V84.4075H119.391V90.3223H124.395V92.9067H119.391V99.0465H125.142V101.772H116.519V81.6816Z" fill="#12356D"/>
<path d="M127.73 81.6816H130.603L134.57 92.7589H134.686L138.454 81.6816H141.326V101.772H138.454V89.1972H138.312L135.291 98.2686H133.765L130.745 89.1972H130.603V101.772H127.73V81.6816Z" fill="#12356D"/>
<path d="M144.521 86.966C144.521 85.4423 144.636 83.9829 146.015 82.6907C146.878 81.887 148.056 81.3984 149.55 81.3984C151.045 81.3984 152.223 81.887 153.086 82.6907C154.464 83.9829 154.58 85.4487 154.58 86.966V96.4938C154.58 98.0175 154.464 99.4769 153.086 100.769C152.223 101.573 151.045 102.061 149.55 102.061C148.056 102.061 146.878 101.573 146.015 100.769C144.636 99.4769 144.521 98.0111 144.521 96.4938V86.966ZM151.708 86.5352C151.708 85.9309 151.65 85.3266 151.102 84.7865C150.787 84.4715 150.272 84.2144 149.55 84.2144C148.829 84.2144 148.314 84.4715 147.998 84.7865C147.451 85.333 147.393 85.9373 147.393 86.5352V96.9246C147.393 97.5289 147.451 98.1332 147.998 98.6733C148.314 98.9883 148.829 99.2455 149.55 99.2455C150.272 99.2455 150.787 98.9883 151.102 98.6733C151.65 98.1268 151.708 97.5225 151.708 96.9246V86.5352Z" fill="#12356D"/>
<path d="M161.542 81.6814C163.01 81.6814 165.136 81.5978 166.488 83.2629C167.151 84.0665 167.551 85.2688 167.551 86.7667V88.2904C167.551 89.5827 167.093 90.7849 166.488 91.4792C166.057 91.9678 165.483 92.3086 164.962 92.5143L168.124 101.785H165.136L162.347 93.1186H160.653V101.785H157.781V81.6942H161.548L161.542 81.6814ZM160.653 90.5213H162.289C162.92 90.5213 163.525 90.3799 164.073 89.8591C164.646 89.3126 164.678 88.824 164.678 88.0525V86.6189C164.678 85.8409 164.388 85.153 164.015 84.7802C163.442 84.208 162.753 84.2658 162.147 84.2658H160.653V90.5213Z" fill="#12356D"/>
<path d="M173.302 81.6816V101.772H170.429V81.6816H173.302Z" fill="#12356D"/>
<path d="M183.625 101.778L182.678 97.4708H179.001L178.054 101.778H175.182L179.58 81.6875H182.111L186.51 101.778H183.638H183.625ZM180.778 87.2808L179.284 94.9185H182.33L180.778 87.2808Z" fill="#12356D"/>
<path d="M191.244 81.6816V99.0465H197.337V101.772H188.365V81.6816H191.238H191.244Z" fill="#12356D"/>
<path d="M204.756 81.6816H209.039C210.275 81.6816 211.802 81.7395 213.064 82.9996C214.384 84.3497 214.532 86.0984 214.532 87.5899V88.1621C214.532 89.2808 214.417 90.9459 213.296 92.2381C212.117 93.5882 210.565 93.8197 209.329 93.8197H207.635V101.772H204.763V81.6816H204.756ZM207.628 91.2416H209.181C209.728 91.2416 210.501 91.158 211.106 90.4959C211.712 89.8337 211.654 89.1458 211.654 88.4321V87.1142C211.654 86.4263 211.679 85.4491 210.874 84.7869C210.211 84.2404 209.406 84.2725 208.633 84.2725H207.628V91.248V91.2416Z" fill="#12356D"/>
<path d="M219.852 81.6816V99.0465H225.944V101.772H216.973V81.6816H219.845H219.852Z" fill="#12356D"/>
<path d="M235.554 101.778L234.607 97.4708H230.929L229.983 101.778H227.11L231.509 81.6875H234.04L238.439 101.778H235.566H235.554ZM232.707 87.2808L231.213 94.9185H234.259L232.707 87.2808Z" fill="#12356D"/>
<path d="M249.156 81.6816V84.4075H245.588V101.772H242.715V84.4075H239.147V81.6816H249.156Z" fill="#12356D"/>
<path d="M251.307 81.6816H259.846V84.4075H254.179V90.3223H259.183V92.9067H254.179V99.0465H259.93V101.772H251.307V81.6816Z" fill="#12356D"/>
<path d="M271.117 81.6814C272.585 81.6814 274.711 81.5978 276.063 83.2629C276.727 84.0665 277.126 85.2688 277.126 86.7667V88.2904C277.126 89.5827 276.669 90.7849 276.063 91.4792C275.632 91.9678 275.059 92.3086 274.537 92.5143L277.699 101.785H274.711L271.922 93.1186H270.228V101.785H267.356V81.6942H271.124L271.117 81.6814ZM270.228 90.5213H271.864C272.495 90.5213 273.101 90.3799 273.648 89.8591C274.221 89.3126 274.253 88.824 274.253 88.0525V86.6189C274.253 85.8409 273.964 85.153 273.59 84.7802C273.017 84.208 272.328 84.2658 271.722 84.2658H270.228V90.5213Z" fill="#12356D"/>
<path d="M280.004 81.6816H288.544V84.4075H282.877V90.3223H287.881V92.9067H282.877V99.0465H288.628V101.772H280.004V81.6816Z" fill="#12356D"/>
<path d="M298.952 100.229C298.552 100.949 298.005 101.348 297.573 101.579C296.742 102.036 295.822 102.068 295.332 102.068C294.295 102.068 293.091 101.811 292.138 100.634C291.217 99.4833 291.101 98.0497 291.101 97.1303V86.966C291.101 85.7573 291.159 84.5294 292.048 83.295C293.2 81.6877 295.01 81.3984 296.098 81.3984C297.593 81.3984 298.861 81.887 299.666 82.6907C300.471 83.4943 301.135 84.7544 301.135 86.6253V87.4289H298.262V86.4259C298.262 85.9373 298.204 85.3073 297.689 84.793C297.399 84.5037 296.91 84.2208 296.137 84.2208C295.364 84.2208 294.875 84.5358 294.527 84.9408C293.98 85.603 293.98 86.3488 293.98 87.0624V96.4745C293.98 97.0789 294.005 97.9404 294.469 98.5383C294.817 98.969 295.39 99.2583 296.079 99.2583C296.685 99.2583 297.374 98.9433 297.747 98.4547C298.262 97.7925 298.262 96.8217 298.262 96.1017V93.4015H295.822V90.817H301.141V101.778H299.705L298.958 100.229H298.952Z" fill="#12356D"/>
<path d="M311.343 101.778L310.396 97.4708H306.718L305.772 101.778H302.899L307.298 81.6875H309.829L314.228 101.778H311.355H311.343ZM308.496 87.2808L307.002 94.9185H310.048L308.496 87.2808Z" fill="#12356D"/>
<path d="M324.945 81.6816V84.4075H321.377V101.772H318.504V84.4075H314.937V81.6816H324.945Z" fill="#12356D"/>
<path d="M335.957 81.6816V84.4075H332.389V101.772H329.517V84.4075H325.949V81.6816H335.957Z" fill="#12356D"/>
<path d="M345.128 101.778L344.182 97.4708H340.504L339.558 101.778H336.685L341.084 81.6875H343.615L348.014 101.778H345.141H345.128ZM342.282 87.2808L340.788 94.9185H343.834L342.282 87.2808Z" fill="#12356D"/>
</g>
<defs>
<clipPath id="clip0_408_123">
<rect width="348" height="215" fill="white"/>
</clipPath>
</defs>
</svg>
