<svg width="400" height="59" viewBox="0 0 400 59" fill="none" xmlns="http://www.w3.org/2000/svg">
<g filter="url(#filter0_d_245_3109)">
<path d="M16.1682 0H396L380.783 55H0L16.1682 0Z" fill="url(#paint0_linear_245_3109)"/>
<path d="M2.00442 53.5L17.2907 1.5H394.029L379.642 53.5H2.00442Z" stroke="white" stroke-width="3"/>
</g>
<path d="M121.712 22.664V24.888C121.712 27.464 121.472 31.416 120.032 33.912C119.68 33.592 118.832 33.048 118.384 32.84C119.696 30.552 119.808 27.192 119.808 24.888V20.856H125.504V19.016H127.488V20.856H133.264V22.664H121.712ZM130.112 25.032L128.736 26.456C127.968 25.704 126.288 24.632 124.976 23.96L126.24 22.712C127.52 23.32 129.248 24.28 130.112 25.032ZM123.12 32.552L121.424 31.8C122.096 30.584 122.432 28.728 122.592 26.952L124.304 27.32C124.128 29.16 123.84 31.272 123.12 32.552ZM127.264 31.944H128.56C129.04 31.944 129.136 31.576 129.2 29.368C129.6 29.704 130.384 30.008 130.88 30.136C130.704 32.872 130.224 33.64 128.736 33.64H126.96C125.264 33.64 124.864 33.08 124.864 31.304V25.72H126.752V31.288C126.752 31.864 126.816 31.944 127.264 31.944ZM129.84 27.192L131.536 26.536C132.48 28.2 133.408 30.312 133.664 31.768L131.792 32.536C131.584 31.112 130.752 28.888 129.84 27.192Z" fill="#003E92"/>
<path d="M139.408 26.248L139.648 27.944C139.12 28.104 138.592 28.264 138.064 28.408V31.928C138.064 32.808 137.904 33.288 137.424 33.592C136.944 33.896 136.256 33.96 135.216 33.944C135.168 33.48 134.96 32.696 134.736 32.184C135.312 32.216 135.856 32.216 136.048 32.2C136.24 32.2 136.32 32.136 136.32 31.928V28.904L134.72 29.384L134.432 27.512C134.976 27.4 135.616 27.24 136.32 27.064V23.784H134.64V22.024H136.32V19.016H138.064V22.024H139.504V23.784H138.064V26.6L139.408 26.248ZM146.304 29.144H143.52C143.92 29.752 144.448 30.28 145.12 30.744C145.6 30.296 146.016 29.768 146.304 29.144ZM147.392 27.72L148.416 28.136C148.016 29.56 147.408 30.664 146.576 31.544C147.488 31.944 148.512 32.232 149.648 32.408C149.248 32.776 148.768 33.48 148.528 33.96C147.264 33.688 146.128 33.272 145.152 32.728C144.272 33.272 143.232 33.688 142.128 33.976C141.936 33.576 141.424 32.872 141.104 32.568C142.064 32.376 142.944 32.088 143.712 31.688C143.248 31.32 142.848 30.872 142.496 30.392C141.872 31.736 140.96 32.984 139.536 33.912C139.28 33.464 138.736 32.856 138.304 32.536C140.416 31.24 141.232 29.192 141.6 27.144H139.68V25.608H141.808C141.824 25.352 141.84 25.096 141.872 24.856H139.984V23.368H140.976C140.848 22.872 140.608 22.168 140.4 21.64L141.84 21.24C142.08 21.832 142.416 22.6 142.56 23.08L141.664 23.368H143.504C143.456 22.84 143.312 22.008 143.152 21.352L144.64 21.096C144.816 21.72 145.008 22.536 145.072 23.032L143.584 23.368H145.584C146.032 22.616 146.544 21.576 146.832 20.792C144.704 21.064 142.24 21.208 140.096 21.24C140.064 20.824 139.872 20.216 139.696 19.832C142.496 19.736 145.776 19.496 147.744 19.064L148.816 20.488C148.208 20.6 147.552 20.696 146.832 20.792L148.592 21.304C148.16 22.008 147.696 22.744 147.28 23.368H148.8V24.856H143.68C143.664 25.112 143.648 25.352 143.616 25.608H149.264V27.144H143.424C143.376 27.352 143.344 27.56 143.296 27.768H147.088L147.392 27.72Z" fill="#003E92"/>
<path d="M163.488 20.792C163.28 21.16 162.976 21.864 162.816 22.232C162.336 23.496 161.616 25.112 160.672 26.584C162.08 27.736 163.424 28.968 164.512 30.12L162.864 31.944C161.744 30.632 160.592 29.512 159.312 28.408C157.904 30.104 156.064 31.88 153.36 33.352L151.568 31.736C154.176 30.472 156.064 28.92 157.648 27.016C156.496 26.104 154.96 24.968 153.328 23.976L154.688 22.344C155.968 23.128 157.648 24.28 158.944 25.24C159.76 23.96 160.304 22.696 160.72 21.432C160.864 21.016 161.04 20.376 161.104 19.96L163.488 20.792Z" fill="#003E92"/>
<path d="M174.08 23.048C174.384 23.736 175.168 25.816 175.392 26.552L173.472 27.224C173.28 26.44 172.576 24.504 172.176 23.672L174.08 23.048ZM179.984 24.216C179.792 24.728 179.696 25.064 179.6 25.384C179.184 27 178.512 28.664 177.424 30.072C175.936 31.992 173.936 33.336 172.064 34.04L170.384 32.328C172.144 31.864 174.368 30.648 175.696 28.984C176.784 27.624 177.552 25.496 177.744 23.496L179.984 24.216ZM170.368 23.896C170.768 24.712 171.536 26.648 171.856 27.544L169.904 28.28C169.632 27.416 168.832 25.288 168.448 24.584L170.368 23.896Z" fill="#003E92"/>
<path d="M186.512 30.424V26.056C185.088 26.344 183.824 26.6 183.152 26.76L182.768 24.664C183.52 24.568 184.928 24.328 186.512 24.04V21.752C186.512 21.224 186.464 20.408 186.384 19.912H188.768C188.704 20.408 188.624 21.208 188.624 21.752V23.64C190.96 23.192 193.2 22.744 193.92 22.568C194.368 22.472 194.752 22.36 195.056 22.2L196.592 23.384C196.448 23.608 196.208 23.976 196.064 24.264C195.36 25.592 193.904 27.784 192.752 28.92L190.992 27.88C192.048 26.936 193.104 25.48 193.552 24.632C193.056 24.744 190.896 25.16 188.624 25.624V29.864C188.624 30.856 188.912 31.208 190.672 31.208C192.352 31.208 194.128 30.984 195.712 30.664L195.648 32.84C194.32 33.032 192.4 33.192 190.688 33.192C187.04 33.192 186.512 32.312 186.512 30.424Z" fill="#003E92"/>
<path d="M199.472 25.144C200.048 25.192 201.216 25.24 202.048 25.24H210.64C211.392 25.24 212.096 25.176 212.512 25.144V27.656C212.128 27.64 211.312 27.576 210.64 27.576H202.048C201.136 27.576 200.064 27.608 199.472 27.656V25.144Z" fill="#003E92"/>
<path d="M225.367 20.264C225.815 20.936 226.455 22.008 226.823 22.744L225.431 23.336C224.967 22.328 224.599 21.64 224.023 20.824L225.367 20.264ZM227.559 19.496C228.055 20.136 228.679 21.176 229.063 21.88L227.703 22.488C227.191 21.48 226.791 20.856 226.199 20.056L227.559 19.496ZM218.407 19.96C219.463 20.536 221.223 21.656 222.055 22.248L220.871 24.008C219.975 23.384 218.311 22.312 217.255 21.72L218.407 19.96ZM215.447 31.32C217.239 31.016 219.159 30.472 220.887 29.512C223.607 27.992 225.847 25.8 227.111 23.512L228.343 25.688C226.871 27.912 224.599 29.928 221.991 31.448C220.359 32.36 218.055 33.16 216.647 33.416L215.447 31.32ZM215.943 23.608C217.031 24.184 218.791 25.288 219.607 25.864L218.439 27.656C217.527 27.016 215.863 25.944 214.791 25.368L215.943 23.608Z" fill="#003E92"/>
<path d="M237.463 19.72C237.383 20.12 237.271 20.648 237.063 21.32C238.583 21.24 240.183 21.096 241.591 20.856L241.575 22.712C240.055 22.936 238.087 23.064 236.359 23.112C236.087 23.704 235.767 24.28 235.447 24.744C235.863 24.552 236.727 24.424 237.255 24.424C238.231 24.424 239.031 24.84 239.383 25.656C240.215 25.272 240.887 25 241.543 24.712C242.167 24.44 242.727 24.184 243.319 23.88L244.119 25.736C243.607 25.88 242.759 26.2 242.215 26.408C241.495 26.696 240.583 27.048 239.607 27.496C239.623 28.392 239.655 29.576 239.671 30.312H237.751C237.799 29.832 237.815 29.064 237.831 28.36C236.631 29.048 235.991 29.672 235.991 30.472C235.991 31.352 236.743 31.592 238.311 31.592C239.671 31.592 241.447 31.416 242.855 31.144L242.791 33.208C241.735 33.352 239.767 33.48 238.263 33.48C235.751 33.48 233.895 32.872 233.895 30.808C233.895 28.76 235.815 27.48 237.639 26.536C237.399 26.136 236.967 25.992 236.519 25.992C235.623 25.992 234.631 26.504 234.023 27.096C233.543 27.576 233.079 28.152 232.535 28.856L230.823 27.576C232.503 26.024 233.639 24.6 234.359 23.16C234.279 23.16 234.215 23.16 234.151 23.16C233.495 23.16 232.327 23.128 231.447 23.064V21.192C232.263 21.32 233.447 21.384 234.263 21.384C234.503 21.384 234.775 21.384 235.031 21.384C235.207 20.744 235.319 20.12 235.351 19.544L237.463 19.72Z" fill="#003E92"/>
<path d="M260.935 26.744H257.095C257.799 28.248 259.079 29.304 260.983 29.8C260.583 30.168 260.039 30.904 259.783 31.4C257.975 30.776 256.743 29.672 255.927 28.104C255.287 29.304 254.119 30.456 252.039 31.368C251.799 30.968 251.207 30.312 250.775 29.992C253.207 29.096 254.135 27.896 254.487 26.744H250.775V25.032H254.695V23.496H251.319V21.816H252.919C252.663 21.176 252.215 20.344 251.735 19.688L253.351 19.016C253.943 19.752 254.535 20.744 254.743 21.448L253.895 21.816H257.463L256.647 21.528C257.111 20.824 257.671 19.768 257.975 19L259.927 19.592C259.415 20.408 258.871 21.208 258.407 21.816H260.407V23.496H256.599V25.032H260.935V26.744ZM250.535 21.784L249.031 23.048C248.535 22.28 247.399 21.224 246.455 20.52L247.863 19.368C248.823 20.04 249.991 21.032 250.535 21.784ZM250.135 25.208V30.232C250.791 31.304 251.991 31.736 253.655 31.8C255.527 31.88 259.127 31.832 261.255 31.672C261.047 32.12 260.759 33.048 260.663 33.592C258.743 33.688 255.527 33.72 253.623 33.64C251.655 33.56 250.343 33.112 249.303 31.864C248.599 32.488 247.895 33.112 247.015 33.784L246.087 31.8C246.775 31.4 247.575 30.872 248.279 30.328V26.952H246.439V25.208H250.135Z" fill="#003E92"/>
<path d="M267.927 30.664C267.927 31.256 268.583 31.656 269.543 31.656C269.879 31.656 270.183 31.64 270.471 31.608C270.375 30.568 269.783 29.896 268.919 29.896C268.311 29.896 267.927 30.264 267.927 30.664ZM265.207 20.36C265.655 20.424 266.215 20.44 266.663 20.44C267.511 20.44 270.935 20.376 271.847 20.296C272.503 20.232 272.871 20.184 273.063 20.12L274.103 21.544C273.735 21.784 273.351 22.008 272.983 22.28C272.119 22.888 270.439 24.296 269.431 25.096C269.959 24.968 270.439 24.92 270.951 24.92C273.671 24.92 275.735 26.616 275.735 28.952C275.735 31.48 273.815 33.48 269.943 33.48C267.719 33.48 266.039 32.456 266.039 30.856C266.039 29.56 267.207 28.36 268.903 28.36C270.887 28.36 272.087 29.576 272.311 31.096C273.191 30.632 273.639 29.896 273.639 28.92C273.639 27.48 272.199 26.504 270.311 26.504C267.863 26.504 266.263 27.8 264.551 29.752L263.095 28.248C264.231 27.336 266.167 25.704 267.111 24.92C268.007 24.184 269.671 22.84 270.455 22.152C269.639 22.168 267.431 22.264 266.583 22.312C266.151 22.344 265.639 22.392 265.271 22.44L265.207 20.36Z" fill="#003E92"/>
<path d="M367 26L359 32V20L367 26Z" fill="#003E92"/>
<g clip-path="url(#clip0_245_3109)">
<path fill-rule="evenodd" clip-rule="evenodd" d="M52.3312 22.3669L54.5552 29.2177L67.3317 28.6089L63.0291 15.3552L52.3312 22.3669ZM53.0108 29.719C53.1208 30.0579 53.3391 30.3513 53.6322 30.5538C53.9253 30.7564 54.2769 30.8569 54.6328 30.8399L67.4088 30.2295C67.6581 30.2176 67.9012 30.1484 68.1194 30.0273C68.3376 29.9062 68.5249 29.7364 68.6668 29.5311C68.8087 29.3259 68.9014 29.0907 68.9377 28.8438C68.974 28.5969 68.9529 28.345 68.876 28.1076L64.5735 14.8538C64.4964 14.6163 64.3656 14.3998 64.1913 14.2211C64.017 14.0423 63.8038 13.9062 63.5682 13.8233C63.3327 13.7404 63.0813 13.7129 62.8334 13.743C62.5856 13.773 62.348 13.8599 62.1391 13.9967L51.4412 21.0084C51.1432 21.2037 50.9177 21.4915 50.7994 21.8276C50.6812 22.1637 50.6768 22.5294 50.7868 22.8682L53.0108 29.719Z" fill="#003E92"/>
<path fill-rule="evenodd" clip-rule="evenodd" d="M50.0002 30.6656L53.1569 29.6408L50.9509 22.8456L47.7896 23.8719C47.3005 25.0834 47.254 26.4286 47.6583 27.6711C48.0626 28.9136 48.8918 29.9738 50.0002 30.6656ZM53.6582 31.1852C54.0678 31.0522 54.4078 30.762 54.6034 30.3784C54.799 29.9947 54.8342 29.5491 54.7012 29.1395L52.4953 22.3443C52.3623 21.9347 52.0721 21.5947 51.6885 21.3991C51.3048 21.2035 50.8592 21.1683 50.4496 21.3012L46.9794 22.4278C46.8637 22.4652 46.7569 22.5259 46.6656 22.606C46.5742 22.6862 46.5001 22.7842 46.4479 22.8939C44.8216 26.3086 46.167 30.4162 49.479 32.2415C49.5869 32.3011 49.7059 32.338 49.8287 32.3499C49.9514 32.3617 50.0753 32.3482 50.1927 32.3102L53.6582 31.1852Z" fill="#003E92"/>
<path fill-rule="evenodd" clip-rule="evenodd" d="M56.6754 31.1791L52.6586 32.005L53.1085 38.5338L57.1795 37.2123L56.6754 31.1791ZM52.3307 30.4163C51.9459 30.4953 51.6028 30.7111 51.3649 31.0238C51.1271 31.3364 51.0107 31.7246 51.0372 32.1166L51.4886 38.6448C51.5055 38.8911 51.5783 39.1302 51.7015 39.3441C51.8247 39.558 51.995 39.741 52.1995 39.8792C52.404 40.0174 52.6373 40.1071 52.8817 40.1416C53.1261 40.1761 53.3751 40.1544 53.6099 40.0782L57.6808 38.7566C58.0293 38.6436 58.3294 38.4161 58.5322 38.111C58.735 37.8059 58.8287 37.4411 58.798 37.0761L58.2939 31.0429C58.2749 30.8138 58.2074 30.5914 58.0961 30.3904C57.9847 30.1894 57.8319 30.0142 57.6478 29.8767C57.4637 29.7391 57.2525 29.6421 57.0282 29.5922C56.8038 29.5423 56.5715 29.5407 56.3464 29.5873L52.3307 30.4163ZM70.3655 13.6805C70.5342 13.8141 70.6429 14.0092 70.6678 14.223C70.6927 14.4367 70.6317 14.6516 70.4983 14.8204L68.6831 17.1168C68.6182 17.2039 68.5365 17.2771 68.4428 17.3321C68.3491 17.3871 68.2454 17.4227 68.1377 17.4368C68.03 17.451 67.9205 17.4434 67.8158 17.4145C67.7111 17.3856 67.6133 17.3359 67.5281 17.2685C67.443 17.2011 67.3722 17.1173 67.32 17.0221C67.2678 16.9268 67.2352 16.822 67.2242 16.714C67.2133 16.6059 67.2241 16.4968 67.256 16.393C67.288 16.2891 67.3405 16.1928 67.4104 16.1097L69.2256 13.8133C69.3592 13.6446 69.5543 13.5358 69.768 13.5109C69.9818 13.486 70.1967 13.547 70.3655 13.6805ZM68.578 20.8793C68.5115 20.6745 68.5291 20.4516 68.6269 20.2598C68.7247 20.068 68.8947 19.9229 69.0995 19.8564L71.4161 19.1044C71.6209 19.0379 71.8437 19.0555 72.0355 19.1533C72.2273 19.2511 72.3725 19.4211 72.4389 19.6259C72.5054 19.8307 72.4878 20.0535 72.39 20.2453C72.2922 20.4372 72.1222 20.5823 71.9174 20.6487L69.6009 21.4008C69.3961 21.4673 69.1733 21.4497 68.9814 21.3519C68.7896 21.2541 68.6445 21.0841 68.578 20.8793ZM69.8767 24.2645C69.9169 24.1657 69.9762 24.0757 70.0511 23.9998C70.1261 23.9239 70.2153 23.8635 70.3136 23.822C70.4119 23.7806 70.5175 23.759 70.6242 23.7583C70.7309 23.7577 70.8366 23.7781 70.9354 23.8184L73.6477 24.9165C73.8395 25.0025 73.9905 25.1595 74.0689 25.3546C74.1472 25.5496 74.1469 25.7674 74.068 25.9622C73.989 26.157 73.8376 26.3136 73.6455 26.3991C73.4535 26.4845 73.2358 26.4921 73.0382 26.4203L70.3254 25.3207C70.1259 25.24 69.9666 25.0835 69.8825 24.8855C69.7984 24.6874 69.7963 24.4641 69.8767 24.2645Z" fill="#003E92"/>
</g>
<defs>
<filter id="filter0_d_245_3109" x="0" y="0" width="400" height="59" filterUnits="userSpaceOnUse" color-interpolation-filters="sRGB">
<feFlood flood-opacity="0" result="BackgroundImageFix"/>
<feColorMatrix in="SourceAlpha" type="matrix" values="0 0 0 0 0 0 0 0 0 0 0 0 0 0 0 0 0 0 127 0" result="hardAlpha"/>
<feOffset dx="4" dy="4"/>
<feComposite in2="hardAlpha" operator="out"/>
<feColorMatrix type="matrix" values="0 0 0 0 0.521569 0 0 0 0 0.945098 0 0 0 0 0.941176 0 0 0 1 0"/>
<feBlend mode="normal" in2="BackgroundImageFix" result="effect1_dropShadow_245_3109"/>
<feBlend mode="normal" in="SourceGraphic" in2="effect1_dropShadow_245_3109" result="shape"/>
</filter>
<linearGradient id="paint0_linear_245_3109" x1="20.9236" y1="11" x2="311.566" y2="50.8772" gradientUnits="userSpaceOnUse">
<stop stop-color="#84F0EF"/>
<stop offset="1" stop-color="#D7F8AD"/>
</linearGradient>
<clipPath id="clip0_245_3109">
<rect width="32.4741" height="32.4741" fill="white" transform="translate(40 17.0273) rotate(-17.985)"/>
</clipPath>
</defs>
</svg>
