<svg width="315" height="59" viewBox="0 0 315 59" fill="none" xmlns="http://www.w3.org/2000/svg">
<g filter="url(#filter0_d_245_3088)">
<path d="M16.1682 0H311L295.783 55H0L16.1682 0Z" fill="url(#paint0_linear_245_3088)"/>
<path d="M2.00442 53.5L17.2907 1.5H309.029L294.642 53.5H2.00442Z" stroke="white" stroke-width="3"/>
</g>
<path d="M83.7118 23.112V25.336C83.7118 27.912 83.4718 31.864 82.0318 34.36C81.6798 34.04 80.8318 33.496 80.3838 33.288C81.6958 31 81.8078 27.64 81.8078 25.336V21.304H87.5038V19.464H89.4878V21.304H95.2638V23.112H83.7118ZM92.1118 25.48L90.7358 26.904C89.9678 26.152 88.2878 25.08 86.9758 24.408L88.2398 23.16C89.5198 23.768 91.2478 24.728 92.1118 25.48ZM85.1198 33L83.4238 32.248C84.0958 31.032 84.4318 29.176 84.5918 27.4L86.3038 27.768C86.1278 29.608 85.8398 31.72 85.1198 33ZM89.2638 32.392H90.5598C91.0398 32.392 91.1358 32.024 91.1998 29.816C91.5998 30.152 92.3838 30.456 92.8798 30.584C92.7038 33.32 92.2238 34.088 90.7358 34.088H88.9598C87.2638 34.088 86.8638 33.528 86.8638 31.752V26.168H88.7518V31.736C88.7518 32.312 88.8158 32.392 89.2638 32.392ZM91.8398 27.64L93.5358 26.984C94.4798 28.648 95.4078 30.76 95.6638 32.216L93.7918 32.984C93.5838 31.56 92.7518 29.336 91.8398 27.64Z" fill="#003E92"/>
<path d="M101.408 26.696L101.648 28.392C101.12 28.552 100.592 28.712 100.064 28.856V32.376C100.064 33.256 99.9038 33.736 99.4238 34.04C98.9438 34.344 98.2558 34.408 97.2158 34.392C97.1678 33.928 96.9598 33.144 96.7358 32.632C97.3118 32.664 97.8558 32.664 98.0478 32.648C98.2398 32.648 98.3198 32.584 98.3198 32.376V29.352L96.7198 29.832L96.4318 27.96C96.9758 27.848 97.6158 27.688 98.3198 27.512V24.232H96.6398V22.472H98.3198V19.464H100.064V22.472H101.504V24.232H100.064V27.048L101.408 26.696ZM108.304 29.592H105.52C105.92 30.2 106.448 30.728 107.12 31.192C107.6 30.744 108.016 30.216 108.304 29.592ZM109.392 28.168L110.416 28.584C110.016 30.008 109.408 31.112 108.576 31.992C109.488 32.392 110.512 32.68 111.648 32.856C111.248 33.224 110.768 33.928 110.528 34.408C109.264 34.136 108.128 33.72 107.152 33.176C106.272 33.72 105.232 34.136 104.128 34.424C103.936 34.024 103.424 33.32 103.104 33.016C104.064 32.824 104.944 32.536 105.712 32.136C105.248 31.768 104.848 31.32 104.496 30.84C103.872 32.184 102.96 33.432 101.536 34.36C101.28 33.912 100.736 33.304 100.304 32.984C102.416 31.688 103.232 29.64 103.6 27.592H101.68V26.056H103.808C103.824 25.8 103.84 25.544 103.872 25.304H101.984V23.816H102.976C102.848 23.32 102.608 22.616 102.4 22.088L103.84 21.688C104.08 22.28 104.416 23.048 104.56 23.528L103.664 23.816H105.504C105.456 23.288 105.312 22.456 105.152 21.8L106.64 21.544C106.816 22.168 107.008 22.984 107.072 23.48L105.584 23.816H107.584C108.032 23.064 108.544 22.024 108.832 21.24C106.704 21.512 104.24 21.656 102.096 21.688C102.064 21.272 101.872 20.664 101.696 20.28C104.496 20.184 107.776 19.944 109.744 19.512L110.816 20.936C110.208 21.048 109.552 21.144 108.832 21.24L110.592 21.752C110.16 22.456 109.696 23.192 109.28 23.816H110.8V25.304H105.68C105.664 25.56 105.648 25.8 105.616 26.056H111.264V27.592H105.424C105.376 27.8 105.344 28.008 105.296 28.216H109.088L109.392 28.168Z" fill="#003E92"/>
<path d="M125.488 21.24C125.28 21.608 124.976 22.312 124.816 22.68C124.336 23.944 123.616 25.56 122.672 27.032C124.08 28.184 125.424 29.416 126.512 30.568L124.864 32.392C123.744 31.08 122.592 29.96 121.312 28.856C119.904 30.552 118.064 32.328 115.36 33.8L113.568 32.184C116.176 30.92 118.064 29.368 119.648 27.464C118.496 26.552 116.96 25.416 115.328 24.424L116.688 22.792C117.968 23.576 119.648 24.728 120.944 25.688C121.76 24.408 122.304 23.144 122.72 21.88C122.864 21.464 123.04 20.824 123.104 20.408L125.488 21.24Z" fill="#003E92"/>
<path d="M136.08 23.496C136.384 24.184 137.168 26.264 137.392 27L135.472 27.672C135.28 26.888 134.576 24.952 134.176 24.12L136.08 23.496ZM141.984 24.664C141.792 25.176 141.696 25.512 141.6 25.832C141.184 27.448 140.512 29.112 139.424 30.52C137.936 32.44 135.936 33.784 134.064 34.488L132.384 32.776C134.144 32.312 136.368 31.096 137.696 29.432C138.784 28.072 139.552 25.944 139.744 23.944L141.984 24.664ZM132.368 24.344C132.768 25.16 133.536 27.096 133.856 27.992L131.904 28.728C131.632 27.864 130.832 25.736 130.448 25.032L132.368 24.344Z" fill="#003E92"/>
<path d="M148.512 30.872V26.504C147.088 26.792 145.824 27.048 145.152 27.208L144.768 25.112C145.52 25.016 146.928 24.776 148.512 24.488V22.2C148.512 21.672 148.464 20.856 148.384 20.36H150.768C150.704 20.856 150.624 21.656 150.624 22.2V24.088C152.96 23.64 155.2 23.192 155.92 23.016C156.368 22.92 156.752 22.808 157.056 22.648L158.592 23.832C158.448 24.056 158.208 24.424 158.064 24.712C157.36 26.04 155.904 28.232 154.752 29.368L152.992 28.328C154.048 27.384 155.104 25.928 155.552 25.08C155.056 25.192 152.896 25.608 150.624 26.072V30.312C150.624 31.304 150.912 31.656 152.672 31.656C154.352 31.656 156.128 31.432 157.712 31.112L157.648 33.288C156.32 33.48 154.4 33.64 152.688 33.64C149.04 33.64 148.512 32.76 148.512 30.872Z" fill="#003E92"/>
<path d="M161.472 25.592C162.048 25.64 163.216 25.688 164.048 25.688H172.64C173.392 25.688 174.096 25.624 174.512 25.592V28.104C174.128 28.088 173.312 28.024 172.64 28.024H164.048C163.136 28.024 162.064 28.056 161.472 28.104V25.592Z" fill="#003E92"/>
<path d="M187.367 20.712C187.815 21.384 188.455 22.456 188.823 23.192L187.431 23.784C186.967 22.776 186.599 22.088 186.023 21.272L187.367 20.712ZM189.559 19.944C190.055 20.584 190.679 21.624 191.063 22.328L189.703 22.936C189.191 21.928 188.791 21.304 188.199 20.504L189.559 19.944ZM180.407 20.408C181.463 20.984 183.223 22.104 184.055 22.696L182.871 24.456C181.975 23.832 180.311 22.76 179.255 22.168L180.407 20.408ZM177.447 31.768C179.239 31.464 181.159 30.92 182.887 29.96C185.607 28.44 187.847 26.248 189.111 23.96L190.343 26.136C188.871 28.36 186.599 30.376 183.991 31.896C182.359 32.808 180.055 33.608 178.647 33.864L177.447 31.768ZM177.943 24.056C179.031 24.632 180.791 25.736 181.607 26.312L180.439 28.104C179.527 27.464 177.863 26.392 176.791 25.816L177.943 24.056Z" fill="#003E92"/>
<path d="M199.463 20.168C199.383 20.568 199.271 21.096 199.063 21.768C200.583 21.688 202.183 21.544 203.591 21.304L203.575 23.16C202.055 23.384 200.087 23.512 198.359 23.56C198.087 24.152 197.767 24.728 197.447 25.192C197.863 25 198.727 24.872 199.255 24.872C200.231 24.872 201.031 25.288 201.383 26.104C202.215 25.72 202.887 25.448 203.543 25.16C204.167 24.888 204.727 24.632 205.319 24.328L206.119 26.184C205.607 26.328 204.759 26.648 204.215 26.856C203.495 27.144 202.583 27.496 201.607 27.944C201.623 28.84 201.655 30.024 201.671 30.76H199.751C199.799 30.28 199.815 29.512 199.831 28.808C198.631 29.496 197.991 30.12 197.991 30.92C197.991 31.8 198.743 32.04 200.311 32.04C201.671 32.04 203.447 31.864 204.855 31.592L204.791 33.656C203.735 33.8 201.767 33.928 200.263 33.928C197.751 33.928 195.895 33.32 195.895 31.256C195.895 29.208 197.815 27.928 199.639 26.984C199.399 26.584 198.967 26.44 198.519 26.44C197.623 26.44 196.631 26.952 196.023 27.544C195.543 28.024 195.079 28.6 194.535 29.304L192.823 28.024C194.503 26.472 195.639 25.048 196.359 23.608C196.279 23.608 196.215 23.608 196.151 23.608C195.495 23.608 194.327 23.576 193.447 23.512V21.64C194.263 21.768 195.447 21.832 196.263 21.832C196.503 21.832 196.775 21.832 197.031 21.832C197.207 21.192 197.319 20.568 197.351 19.992L199.463 20.168Z" fill="#003E92"/>
<path d="M222.935 27.192H219.095C219.799 28.696 221.079 29.752 222.983 30.248C222.583 30.616 222.039 31.352 221.783 31.848C219.975 31.224 218.743 30.12 217.927 28.552C217.287 29.752 216.119 30.904 214.039 31.816C213.799 31.416 213.207 30.76 212.775 30.44C215.207 29.544 216.135 28.344 216.487 27.192H212.775V25.48H216.695V23.944H213.319V22.264H214.919C214.663 21.624 214.215 20.792 213.735 20.136L215.351 19.464C215.943 20.2 216.535 21.192 216.743 21.896L215.895 22.264H219.463L218.647 21.976C219.111 21.272 219.671 20.216 219.975 19.448L221.927 20.04C221.415 20.856 220.871 21.656 220.407 22.264H222.407V23.944H218.599V25.48H222.935V27.192ZM212.535 22.232L211.031 23.496C210.535 22.728 209.399 21.672 208.455 20.968L209.863 19.816C210.823 20.488 211.991 21.48 212.535 22.232ZM212.135 25.656V30.68C212.791 31.752 213.991 32.184 215.655 32.248C217.527 32.328 221.127 32.28 223.255 32.12C223.047 32.568 222.759 33.496 222.663 34.04C220.743 34.136 217.527 34.168 215.623 34.088C213.655 34.008 212.343 33.56 211.303 32.312C210.599 32.936 209.895 33.56 209.015 34.232L208.087 32.248C208.775 31.848 209.575 31.32 210.279 30.776V27.4H208.439V25.656H212.135Z" fill="#003E92"/>
<path d="M229.927 31.112C229.927 31.704 230.583 32.104 231.543 32.104C231.879 32.104 232.183 32.088 232.471 32.056C232.375 31.016 231.783 30.344 230.919 30.344C230.311 30.344 229.927 30.712 229.927 31.112ZM227.207 20.808C227.655 20.872 228.215 20.888 228.663 20.888C229.511 20.888 232.935 20.824 233.847 20.744C234.503 20.68 234.871 20.632 235.063 20.568L236.103 21.992C235.735 22.232 235.351 22.456 234.983 22.728C234.119 23.336 232.439 24.744 231.431 25.544C231.959 25.416 232.439 25.368 232.951 25.368C235.671 25.368 237.735 27.064 237.735 29.4C237.735 31.928 235.815 33.928 231.943 33.928C229.719 33.928 228.039 32.904 228.039 31.304C228.039 30.008 229.207 28.808 230.903 28.808C232.887 28.808 234.087 30.024 234.311 31.544C235.191 31.08 235.639 30.344 235.639 29.368C235.639 27.928 234.199 26.952 232.311 26.952C229.863 26.952 228.263 28.248 226.551 30.2L225.095 28.696C226.231 27.784 228.167 26.152 229.111 25.368C230.007 24.632 231.671 23.288 232.455 22.6C231.639 22.616 229.431 22.712 228.583 22.76C228.151 22.792 227.639 22.84 227.271 22.888L227.207 20.808Z" fill="#003E92"/>
<path d="M282 27L274 33V21L282 27Z" fill="#003E92"/>
<g clip-path="url(#clip0_245_3088)">
<path fill-rule="evenodd" clip-rule="evenodd" d="M40.3312 22.3581L42.5552 29.2089L55.3317 28.6001L51.0291 15.3464L40.3312 22.3581ZM41.0108 29.7102C41.1208 30.0491 41.3391 30.3425 41.6322 30.545C41.9253 30.7476 42.2769 30.8481 42.6328 30.8311L55.4088 30.2208C55.6581 30.2088 55.9012 30.1396 56.1194 30.0185C56.3376 29.8974 56.5249 29.7276 56.6668 29.5224C56.8087 29.3171 56.9014 29.0819 56.9377 28.835C56.974 28.5881 56.9529 28.3362 56.876 28.0988L52.5735 14.845C52.4964 14.6075 52.3656 14.391 52.1913 14.2123C52.017 14.0335 51.8038 13.8974 51.5682 13.8145C51.3327 13.7316 51.0813 13.7041 50.8334 13.7342C50.5856 13.7642 50.348 13.8511 50.1391 13.9879L39.4412 20.9996C39.1432 21.1949 38.9177 21.4828 38.7994 21.8188C38.6812 22.1549 38.6768 22.5206 38.7868 22.8594L41.0108 29.7102Z" fill="#003E92"/>
<path fill-rule="evenodd" clip-rule="evenodd" d="M38.0002 30.6568L41.1569 29.632L38.9509 22.8368L35.7896 23.8631C35.3005 25.0747 35.254 26.4199 35.6583 27.6623C36.0626 28.9048 36.8918 29.965 38.0002 30.6568ZM41.6582 31.1764C42.0678 31.0434 42.4078 30.7532 42.6034 30.3696C42.799 29.9859 42.8342 29.5403 42.7012 29.1307L40.4953 22.3355C40.3623 21.9259 40.0721 21.5859 39.6885 21.3903C39.3048 21.1947 38.8592 21.1595 38.4496 21.2925L34.9794 22.419C34.8637 22.4564 34.7569 22.5171 34.6656 22.5972C34.5742 22.6774 34.5001 22.7754 34.4479 22.8852C32.8216 26.2998 34.167 30.4074 37.479 32.2327C37.5869 32.2924 37.7059 32.3293 37.8287 32.3411C37.9514 32.3529 38.0753 32.3394 38.1927 32.3014L41.6582 31.1764Z" fill="#003E92"/>
<path fill-rule="evenodd" clip-rule="evenodd" d="M44.6754 31.1703L40.6586 31.9962L41.1085 38.525L45.1795 37.2035L44.6754 31.1703ZM40.3307 30.4075C39.9459 30.4865 39.6028 30.7023 39.3649 31.015C39.1271 31.3276 39.0107 31.7158 39.0372 32.1078L39.4886 38.6361C39.5055 38.8823 39.5783 39.1214 39.7015 39.3353C39.8247 39.5492 39.995 39.7322 40.1995 39.8704C40.404 40.0086 40.6373 40.0983 40.8817 40.1328C41.1261 40.1673 41.3751 40.1456 41.6099 40.0694L45.6808 38.7478C46.0293 38.6348 46.3294 38.4073 46.5322 38.1022C46.735 37.7971 46.8287 37.4324 46.798 37.0673L46.2939 31.0341C46.2749 30.805 46.2074 30.5826 46.0961 30.3816C45.9847 30.1806 45.8319 30.0055 45.6478 29.8679C45.4637 29.7303 45.2525 29.6333 45.0282 29.5834C44.8038 29.5336 44.5715 29.5319 44.3464 29.5785L40.3307 30.4075ZM58.3655 13.6717C58.5342 13.8053 58.6429 14.0004 58.6678 14.2142C58.6927 14.4279 58.6317 14.6428 58.4983 14.8116L56.6831 17.108C56.6182 17.1951 56.5365 17.2684 56.4428 17.3233C56.3491 17.3783 56.2454 17.4139 56.1377 17.4281C56.03 17.4422 55.9205 17.4346 55.8158 17.4057C55.7111 17.3768 55.6133 17.3271 55.5281 17.2597C55.443 17.1923 55.3722 17.1085 55.32 17.0133C55.2678 16.918 55.2352 16.8133 55.2242 16.7052C55.2133 16.5971 55.2241 16.488 55.256 16.3842C55.288 16.2804 55.3405 16.184 55.4104 16.1009L57.2256 13.8045C57.3592 13.6358 57.5543 13.527 57.768 13.5021C57.9818 13.4772 58.1967 13.5382 58.3655 13.6717ZM56.578 20.8705C56.5115 20.6657 56.5291 20.4429 56.6269 20.251C56.7247 20.0592 56.8947 19.9141 57.0995 19.8476L59.4161 19.0956C59.6209 19.0291 59.8437 19.0467 60.0355 19.1445C60.2273 19.2423 60.3725 19.4123 60.4389 19.6171C60.5054 19.8219 60.4878 20.0447 60.39 20.2365C60.2922 20.4284 60.1222 20.5735 59.9174 20.64L57.6009 21.392C57.3961 21.4585 57.1733 21.4409 56.9814 21.3431C56.7896 21.2453 56.6445 21.0753 56.578 20.8705ZM57.8767 24.2558C57.9169 24.1569 57.9762 24.0669 58.0511 23.991C58.1261 23.9151 58.2153 23.8547 58.3136 23.8132C58.4119 23.7718 58.5175 23.7502 58.6242 23.7495C58.7309 23.7489 58.8366 23.7694 58.9354 23.8096L61.6477 24.9077C61.8395 24.9937 61.9905 25.1507 62.0689 25.3458C62.1472 25.5408 62.1469 25.7586 62.068 25.9535C61.989 26.1483 61.8376 26.3048 61.6455 26.3903C61.4535 26.4757 61.2358 26.4833 61.0382 26.4115L58.3254 25.3119C58.1259 25.2313 57.9666 25.0747 57.8825 24.8767C57.7984 24.6787 57.7963 24.4553 57.8767 24.2558Z" fill="#003E92"/>
</g>
<defs>
<filter id="filter0_d_245_3088" x="0" y="0" width="315" height="59" filterUnits="userSpaceOnUse" color-interpolation-filters="sRGB">
<feFlood flood-opacity="0" result="BackgroundImageFix"/>
<feColorMatrix in="SourceAlpha" type="matrix" values="0 0 0 0 0 0 0 0 0 0 0 0 0 0 0 0 0 0 127 0" result="hardAlpha"/>
<feOffset dx="4" dy="4"/>
<feComposite in2="hardAlpha" operator="out"/>
<feColorMatrix type="matrix" values="0 0 0 0 0.521569 0 0 0 0 0.945098 0 0 0 0 0.941176 0 0 0 1 0"/>
<feBlend mode="normal" in2="BackgroundImageFix" result="effect1_dropShadow_245_3088"/>
<feBlend mode="normal" in="SourceGraphic" in2="effect1_dropShadow_245_3088" result="shape"/>
</filter>
<linearGradient id="paint0_linear_245_3088" x1="20.9235" y1="11" x2="311.566" y2="50.8772" gradientUnits="userSpaceOnUse">
<stop stop-color="#84F0EF"/>
<stop offset="1" stop-color="#D7F8AD"/>
</linearGradient>
<clipPath id="clip0_245_3088">
<rect width="32.4741" height="32.4741" fill="white" transform="translate(28 18.0273) rotate(-17.985)"/>
</clipPath>
</defs>
</svg>
