<svg width="20" height="19" viewBox="0 0 20 19" fill="none" xmlns="http://www.w3.org/2000/svg">
<path d="M20 9.55725C19.9998 7.73039 19.4519 5.94183 18.4211 4.40341C17.3903 2.86498 15.9199 1.64113 14.1839 0.87679C12.4479 0.112451 10.5191 -0.160358 8.6259 0.090672C6.73271 0.341702 4.95445 1.10605 3.50169 2.29321C2.04894 3.48037 0.982556 5.04059 0.428837 6.78912C-0.124881 8.53764 -0.142738 10.4012 0.377375 12.1591C0.897487 13.9171 1.93378 15.4957 3.36354 16.7081C4.79329 17.9205 6.55662 18.7159 8.44468 19V12.3189H5.88917V9.55725H8.44468V7.45109C8.44468 5.05592 9.92919 3.72755 12.2138 3.72755C12.9615 3.73805 13.7071 3.80518 14.4436 3.92829V6.26495H13.1921C11.9501 6.26495 11.5533 7.00841 11.5533 7.7643L11.556 9.55725H14.3335L13.8888 12.3189H11.5557V19C13.9091 18.6453 16.0528 17.4992 17.6008 15.7681C19.1488 14.037 19.9995 11.8345 19.9997 9.55725" fill="white"/>
</svg>
