<svg width="20" height="15" viewBox="0 0 20 15" fill="none" xmlns="http://www.w3.org/2000/svg">
<path fill-rule="evenodd" clip-rule="evenodd" d="M18.936 1.07374C19.2464 1.38602 19.4693 1.77435 19.5824 2.19985C20.1392 5.40546 20.1392 8.68305 19.5824 11.8887C19.4692 12.3141 19.2462 12.7024 18.9359 13.0146C18.6255 13.3269 18.2386 13.5522 17.8139 13.668C16.2513 14.0885 9.99805 14.0885 9.99805 14.0885C9.99805 14.0885 3.74537 14.0885 2.18619 13.668C1.76139 13.5523 1.37437 13.327 1.06399 13.0148C0.753617 12.7025 0.530712 12.3142 0.417584 11.8887C-0.139195 8.68305 -0.139195 5.40546 0.417584 2.19985C0.530395 1.77419 0.75322 1.38569 1.06365 1.07336C1.37407 0.761034 1.76123 0.535868 2.18619 0.420459C3.74537 0 9.99805 0 9.99805 0C9.99805 0 16.2541 0 17.8139 0.420459C18.2387 0.536184 18.6256 0.761457 18.936 1.07374ZM13.1828 7.04519L7.95641 10.0186V4.07175L13.1828 7.04519Z" fill="white"/>
</svg>
