<svg width="20" height="20" viewBox="0 0 20 20" fill="none" xmlns="http://www.w3.org/2000/svg">
<path d="M9.99971 0C7.28359 0 6.94327 0.0116538 5.87687 0.0582725C5.04713 0.0754728 4.22629 0.233098 3.4492 0.524459C2.78482 0.781448 2.18147 1.17441 1.67782 1.67817C1.17416 2.18192 0.781315 2.78536 0.524459 3.44978C0.232967 4.22664 0.0753365 5.0473 0.0582725 5.87687C0.00990558 6.94385 0 7.28417 0 10.0003C0 12.7164 0.0116538 13.0567 0.0582725 14.1231C0.0753494 14.9529 0.232978 15.7737 0.524459 16.5508C0.781226 17.2152 1.17405 17.8186 1.67772 18.3223C2.18139 18.826 2.78479 19.2188 3.4492 19.4755C4.22626 19.767 5.04711 19.9247 5.87687 19.9417C6.94327 19.9901 7.28417 20 9.99971 20C12.7152 20 13.0567 19.9883 14.1231 19.9417C14.9527 19.9246 15.7733 19.767 16.5502 19.4755C17.2148 19.2189 17.8184 18.8262 18.3221 18.3225C18.8259 17.8188 19.2188 17.2153 19.4755 16.5508C19.767 15.7737 19.9247 14.9529 19.9417 14.1231C19.9907 13.0567 20 12.7158 20 10.0003C20 7.28475 19.9883 6.94327 19.9417 5.87687C19.9246 5.04731 19.767 4.22666 19.4755 3.44978C19.2188 2.78521 18.8259 2.18166 18.3221 1.67788C17.8183 1.1741 17.2148 0.781222 16.5502 0.524459C15.7733 0.233043 14.9527 0.0754151 14.1231 0.0582725C13.0567 0.00990558 12.7158 0 9.99971 0ZM9.99971 1.80181C12.6698 1.80181 12.9862 1.8123 14.0404 1.86008C14.6746 1.86757 15.3028 1.98406 15.8976 2.20448C16.3289 2.37075 16.7207 2.62554 17.0476 2.95244C17.3745 3.27933 17.6292 3.67108 17.7955 4.10244C18.0159 4.6972 18.1324 5.3254 18.1399 5.95962C18.1883 7.01436 18.1982 7.33079 18.1982 10.0009C18.1982 12.671 18.1883 12.9874 18.1399 14.0415C18.1324 14.6758 18.0159 15.304 17.7955 15.8987C17.6293 16.3301 17.3745 16.7219 17.0476 17.0488C16.7207 17.3757 16.3289 17.6304 15.8976 17.7967C15.3028 18.0169 14.6746 18.1334 14.0404 18.1411C12.9862 18.1889 12.6698 18.1994 9.99971 18.1994C7.32962 18.1994 7.0132 18.1889 5.95903 18.1411C5.32484 18.1333 4.69667 18.0168 4.10186 17.7967C3.67066 17.6301 3.27906 17.3752 2.95221 17.0484C2.62535 16.7215 2.37045 16.3299 2.2039 15.8987C1.98362 15.3039 1.86713 14.6758 1.8595 14.0415C1.81172 12.9874 1.80123 12.671 1.80123 10.0009C1.80123 7.33079 1.81172 7.01436 1.8595 5.95962C1.86716 5.32541 1.98365 4.69723 2.2039 4.10244C2.37045 3.67125 2.62535 3.27965 2.95221 2.95279C3.27906 2.62593 3.67066 2.37104 4.10186 2.20448C4.69662 1.98414 5.32482 1.86765 5.95903 1.86008C7.0132 1.81172 7.32962 1.80181 9.99971 1.80181Z" fill="white"/>
<path d="M9.99843 13.3345C9.33906 13.3345 8.6945 13.1389 8.14625 12.7726C7.59801 12.4063 7.17071 11.8856 6.91838 11.2764C6.66605 10.6673 6.60003 9.99695 6.72866 9.35026C6.8573 8.70356 7.17482 8.10953 7.64106 7.64329C8.1073 7.17704 8.70133 6.85952 9.34803 6.73089C9.99473 6.60225 10.665 6.66828 11.2742 6.9206C11.8834 7.17293 12.4041 7.60024 12.7704 8.14848C13.1367 8.69672 13.3322 9.34128 13.3322 10.0007C13.3322 10.4385 13.246 10.872 13.0785 11.2764C12.9109 11.6809 12.6654 12.0484 12.3558 12.358C12.0462 12.6676 11.6787 12.9132 11.2742 13.0807C10.8697 13.2482 10.4362 13.3345 9.99843 13.3345ZM9.99843 4.8656C8.98269 4.8656 7.98977 5.1668 7.14522 5.73111C6.30067 6.29542 5.64243 7.0975 5.25372 8.03591C4.86502 8.97433 4.76332 10.0069 4.96147 11.0031C5.15963 11.9994 5.64875 12.9144 6.36699 13.6327C7.08522 14.3509 8.0003 14.84 8.99652 15.0382C9.99273 15.2363 11.0253 15.1346 11.9637 14.7459C12.9022 14.3572 13.7042 13.699 14.2685 12.8544C14.8329 12.0099 15.1341 11.017 15.1341 10.0012C15.1341 8.63918 14.593 7.33291 13.6299 6.36979C12.6667 5.40667 11.3605 4.8656 9.99843 4.8656Z" fill="white"/>
<path d="M16.5369 4.6621C16.5369 4.8994 16.4665 5.13138 16.3347 5.3287C16.2029 5.52601 16.0155 5.6798 15.7962 5.77061C15.577 5.86143 15.3357 5.88519 15.103 5.83889C14.8702 5.7926 14.6564 5.67832 14.4886 5.51052C14.3208 5.34272 14.2066 5.12893 14.1603 4.89618C14.114 4.66343 14.1377 4.42218 14.2285 4.20294C14.3194 3.98369 14.4731 3.7963 14.6705 3.66446C14.8678 3.53262 15.0997 3.46225 15.3371 3.46225C15.6553 3.46225 15.9605 3.58866 16.1855 3.81368C16.4105 4.03869 16.5369 4.34388 16.5369 4.6621Z" fill="white"/>
</svg>
