<svg width="262" height="163" viewBox="0 0 262 163" fill="none" xmlns="http://www.w3.org/2000/svg">
<g clip-path="url(#clip0_245_3123)">
<path d="M125.436 149.185H116.81L109.799 107.666H109.62L102.7 149.185H94.0746L84.5469 85.2015H94.254L98.836 125.819H99.0154L106.206 85.2015H113.217L120.675 126.808H120.854L125.257 85.2015H134.964L125.436 149.185Z" fill="white"/>
<path d="M14.0468 85.2015H28.7821C39.6577 85.2015 44.9574 91.5824 44.9574 103.981C44.9574 111.351 42.8918 116.742 37.0491 119.976L46.9356 149.18H37.2285L28.6899 121.863H23.2061V149.18H14.042V85.1967L14.0468 85.2015ZM23.2109 113.78H28.4233C34.8042 113.78 35.7933 110.187 35.7933 103.806C35.7933 97.4251 34.7169 93.8322 27.9772 93.8322H23.2158V113.78H23.2109Z" fill="white"/>
<path d="M28.6898 121.867H28.365C22.6677 138.838 24.3114 155.042 34.0186 159.944C48.715 167.358 67.0431 155.411 79.9552 134.081C92.8673 112.757 92.0091 88.9884 80.5274 81.8268C71.2857 76.0617 57.7191 81.0316 46.0628 92.9061C46.9064 95.185 47.8277 98.5985 47.8034 102.618C57.399 90.9278 68.842 85.1918 75.9454 89.6381C84.0088 94.6904 83.6015 113.062 73.264 130.139C62.9169 147.221 49.0399 157.273 38.6442 152.167C34.1252 149.946 32.3748 143.759 33.1022 135.968L28.6898 121.867Z" fill="#2483BE"/>
<path d="M139.391 85.2015H148.555V149.185H139.391V85.2015Z" fill="white"/>
<path d="M154.97 85.2015H163.775L177.613 123.754H177.793V85.2015H186.957V149.185H178.331L164.313 110.725H164.134V149.185H154.97V85.2015Z" fill="white"/>
<path d="M192.566 100.3C192.566 89.8757 200.475 84.6633 207.932 84.6633C215.389 84.6633 223.298 89.8757 223.298 100.3V103.534H214.133V100.3C214.133 95.8978 211.258 93.8322 207.932 93.8322C204.606 93.8322 201.73 95.8978 201.73 100.3V134.091C201.73 138.494 204.606 140.559 207.932 140.559C211.258 140.559 214.133 138.494 214.133 134.091V122.047H206.856V113.959H223.302V134.091C223.302 144.516 215.394 149.728 207.937 149.728C200.48 149.728 192.571 144.516 192.571 134.091V100.3H192.566Z" fill="white"/>
<path d="M232.947 84.6633L248.846 93.0952C250.45 93.9195 251.367 93.9195 253.151 93.9195C254.8 93.9195 256.768 93.9195 256.768 91.6309C256.768 90.2587 255.944 89.3423 254.431 89.3423H251.774V84.6682H254.339C258.233 84.6682 261.442 87.7859 261.442 91.6794C261.442 96.5378 257.593 98.5985 253.243 98.5985C250.082 98.5985 249.258 98.5064 246.465 97.0421L233.223 90.1714V98.6034H228.549V84.673H232.947V84.6633Z" fill="white"/>
<path d="M254.431 101.707C258.785 101.707 261.442 104.96 261.442 108.669C261.442 112.379 258.785 115.632 254.431 115.632H235.279C230.925 115.632 228.268 112.379 228.268 108.669C228.268 104.96 230.925 101.707 235.279 101.707H254.431ZM235.279 106.381C233.95 106.381 232.942 107.341 232.942 108.669C232.942 109.998 233.95 110.958 235.279 110.958H254.431C255.76 110.958 256.768 109.998 256.768 108.669C256.768 107.341 255.76 106.381 254.431 106.381H235.279Z" fill="white"/>
<path d="M232.947 118.75L248.846 127.182C250.45 128.006 251.367 128.006 253.151 128.006C254.8 128.006 256.768 128.006 256.768 125.717C256.768 124.345 255.944 123.429 254.431 123.429H251.774V118.755H254.339C258.233 118.755 261.442 121.872 261.442 125.766C261.442 130.624 257.593 132.685 253.243 132.685C250.082 132.685 249.258 132.593 246.465 131.128L233.223 124.258V132.69H228.549V118.759H232.947V118.75Z" fill="white"/>
<path d="M247.425 141.34C247.425 144.132 247.837 145.049 250.266 145.049H254.48C255.808 145.049 256.768 144.181 256.768 142.76C256.768 141.112 255.44 140.472 254.48 140.472H251.823V135.798H254.523C258.373 135.798 261.442 139.003 261.442 142.852C261.442 145.374 260.158 147.114 259.154 147.939C257.69 149.175 256.405 149.723 252.235 149.723C247.745 149.723 247.013 149.495 245.408 146.838C243.619 149.723 242.566 149.723 237.941 149.723C233.635 149.723 232.67 149.447 231.25 148.487C229.553 147.342 228.272 145.553 228.272 142.712C228.272 139.87 230.105 135.793 235.235 135.793H237.892V140.467H235.463C233.999 140.467 232.942 141.34 232.942 142.755C232.942 144.171 233.95 145.044 235.555 145.044H240.229C242.751 145.044 243.299 144.356 243.299 141.335H247.42L247.425 141.34Z" fill="white"/>
<path d="M8.50464 22.1538C8.50464 22.5707 7.37974 23.5211 6.90456 23.6375C6.31302 23.7781 4.44627 21.3828 4.44627 20.641C4.44627 19.7827 6.04634 16.1365 6.7591 15.4577C9.81379 12.6163 12.0927 10.4393 15.2346 7.54459C15.5013 7.30216 17.1014 5.6439 17.4263 5.56147C17.9305 5.44025 19.3512 6.16271 19.3512 6.60879C19.3512 6.87547 17.9887 8.77616 17.6638 9.62469C16.8056 11.9084 15.1134 19.9912 13.4261 26.5079C13.8091 26.3867 14.1388 26.2752 14.4055 26.2121C15.0601 26.057 16.6893 26.2558 16.6893 26.7891C16.6893 27.2934 15.9474 28.7771 15.5013 28.8838C15.0261 29.0001 13.78 28.3795 13.3679 28.4813C13.2176 28.5153 13.0721 28.554 12.8636 28.6316C12.18 31.1093 11.5011 33.17 10.9096 34.3483C10.0514 36.0356 7.50095 37.8975 5.95906 38.266C4.27171 38.6733 0 37.3011 0 36.1714C0 35.1337 1.21703 32.8839 2.13343 32.2197C3.7626 31.0269 6.90456 29.3492 9.69257 28.0837C11.2054 22.0568 12.9509 13.8382 13.6928 12.0296C14.1097 11.0405 14.7304 10.032 14.7304 10.032C13.1012 11.6708 10.2259 14.7934 8.35917 17.1111C8.0634 17.4796 7.76763 18.619 7.76763 19.2106C7.76763 19.8943 8.50948 21.7319 8.50948 22.1441L8.50464 22.1538ZM9.12527 30.2462C7.17124 31.1917 5.12509 32.307 4.11655 33.17C3.69956 33.5094 3.40379 34.0234 3.40379 34.3774C3.40379 35.3859 5.09114 36.7872 5.89603 36.5932C6.4003 36.472 7.5252 34.9543 7.94219 33.9943C8.26705 33.204 8.68404 31.8609 9.13012 30.2414L9.12527 30.2462Z" fill="#CA191D"/>
<path d="M32.8745 15.3654C33.2624 15.2733 33.8831 15.5981 33.8831 15.9521C33.8831 16.306 33.5 17.0818 33.5 17.0818C31.8708 20.4371 30.1205 23.5597 27.987 24.0737C26.6536 24.3937 24.1953 23.8603 23.9577 23.0894C23.9577 23.0894 22.1783 25.475 20.6655 25.8386C19.303 26.1683 16.8398 24.8931 16.8398 23.293C16.8398 19.3801 20.3649 11.981 23.0656 11.3264C25.4366 10.7543 26.9494 12.1701 26.9494 12.1701C27.7203 11.9858 29.4998 11.7628 29.4998 12.5047C29.4998 13.5423 27.4828 18.9486 27.4828 21.3196C27.4828 21.7075 28.0161 22.0227 28.2828 21.9548C29.1701 21.7415 30.775 19.0698 32.2248 16.0539C32.2248 16.0539 32.4915 15.4575 32.8745 15.3654ZM24.1614 13.4308C22.6777 13.7896 20.3067 19.8456 20.3067 22.4542C20.3067 23.1379 20.84 23.5112 21.3443 23.39C21.9358 23.2494 23.4195 21.853 24.2487 19.9329C24.8402 18.5462 25.7615 14.7351 25.7615 13.9059C25.7615 13.4308 24.6366 13.3192 24.1614 13.4308Z" fill="#CA191D"/>
<path d="M37.7034 21.7319C35.4197 22.2798 33.8778 21.2907 33.8778 21.2907C33.8778 21.2907 32.4232 27.8655 32.2195 29.3395C32.1322 29.7468 31.9528 30.0571 31.4777 30.1687C30.7358 30.3481 29.1357 29.9893 29.1357 29.2232C29.1357 28.1855 32.6947 13.4552 33.7905 9.3677C33.8778 8.93131 34.3239 8.61615 34.7409 8.51917C35.2451 8.39796 36.8161 9.77014 36.8161 9.77014C36.8161 9.77014 38.5665 7.59792 40.2829 7.18578C41.5872 6.87061 43.7788 8.00521 43.7788 9.51316C43.7788 11.2345 43.2455 13.8818 42.1206 16.4662C42.1206 16.4662 42.5958 16.4662 42.8915 16.3983C44.9959 15.8892 46.3875 12.6503 46.3875 12.6503C46.3875 12.6503 46.6541 12.0539 47.0081 11.9666C47.4251 11.8648 48.0748 12.1848 48.0748 12.5388C48.0748 12.8927 47.6578 13.6782 47.6578 13.6782C47.6578 13.6782 45.8492 17.6105 42.0866 18.5172C41.7327 18.6045 40.9908 18.7499 40.9908 18.7499C40.1035 20.1221 38.9156 21.4458 37.6986 21.7368L37.7034 21.7319ZM36.8452 19.773C37.141 19.7003 37.5289 19.3415 37.7955 18.9536C37.2622 18.8469 36.9082 18.6627 36.9082 18.3378C36.9082 17.7172 38.1543 16.1995 38.8041 16.0444C38.9253 16.0153 39.0417 16.0153 39.158 15.9862C39.8078 14.0225 40.2829 11.8308 40.2829 10.7059C40.2829 10.1144 39.6332 9.67802 39.158 9.78954C38.4162 9.96894 36.5785 11.8066 36.1324 13.2176C35.5409 15.0213 34.799 17.659 34.799 18.6384C34.799 19.4385 35.8658 20.0106 36.8452 19.7779V19.773Z" fill="#CA191D"/>
<path d="M61.685 8.42221C62.0681 8.33008 62.6936 8.65494 62.6936 9.0089C62.6936 9.36286 62.3057 10.1386 62.3057 10.1386C60.6765 13.494 58.9261 16.6165 56.7927 17.1305C55.4593 17.4505 53.001 16.9171 52.7634 16.1462C52.7634 16.1462 50.9839 18.5318 49.4711 18.8954C48.1087 19.2251 45.6455 17.9499 45.6455 16.3498C45.6455 12.4369 49.1705 5.03781 51.8713 4.38323C54.2423 3.81108 55.7551 5.22691 55.7551 5.22691C56.526 5.04266 58.3055 4.81962 58.3055 5.56147C58.3055 6.59909 56.2884 12.0054 56.2884 14.3764C56.2884 14.7643 56.8218 15.0795 57.0885 15.0116C57.9758 14.7983 59.5807 12.1266 61.0305 9.11072C61.0305 9.11072 61.2971 8.51433 61.685 8.41736V8.42221ZM52.9719 6.48757C51.4882 6.84638 49.1172 12.9024 49.1172 15.511C49.1172 16.1947 49.6505 16.568 50.1548 16.4468C50.7464 16.3062 52.2301 14.9098 53.0592 12.9897C53.6507 11.603 54.572 7.79187 54.572 6.96274C54.572 6.48757 53.4471 6.37605 52.9719 6.48757Z" fill="#CA191D"/>
<path d="M71.3487 11.5787C72.2361 11.3654 73.841 8.69373 75.2907 5.67783C75.2907 5.67783 75.5574 5.08144 75.9405 4.98447C76.3284 4.89234 76.949 5.2172 76.949 5.57116C76.949 5.92512 76.5611 6.70091 76.5611 6.70091C74.9319 10.0562 73.1816 13.1788 71.0481 13.6927C69.7147 14.0128 67.0479 13.4115 67.0479 12.0781C67.0479 10.1823 68.7062 5.0378 68.7062 3.9129C68.7062 3.40863 68.2019 3.02559 67.8189 3.11771C67.1983 3.26802 65.5351 4.40747 65.0939 5.64389C64.323 7.78702 62.9605 14.1049 62.7811 15.0067C62.6647 15.4189 62.5726 15.7389 62.1314 15.8456C61.4477 16.0104 59.7021 15.6904 59.7021 14.8904C59.7021 14.0903 61.9568 4.59657 62.5774 2.4292C62.7568 1.97342 63.1399 1.6728 63.586 1.56613C64.0902 1.44491 65.4818 2.85588 65.4818 2.85588C65.4818 2.85588 68.3862 0.407284 69.9281 0.0339335C70.8154 -0.17941 72.4203 0.64972 72.4203 1.74553C72.4203 3.13711 70.5827 9.36285 70.5827 10.9338C70.5827 11.3217 71.0869 11.6417 71.3536 11.5787H71.3487Z" fill="#CA191D"/>
<path d="M16.7859 36.8067V50.994C16.7859 52.2789 17.4017 53.1566 18.5751 53.1566C19.7485 53.1566 20.3642 52.2741 20.3642 50.994V36.8067H23.0359V50.5916C23.0359 54.7081 20.5776 55.7749 18.5751 55.7749C16.5726 55.7749 14.1143 54.7081 14.1143 50.5916V36.8067H16.7859Z" fill="white"/>
<path d="M28.782 36.8066L33.2428 48.5599V36.8066H35.9144V55.5081H33.2428L28.782 43.7548V55.5081H26.1104V36.8066H28.782Z" fill="white"/>
<path d="M41.6599 36.8067V55.5082H38.9883V36.8067H41.6599Z" fill="white"/>
<path d="M49.6988 55.5082H47.3472L43.3906 36.8067H46.3289L48.4915 49.7382H48.5981L50.8431 36.8067H53.6505L49.6988 55.5082Z" fill="white"/>
<path d="M55.3916 36.8066H63.3289V39.3474H58.0681V44.8506H62.718V47.2556H58.0681V52.9722H63.4114V55.5081H55.3965V36.8066H55.3916Z" fill="white"/>
<path d="M69.3074 36.8069C70.6699 36.8069 72.6482 36.7245 73.904 38.2761C74.5198 39.0228 74.8932 40.1477 74.8932 41.5344V42.9502C74.8932 44.1527 74.4665 45.2728 73.904 45.9176C73.5016 46.3734 72.9682 46.6934 72.4882 46.8777L75.4265 55.5084H72.6482L70.059 47.4401H68.4832V55.5084H65.8115V36.8069H69.3123H69.3074ZM68.4783 45.0352H70.0008C70.5875 45.0352 71.15 44.8994 71.6591 44.4194C72.1924 43.9103 72.2215 43.4593 72.2215 42.7369V41.4035C72.2215 40.681 71.9548 40.041 71.6057 39.6919C71.0724 39.1585 70.4323 39.2119 69.8699 39.2119H68.4783V45.0352Z" fill="white"/>
<path d="M83.737 41.4809C83.737 41.0784 83.7079 40.3075 83.2812 39.7693C83.0387 39.4735 82.6411 39.1535 81.8654 39.1535C81.492 39.1535 80.9829 39.2359 80.5562 39.6626C80.0471 40.196 79.9938 40.9427 79.9938 41.5585C79.9938 42.0676 80.0762 42.9985 80.4204 43.5076C80.7162 43.9634 81.2496 44.1768 81.652 44.3368L83.2812 44.9235C84.0812 45.2192 85.017 45.5635 85.7104 46.5284C86.4328 47.5175 86.5104 48.5842 86.5104 49.7625V50.4025C86.5104 52.2983 86.0013 53.7433 85.2255 54.5433C84.5322 55.2658 83.3006 55.77 81.7538 55.77C79.858 55.77 78.6264 54.9942 78.0155 54.1409C77.1621 52.9917 77.1621 51.2268 77.1621 50.9892V50.3734H79.8337V50.8825C79.8337 51.3092 79.8871 52.0559 80.2604 52.5408C80.7162 53.1032 81.3805 53.1566 81.7296 53.1566C82.743 53.1566 83.1988 52.7541 83.4121 52.4874C83.8145 51.9783 83.8388 51.2074 83.8388 50.6449V49.9516C83.8388 49.3115 83.7564 48.5067 83.4121 48.0266C83.063 47.5466 82.423 47.3042 82.1272 47.1975L80.178 46.5041C79.218 46.155 78.2531 45.675 77.7197 44.4192C77.3464 43.5658 77.3173 42.63 77.3173 41.6942V41.1609C77.3173 39.6093 77.9331 38.4359 78.704 37.6892C79.5865 36.8358 80.7065 36.54 81.9381 36.54C84.6097 36.54 86.3989 38.2759 86.3989 41.3742V41.99H83.7273V41.4809H83.737Z" fill="white"/>
<path d="M91.8582 36.8066V55.5081H89.1865V36.8066H91.8582Z" fill="white"/>
<path d="M103.156 36.8066V39.3474H99.8446V55.5081H97.173V39.3474H93.8613V36.8066H103.156Z" fill="white"/>
<path d="M110.424 47.629V55.5082H107.753V47.5466L103.825 36.8067H106.764L109.086 44.2349H109.246L111.515 36.8067H114.347L110.419 47.629H110.424Z" fill="white"/>
<path d="M125.678 41.0542C125.678 40.6808 125.571 40.1717 125.329 39.8226C125.193 39.6335 124.795 39.1535 123.937 39.1535C123.244 39.1535 122.817 39.4493 122.545 39.7693C122.119 40.3026 122.09 40.9718 122.09 41.6118V50.8292C122.09 51.445 122.09 52.0026 122.439 52.4874C122.628 52.7541 123.055 53.1566 123.801 53.1566C124.388 53.1566 124.975 52.9432 125.3 52.5165C125.435 52.3323 125.673 51.9007 125.673 50.994V50.3249H128.345V51.1007C128.345 52.9432 127.705 54.0148 127.224 54.5191C126.662 55.1348 125.566 55.7749 123.724 55.7749C121.881 55.7749 120.945 55.0524 120.359 54.359C119.399 53.239 119.423 51.9541 119.423 50.994V41.2966C119.423 40.0699 119.583 38.6783 120.785 37.6358C121.615 36.8891 122.841 36.54 123.83 36.54C124.95 36.54 126.26 36.9667 127.064 37.7425C127.734 38.4116 128.267 39.5317 128.267 40.8408V42.1209H125.678V41.0542Z" fill="white"/>
<path d="M133.693 36.8067V44.8459H137.301V36.8067H139.972V55.5082H137.301V47.2508H133.693V55.5082H131.021V36.8067H133.693Z" fill="white"/>
<path d="M149.558 55.5082L148.676 51.4983H145.257L144.375 55.5082H141.703L145.791 36.8067H148.142L152.23 55.5082H149.558ZM146.911 42.0142L145.524 49.1224H148.356L146.911 42.0142Z" fill="white"/>
<path d="M153.966 36.8067H156.637L160.322 47.1199H160.429L163.93 36.8067H166.601V55.5082H163.93V43.8083H163.794L160.987 52.2499H159.571L156.763 43.8083H156.628V55.5082H153.956V36.8067H153.966Z" fill="white"/>
<path d="M169.676 36.8066H173.657C174.806 36.8066 176.222 36.86 177.395 38.0382C178.626 39.294 178.757 40.9232 178.757 42.3148V42.8481C178.757 43.8906 178.651 45.4373 177.608 46.6398C176.512 47.8956 175.072 48.109 173.923 48.109H172.347V55.5081H169.676V36.8066ZM172.347 45.704H173.792C174.301 45.704 175.024 45.6216 175.582 45.0107C176.144 44.3949 176.091 43.7548 176.091 43.0857V41.8541C176.091 41.2141 176.115 40.3026 175.368 39.6916C174.752 39.1825 174.006 39.2116 173.283 39.2116H172.347V45.704Z" fill="white"/>
<path d="M183.703 36.8067V55.5082H181.031V36.8067H183.703Z" fill="white"/>
<path d="M186.665 41.7233C186.665 40.3075 186.772 38.945 188.057 37.7425C188.857 36.9958 189.952 36.54 191.344 36.54C192.736 36.54 193.827 36.9958 194.631 37.7425C195.916 38.945 196.023 40.3075 196.023 41.7233V50.5916C196.023 52.0074 195.916 53.3699 194.631 54.5724C193.831 55.3191 192.736 55.7749 191.344 55.7749C189.952 55.7749 188.862 55.3191 188.057 54.5724C186.772 53.3699 186.665 52.0074 186.665 50.5916V41.7233ZM193.342 41.3209C193.342 40.7584 193.288 40.2008 192.779 39.6917C192.483 39.3959 192.003 39.1583 191.334 39.1583C190.665 39.1583 190.185 39.4008 189.894 39.6917C189.385 40.2008 189.332 40.7584 189.332 41.3209V50.994C189.332 51.5565 189.385 52.1141 189.894 52.6232C190.19 52.919 190.67 53.1566 191.334 53.1566C191.999 53.1566 192.483 52.9141 192.779 52.6232C193.288 52.1141 193.342 51.5565 193.342 50.994V41.3209Z" fill="white"/>
<path d="M201.653 36.8066L206.114 48.5599V36.8066H208.786V55.5081H206.114L201.653 43.7548V55.5081H198.981V36.8066H201.653Z" fill="white"/>
<path d="M218.032 41.4809C218.032 41.0784 218.003 40.3075 217.576 39.7693C217.334 39.4735 216.936 39.1535 216.16 39.1535C215.787 39.1535 215.278 39.2359 214.851 39.6626C214.342 40.196 214.289 40.9427 214.289 41.5585C214.289 42.0676 214.371 42.9985 214.715 43.5076C215.011 43.9634 215.544 44.1768 215.947 44.3368L217.576 44.9235C218.376 45.2192 219.312 45.5635 220.005 46.5284C220.728 47.5175 220.805 48.5842 220.805 49.7625V50.4025C220.805 52.2983 220.296 53.7433 219.52 54.5433C218.827 55.2658 217.595 55.77 216.049 55.77C214.153 55.77 212.921 54.9942 212.31 54.1409C211.457 52.9917 211.457 51.2268 211.457 50.9892V50.3734H214.129V50.8825C214.129 51.3092 214.182 52.0559 214.555 52.5408C215.011 53.1032 215.675 53.1566 216.025 53.1566C217.038 53.1566 217.494 52.7541 217.707 52.4874C218.109 51.9783 218.134 51.2074 218.134 50.6449V49.9516C218.134 49.3115 218.051 48.5067 217.707 48.0266C217.358 47.5466 216.718 47.3042 216.422 47.1975L214.473 46.5041C213.513 46.155 212.548 45.675 212.015 44.4192C211.641 43.5658 211.612 42.63 211.612 41.6942V41.1609C211.612 39.6093 212.228 38.4359 212.999 37.6892C213.881 36.8358 215.001 36.54 216.233 36.54C218.905 36.54 220.694 38.2759 220.694 41.3742V41.99H218.022V41.4809H218.032Z" fill="white"/>
<path d="M226.153 36.8067V44.8459H229.761V36.8067H232.432V55.5082H229.761V47.2508H226.153V55.5082H223.481V36.8067H226.153Z" fill="white"/>
<path d="M238.174 36.8066V55.5081H235.502V36.8066H238.174Z" fill="white"/>
<path d="M241.247 36.8067H245.228C246.377 36.8067 247.793 36.86 248.966 38.0383C250.198 39.2941 250.329 40.9233 250.329 42.3148V42.8482C250.329 43.8907 250.222 45.4374 249.18 46.6399C248.084 47.8957 246.644 48.1091 245.495 48.1091H243.919V55.5082H241.247V36.8067ZM243.919 45.7041H245.359C245.868 45.7041 246.59 45.6217 247.148 45.0107C247.71 44.3949 247.657 43.7549 247.657 43.0858V41.8542C247.657 41.2142 247.681 40.3026 246.935 39.6917C246.319 39.1826 245.572 39.2117 244.85 39.2117H243.914V45.7041H243.919Z" fill="white"/>
<path d="M258.77 41.4809C258.77 41.0784 258.741 40.3075 258.314 39.7693C258.072 39.4735 257.674 39.1535 256.899 39.1535C256.525 39.1535 256.016 39.2359 255.589 39.6626C255.08 40.196 255.027 40.9427 255.027 41.5585C255.027 42.0676 255.109 42.9985 255.454 43.5076C255.749 43.9634 256.283 44.1768 256.685 44.3368L258.314 44.9235C259.114 45.2192 260.05 45.5635 260.744 46.5284C261.466 47.5175 261.544 48.5842 261.544 49.7625V50.4025C261.544 52.2983 261.035 53.7433 260.259 54.5433C259.565 55.2658 258.334 55.77 256.787 55.77C254.891 55.77 253.66 54.9942 253.049 54.1409C252.195 52.9917 252.195 51.2268 252.195 50.9892V50.3734H254.867V50.8825C254.867 51.3092 254.92 52.0559 255.294 52.5408C255.749 53.1032 256.414 53.1566 256.763 53.1566C257.776 53.1566 258.232 52.7541 258.445 52.4874C258.848 51.9783 258.872 51.2074 258.872 50.6449V49.9516C258.872 49.3115 258.79 48.5067 258.445 48.0266C258.096 47.5466 257.456 47.3042 257.16 47.1975L255.211 46.5041C254.251 46.155 253.286 45.675 252.753 44.4192C252.38 43.5658 252.35 42.63 252.35 41.6942V41.1609C252.35 39.6093 252.966 38.4359 253.737 37.6892C254.62 36.8358 255.74 36.54 256.971 36.54C259.643 36.54 261.432 38.2759 261.432 41.3742V41.99H258.76V41.4809H258.77Z" fill="white"/>
<path d="M14.2119 65.5886C14.2119 64.4395 14.2992 63.3388 15.3368 62.3642C15.9865 61.7581 16.8739 61.3896 17.9988 61.3896C19.1237 61.3896 20.011 61.7581 20.6607 62.3642C21.6983 63.3388 21.7856 64.4443 21.7856 65.5886V72.7744C21.7856 73.9236 21.6983 75.0242 20.6607 75.9988C20.011 76.6049 19.1237 76.9734 17.9988 76.9734C16.8739 76.9734 15.9865 76.6049 15.3368 75.9988C14.2992 75.0242 14.2119 73.9187 14.2119 72.7744V65.5886ZM19.6231 65.2638C19.6231 64.808 19.5794 64.3522 19.1673 63.9449C18.9297 63.7073 18.5418 63.5134 17.9988 63.5134C17.4557 63.5134 17.0678 63.7073 16.8302 63.9449C16.4181 64.3571 16.3744 64.8128 16.3744 65.2638V73.0993C16.3744 73.5551 16.4181 74.0108 16.8302 74.4181C17.0678 74.6557 17.4557 74.8497 17.9988 74.8497C18.5418 74.8497 18.9297 74.6557 19.1673 74.4181C19.5794 74.006 19.6231 73.5502 19.6231 73.0993V65.2638Z" fill="white"/>
<path d="M25.8535 61.603L27.5845 66.3644L29.3397 61.603H31.7205L28.7337 68.7451L32.0259 76.7552H29.7325L27.5894 71.2762L25.5965 76.7552H23.2158L26.4645 68.7451L23.5649 61.603H25.8584H25.8535Z" fill="white"/>
<path d="M33.5391 61.603H40.1188V63.6588H35.7016V68.2069H39.5757V70.2628H35.7016V76.7552H33.5391V61.603Z" fill="white"/>
<path d="M41.7676 65.5886C41.7676 64.4395 41.8549 63.3388 42.8925 62.3642C43.5422 61.7581 44.4295 61.3896 45.5544 61.3896C46.6793 61.3896 47.5666 61.7581 48.2164 62.3642C49.254 63.3388 49.3413 64.4443 49.3413 65.5886V72.7744C49.3413 73.9236 49.254 75.0242 48.2164 75.9988C47.5666 76.6049 46.6793 76.9734 45.5544 76.9734C44.4295 76.9734 43.5422 76.6049 42.8925 75.9988C41.8549 75.0242 41.7676 73.9187 41.7676 72.7744V65.5886ZM47.1787 65.2638C47.1787 64.808 47.1351 64.3522 46.723 63.9449C46.4854 63.7073 46.0975 63.5134 45.5544 63.5134C45.0114 63.5134 44.6235 63.7073 44.3859 63.9449C43.9737 64.3571 43.9301 64.8128 43.9301 65.2638V73.0993C43.9301 73.5551 43.9737 74.0108 44.3859 74.4181C44.6235 74.6557 45.0114 74.8497 45.5544 74.8497C46.0975 74.8497 46.4854 74.6557 46.723 74.4181C47.1351 74.006 47.1787 73.5502 47.1787 73.0993V65.2638Z" fill="white"/>
<path d="M54.5826 61.6031C55.6881 61.6031 57.2882 61.54 58.3064 62.7958C58.8058 63.4019 59.1065 64.3086 59.1065 65.4384V66.5875C59.1065 67.5621 58.7622 68.4688 58.3064 68.9925C57.9816 69.361 57.55 69.618 57.1573 69.7731L59.538 76.765H57.2882L55.1887 70.2289H53.9135V76.765H51.751V61.6128H54.5875L54.5826 61.6031ZM53.9135 68.27H55.1451C55.6202 68.27 56.076 68.1634 56.4882 67.7706C56.9197 67.3585 56.9439 66.99 56.9439 66.4081V65.3269C56.9439 64.7402 56.7258 64.2214 56.4445 63.9401C56.013 63.5086 55.4942 63.5522 55.0384 63.5522H53.9135V68.27Z" fill="white"/>
<path d="M64.1923 61.603C65.1039 61.603 66.3985 61.6466 67.3537 62.5145C68.4592 63.5328 68.5222 65.1329 68.5222 65.7826V72.4738C68.5222 73.5114 68.4156 74.6169 67.5476 75.5673C66.5973 76.6049 65.3415 76.7601 64.4929 76.7601H61.2686V61.6078H64.1923V61.603ZM63.4359 74.6363H64.4105C64.8663 74.6363 65.4287 74.5733 65.8603 74.1175C66.3161 73.6181 66.3597 72.8423 66.3597 72.3429V65.6323C66.3597 65.2007 66.2967 64.6577 65.9476 64.2262C65.5354 63.7267 65.0796 63.7267 64.5414 63.7267H63.4359V74.6363Z" fill="white"/>
<path d="M74.9951 61.603H77.1576L80.1444 69.9573H80.2317L83.0682 61.603H85.2307V76.7552H83.0682V67.2711H82.9616L80.6875 74.1127H79.5384L77.2643 67.2711H77.1576V76.7552H74.9951V61.603Z" fill="white"/>
<path d="M87.7236 61.603H94.153V63.6589H89.8862V68.1197H93.6536V70.0689H89.8862V74.6994H94.2161V76.7552H87.7236V61.603Z" fill="white"/>
<path d="M96.165 61.603H98.3276L101.314 69.9573H101.402L104.238 61.603H106.401V76.7552H104.238V67.2711H104.131L101.857 74.1127H100.708L98.4342 67.2711H98.3276V76.7552H96.165V61.603Z" fill="white"/>
<path d="M108.806 65.5886C108.806 64.4395 108.893 63.3388 109.931 62.3642C110.58 61.7581 111.468 61.3896 112.593 61.3896C113.717 61.3896 114.605 61.7581 115.254 62.3642C116.292 63.3388 116.379 64.4443 116.379 65.5886V72.7744C116.379 73.9236 116.292 75.0242 115.254 75.9988C114.605 76.6049 113.717 76.9734 112.593 76.9734C111.468 76.9734 110.58 76.6049 109.931 75.9988C108.893 75.0242 108.806 73.9187 108.806 72.7744V65.5886ZM114.217 65.2638C114.217 64.808 114.173 64.3522 113.761 63.9449C113.523 63.7073 113.136 63.5134 112.593 63.5134C112.049 63.5134 111.662 63.7073 111.424 63.9449C111.012 64.3571 110.968 64.8128 110.968 65.2638V73.0993C110.968 73.5551 111.012 74.0108 111.424 74.4181C111.662 74.6557 112.049 74.8497 112.593 74.8497C113.136 74.8497 113.523 74.6557 113.761 74.4181C114.173 74.006 114.217 73.5502 114.217 73.0993V65.2638Z" fill="white"/>
<path d="M121.621 61.603C122.726 61.603 124.326 61.54 125.345 62.7958C125.844 63.4019 126.145 64.3086 126.145 65.4383V66.5875C126.145 67.5621 125.8 68.4688 125.345 68.9924C125.02 69.3609 124.588 69.6179 124.195 69.7731L126.576 76.7649H124.326L122.227 70.2288H120.952V76.7649H118.789V61.6127H121.626L121.621 61.603ZM120.952 68.27H122.183C122.658 68.27 123.114 68.1633 123.526 67.7705C123.958 67.3584 123.982 66.9899 123.982 66.4081V65.3268C123.982 64.7401 123.764 64.2213 123.483 63.9401C123.051 63.5085 122.532 63.5522 122.076 63.5522H120.952V68.27Z" fill="white"/>
<path d="M130.474 61.603V76.7552H128.312V61.603H130.474Z" fill="white"/>
<path d="M138.246 76.7601L137.534 73.5115H134.765L134.052 76.7601H131.89L135.201 61.6079H137.107L140.419 76.7601H138.256H138.246ZM136.103 65.8263L134.978 71.5866H137.272L136.103 65.8263Z" fill="white"/>
<path d="M143.983 61.603V74.6994H148.57V76.7552H141.815V61.603H143.978H143.983Z" fill="white"/>
<path d="M154.155 61.603H157.38C158.311 61.603 159.46 61.6466 160.41 62.597C161.404 63.6152 161.516 64.9341 161.516 66.059V66.4905C161.516 67.3342 161.428 68.59 160.585 69.5646C159.697 70.5828 158.529 70.7574 157.598 70.7574H156.323V76.7552H154.16V61.603H154.155ZM156.318 68.813H157.486C157.898 68.813 158.48 68.75 158.936 68.2506C159.392 67.7512 159.348 67.2323 159.348 66.6941V65.7002C159.348 65.1813 159.368 64.4443 158.762 63.9449C158.262 63.5328 157.656 63.557 157.074 63.557H156.318V68.8179V68.813Z" fill="white"/>
<path d="M165.521 61.603V74.6994H170.108V76.7552H163.354V61.603H165.516H165.521Z" fill="white"/>
<path d="M177.342 76.7601L176.629 73.5114H173.861L173.148 76.7601H170.985L174.297 61.6078H176.203L179.514 76.7601H177.352H177.342ZM175.199 65.8262L174.074 71.5865H176.367L175.199 65.8262Z" fill="white"/>
<path d="M187.583 61.603V63.6589H184.897V76.7552H182.734V63.6589H180.048V61.603H187.583Z" fill="white"/>
<path d="M189.202 61.603H195.632V63.6589H191.365V68.1197H195.132V70.0689H191.365V74.6994H195.695V76.7552H189.202V61.603Z" fill="white"/>
<path d="M204.117 61.6031C205.222 61.6031 206.822 61.54 207.841 62.7958C208.34 63.4019 208.641 64.3086 208.641 65.4384V66.5875C208.641 67.5621 208.296 68.4688 207.841 68.9925C207.516 69.361 207.084 69.618 206.691 69.7731L209.072 76.765H206.822L204.723 70.2289H203.448V76.765H201.285V61.6128H204.122L204.117 61.6031ZM203.448 68.27H204.679C205.154 68.27 205.61 68.1634 206.022 67.7706C206.454 67.3585 206.478 66.99 206.478 66.4081V65.3269C206.478 64.7402 206.26 64.2214 205.979 63.9401C205.547 63.5086 205.028 63.5522 204.573 63.5522H203.448V68.27Z" fill="white"/>
<path d="M210.808 61.603H217.237V63.6588H212.97V68.1197H216.738V70.0688H212.97V74.6994H217.3V76.7552H210.808V61.603Z" fill="white"/>
<path d="M225.073 75.5915C224.772 76.1346 224.36 76.4352 224.035 76.6097C223.41 76.954 222.716 76.9782 222.348 76.9782C221.567 76.9782 220.66 76.7843 219.943 75.897C219.249 75.0291 219.162 73.9478 219.162 73.2544V65.5886C219.162 64.6771 219.206 63.751 219.875 62.82C220.743 61.6078 222.105 61.3896 222.925 61.3896C224.05 61.3896 225.005 61.7581 225.611 62.3642C226.217 62.9703 226.716 63.9207 226.716 65.3317V65.9377H224.554V65.1813C224.554 64.8128 224.51 64.3377 224.122 63.9498C223.904 63.7316 223.536 63.5182 222.954 63.5182C222.372 63.5182 222.003 63.7558 221.742 64.0613C221.329 64.5607 221.329 65.1232 221.329 65.6614V72.7599C221.329 73.2156 221.349 73.8654 221.698 74.3163C221.96 74.6412 222.391 74.8594 222.91 74.8594C223.366 74.8594 223.885 74.6218 224.166 74.2533C224.554 73.7539 224.554 73.0217 224.554 72.4786V70.4422H222.716V68.493H226.721V76.7601H225.64L225.078 75.5915H225.073Z" fill="white"/>
<path d="M234.402 76.7601L233.689 73.5114H230.92L230.207 76.7601H228.045L231.357 61.6078H233.262L236.574 76.7601H234.411H234.402ZM232.258 65.8262L231.134 71.5865H233.427L232.258 65.8262Z" fill="white"/>
<path d="M244.642 61.603V63.6589H241.956V76.7552H239.794V63.6589H237.107V61.603H244.642Z" fill="white"/>
<path d="M252.933 61.603V63.6588H250.247V76.7552H248.085V63.6588H245.398V61.603H252.933Z" fill="white"/>
<path d="M259.838 76.7601L259.125 73.5115H256.357L255.644 76.7601H253.481L256.793 61.6079H258.699L262.01 76.7601H259.848H259.838ZM257.695 65.8263L256.57 71.5866H258.864L257.695 65.8263Z" fill="white"/>
</g>
<defs>
<clipPath id="clip0_245_3123">
<rect width="262" height="162.151" fill="white"/>
</clipPath>
</defs>
</svg>
