<?xml version="1.0" standalone="no"?>
<!DOCTYPE svg PUBLIC "-//W3C//DTD SVG 20010904//EN"
 "http://www.w3.org/TR/2001/REC-SVG-20010904/DTD/svg10.dtd">
<svg version="1.0" xmlns="http://www.w3.org/2000/svg"
 width="3431.000000pt" height="2048.000000pt" viewBox="0 0 3431.000000 2048.000000"
 preserveAspectRatio="xMidYMid meet">

<g transform="translate(0.000000,2048.000000) scale(0.100000,-0.100000)"
fill="#000000" stroke="none">
<path d="M9093 20461 c-100 -37 -266 -142 -437 -275 l-98 -77 -57 50 c-127
110 -176 130 -237 98 -34 -18 -79 -66 -88 -94 -17 -58 -105 -408 -162 -648
-63 -267 -69 -286 -130 -405 -179 -353 -353 -590 -435 -590 -22 0 -41 10 -66
35 -33 33 -35 37 -29 87 24 196 56 335 166 723 92 324 106 386 90 414 -20 39
-132 52 -256 30 -63 -11 -63 -11 -121 25 -110 68 -161 81 -313 81 -134 0 -136
0 -204 -34 -213 -104 -471 -504 -642 -993 -107 -308 -312 -531 -508 -554 -31
-4 -56 -3 -56 2 0 5 16 50 35 99 85 215 148 475 167 687 11 114 10 133 -6 183
-43 136 -252 260 -408 242 -109 -13 -258 -106 -401 -249 l-88 -89 -78 59
c-146 110 -197 122 -267 60 -41 -37 -41 -36 -179 -586 -114 -456 -110 -446
-247 -691 -94 -168 -169 -280 -235 -352 -89 -96 -131 -108 -186 -53 -22 21
-27 36 -27 74 0 107 54 349 169 750 107 377 111 408 50 429 -38 13 -175 14
-239 2 -41 -8 -49 -6 -110 30 -165 100 -376 115 -523 37 -310 -166 -727 -1016
-731 -1493 -1 -120 12 -152 96 -232 97 -91 248 -150 360 -140 107 10 260 117
396 277 l67 79 25 -24 c71 -68 229 -108 400 -103 100 3 123 7 175 31 80 38
156 98 228 182 51 58 59 65 53 40 -59 -226 -196 -871 -196 -920 0 -68 108
-125 239 -125 126 0 142 22 185 251 37 194 186 890 193 901 2 5 21 -1 42 -11
110 -57 331 -74 459 -36 136 39 282 168 412 363 12 18 41 29 135 52 178 44
281 98 463 246 31 26 32 26 32 5 0 -61 85 -168 180 -226 131 -79 269 -97 375
-47 83 40 203 139 292 242 l74 86 33 -31 c94 -89 398 -133 537 -79 99 39 240
156 310 258 l23 35 11 -32 c20 -62 126 -107 250 -107 125 0 122 -7 211 400 70
319 183 767 223 884 17 49 43 108 57 130 80 120 278 260 351 248 30 -5 83 -67
83 -98 0 -41 -36 -210 -100 -464 -71 -283 -107 -459 -115 -560 -5 -67 -3 -79
17 -115 43 -74 157 -126 320 -148 173 -22 290 23 433 167 138 139 253 318 421
659 71 143 88 186 88 223 1 38 -3 50 -24 65 -38 29 -92 35 -124 14 -17 -11
-53 -70 -102 -169 -94 -185 -211 -389 -272 -476 -138 -195 -206 -238 -274
-169 -30 29 -30 32 -24 96 8 79 52 294 106 519 119 493 141 618 121 684 -25
84 -144 167 -253 176 -37 3 -69 -1 -105 -15z m-2008 -842 c49 -24 51 -38 31
-156 -23 -140 -105 -459 -151 -593 -60 -174 -146 -312 -270 -435 -113 -114
-179 -133 -242 -70 l-36 36 6 107 c13 234 156 663 303 913 57 95 135 186 179
206 36 16 139 12 180 -8z m-1878 -437 c11 -6 28 -22 37 -36 40 -62 0 -336 -96
-653 -25 -83 -35 -103 -50 -103 -62 0 -193 -123 -247 -231 -17 -34 -31 -68
-31 -76 0 -21 48 -61 81 -68 36 -8 36 -15 2 -56 -76 -90 -218 -91 -310 -3 -42
39 -43 42 -43 104 0 116 127 604 196 750 73 156 277 372 370 392 21 5 61 -4
91 -20z m-1904 -463 c56 -15 69 -41 56 -119 -25 -163 -94 -444 -149 -610 -99
-296 -340 -589 -466 -566 -40 8 -81 54 -90 101 -14 75 37 329 109 540 110 323
253 578 362 646 34 21 117 25 178 8z"/>
<path d="M2157 19653 c-59 -54 -173 -161 -254 -238 -82 -77 -349 -328 -595
-558 -340 -318 -455 -432 -482 -475 -84 -140 -199 -404 -232 -531 -13 -51 -14
-72 -5 -102 28 -92 216 -325 281 -348 22 -7 37 -5 70 11 55 28 157 126 165
160 5 18 -6 72 -34 165 -59 202 -63 225 -51 296 24 137 46 181 152 309 173
208 644 727 726 802 13 11 -4 -30 -43 -105 -35 -68 -75 -160 -90 -204 -41
-125 -123 -450 -274 -1090 -77 -324 -158 -667 -181 -760 l-41 -171 -227 -111
c-381 -187 -695 -369 -793 -460 -112 -104 -249 -374 -249 -490 0 -98 306 -238
596 -273 130 -16 194 -3 329 64 136 68 255 157 368 276 73 77 96 109 142 203
49 100 161 421 225 645 17 59 26 75 46 82 40 16 85 12 174 -15 119 -36 150
-34 190 12 44 49 103 175 104 221 1 35 -2 39 -47 61 -71 35 -208 40 -297 12
-35 -11 -66 -18 -68 -16 -2 2 32 151 76 332 45 180 131 540 192 798 126 530
185 765 237 942 37 126 72 199 202 410 45 73 61 108 56 123 -14 45 -152 120
-221 120 -38 0 -49 -7 -147 -97z m-1016 -3304 c-92 -305 -133 -395 -242 -531
-63 -79 -113 -118 -153 -118 -99 0 -264 142 -294 253 -28 101 59 200 308 348
146 87 424 230 428 220 1 -4 -20 -82 -47 -172z"/>
<path d="M11003 16195 c-160 -36 -312 -156 -385 -305 -68 -138 -96 -316 -78
-494 19 -190 73 -320 171 -410 77 -71 129 -99 351 -191 240 -99 284 -125 318
-190 24 -48 25 -54 25 -255 l0 -206 -30 -59 c-26 -50 -39 -63 -85 -88 -52 -27
-60 -29 -157 -25 -94 3 -105 6 -145 34 -67 47 -100 120 -106 239 l-5 95 -178
0 -179 0 0 -113 c0 -194 50 -319 179 -448 133 -133 279 -186 491 -176 182 9
298 55 405 162 134 134 196 369 181 685 -12 244 -51 363 -152 463 -69 68 -147
110 -393 207 -287 114 -318 146 -328 327 -15 264 67 393 249 393 165 -1 246
-93 256 -292 l5 -98 185 0 185 0 -5 143 c-4 106 -11 158 -27 208 -54 170 -211
323 -391 381 -84 27 -267 34 -357 13z"/>
<path d="M16493 16195 c-138 -30 -271 -119 -345 -232 -56 -84 -83 -157 -97
-257 -15 -104 -15 -1491 0 -1606 13 -110 39 -180 96 -264 111 -163 300 -246
532 -233 205 10 386 128 484 314 53 101 67 167 67 310 l0 123 -179 0 -178 0
-5 -105 c-4 -91 -9 -112 -34 -162 -39 -77 -104 -113 -203 -113 -99 0 -147 27
-186 105 l-30 60 -3 729 c-2 471 1 748 8 785 25 138 85 191 216 191 64 0 77
-3 120 -32 76 -51 106 -120 112 -253 l5 -105 178 0 179 0 0 123 c0 144 -21
243 -72 340 -39 76 -153 192 -225 230 -116 62 -297 83 -440 52z"/>
<path d="M25235 16200 c-220 -44 -396 -198 -468 -410 -22 -64 -22 -71 -25
-851 -3 -875 -4 -867 63 -1007 26 -55 54 -93 108 -146 119 -119 239 -173 408
-183 244 -15 475 110 581 313 69 131 68 111 68 985 0 750 -1 789 -20 863 -55
214 -213 369 -436 426 -80 21 -203 25 -279 10z m244 -386 c64 -32 105 -86 120
-155 15 -69 15 -1439 0 -1508 -22 -105 -103 -172 -215 -179 -35 -2 -79 -1 -97
2 -51 10 -120 60 -147 108 l-25 43 0 780 c0 859 -4 803 62 869 70 71 203 89
302 40z"/>
<path d="M28322 16195 c-120 -26 -239 -99 -315 -193 -53 -64 -111 -190 -134
-287 -26 -115 -23 -349 6 -460 43 -163 117 -267 245 -344 31 -18 141 -68 244
-111 235 -97 262 -111 300 -154 48 -55 57 -100 57 -301 0 -205 -12 -259 -68
-313 -49 -47 -94 -62 -192 -62 -130 0 -183 29 -233 125 -21 41 -27 67 -30 148
l-4 97 -186 0 -185 0 6 -122 c9 -197 61 -322 183 -443 230 -229 672 -235 894
-13 140 139 204 397 180 725 -16 225 -54 333 -148 426 -70 68 -141 107 -369
198 -233 93 -287 125 -323 189 -22 40 -25 59 -28 166 -6 187 27 285 114 344
30 20 53 26 112 29 41 2 92 -2 114 -8 96 -29 156 -132 165 -287 l6 -94 185 0
185 0 -6 138 c-4 97 -11 156 -26 202 -62 196 -236 356 -441 404 -79 19 -223
19 -308 1z"/>
<path d="M33534 16196 c-208 -47 -381 -222 -438 -441 -41 -160 -39 -388 5
-531 63 -205 154 -289 437 -405 81 -33 189 -80 240 -105 149 -72 167 -117 160
-403 -3 -171 -4 -178 -32 -227 -47 -86 -102 -114 -226 -114 -128 0 -190 33
-235 124 -21 43 -28 75 -32 150 l-6 96 -178 0 -179 0 0 -113 c0 -194 49 -317
180 -448 131 -133 278 -185 490 -176 133 6 215 28 305 82 144 87 224 217 267
435 19 100 16 425 -5 530 -33 158 -107 266 -234 343 -32 19 -152 72 -266 117
-114 45 -229 97 -255 114 -68 48 -91 99 -99 222 -16 264 66 394 250 394 167 0
256 -107 257 -307 l0 -83 186 0 186 0 -5 148 c-4 117 -9 160 -27 209 -61 173
-210 316 -390 375 -83 27 -267 34 -356 14z"/>
<path d="M2360 15168 c0 -1135 -2 -1099 66 -1238 49 -98 159 -211 260 -263
232 -120 501 -78 690 109 56 55 81 89 112 155 22 46 45 108 51 137 8 36 11
380 11 1087 l0 1035 -185 0 -185 0 0 -1017 c0 -680 -4 -1031 -11 -1056 -24
-86 -110 -147 -209 -147 -98 0 -160 35 -203 115 l-22 40 -3 1033 -2 1032 -185
0 -185 0 0 -1022z"/>
<path d="M3890 14905 l0 -1285 180 0 180 0 0 770 c0 424 3 770 8 770 4 0 133
-347 287 -770 l280 -770 172 0 173 0 0 1285 0 1285 -185 0 -185 0 -2 -775 -3
-775 -234 653 c-129 358 -254 707 -279 775 l-44 122 -174 0 -174 0 0 -1285z"/>
<path d="M5520 14905 l0 -1285 180 0 180 0 0 1285 0 1285 -180 0 -180 0 0
-1285z"/>
<path d="M6120 16178 c0 -13 508 -2511 516 -2541 5 -16 20 -17 167 -15 l161 3
257 1255 c142 690 260 1267 263 1283 l6 27 -194 0 -194 0 -10 -57 c-5 -32 -72
-435 -148 -895 -76 -461 -141 -838 -144 -838 -3 0 -70 402 -150 893 l-145 892
-193 3 c-148 2 -192 0 -192 -10z"/>
<path d="M7710 14905 l0 -1285 550 0 550 0 0 185 0 185 -365 0 -365 0 0 375 0
375 318 2 317 3 0 170 0 170 -317 3 -318 2 0 375 0 375 365 0 365 0 0 175 0
175 -550 0 -550 0 0 -1285z"/>
<path d="M9050 14905 l0 -1285 185 0 185 0 0 550 0 550 108 0 109 0 141 -452
c78 -249 155 -497 172 -550 l31 -98 194 0 194 0 -189 558 c-103 306 -193 569
-199 584 -10 26 -8 29 48 67 119 81 188 183 233 346 19 70 21 105 21 270 0
172 -2 199 -25 286 -72 267 -221 407 -479 448 -35 6 -214 11 -396 11 l-333 0
0 -1285z m698 920 c138 -41 179 -145 170 -428 -7 -214 -32 -273 -136 -324 -53
-26 -66 -28 -209 -32 l-153 -3 0 401 0 401 138 0 c95 0 155 -5 190 -15z"/>
<path d="M12070 14905 l0 -1285 180 0 180 0 0 1285 0 1285 -180 0 -180 0 0
-1285z"/>
<path d="M12610 16015 l0 -175 210 0 210 0 0 -1110 0 -1110 185 0 185 0 0
1110 0 1110 213 2 212 3 5 164 5 164 248 -729 248 -729 -1 -547 0 -548 185 0
185 0 0 541 0 541 244 716 c135 395 249 729 255 745 l11 27 -197 -2 -196 -3
-145 -500 c-79 -275 -147 -504 -151 -508 -6 -6 -218 704 -299 996 -4 16 -51
17 -808 17 l-804 0 0 -175z"/>
<path d="M17540 14905 l0 -1285 180 0 180 0 0 570 0 570 230 0 230 0 0 -570 0
-570 185 0 185 0 0 1285 0 1285 -185 0 -185 0 0 -550 0 -550 -230 0 -230 0 0
550 0 550 -180 0 -180 0 0 -1285z"/>
<path d="M19477 16163 c-8 -40 -557 -2494 -564 -2520 l-5 -23 184 0 184 0 54
275 53 275 253 0 253 0 7 -37 c4 -21 28 -144 53 -273 l47 -235 182 -3 c100 -1
182 1 182 4 0 6 -553 2486 -567 2542 -5 22 -8 22 -158 22 l-152 0 -6 -27z
m248 -1159 c46 -241 87 -449 90 -461 l5 -23 -186 0 -186 0 6 28 c3 15 42 214
86 442 91 473 89 464 96 458 2 -3 42 -202 89 -444z"/>
<path d="M20550 14905 l0 -1285 180 0 180 0 0 782 c0 455 4 778 9 773 7 -9 81
-231 316 -952 l46 -143 93 0 92 0 178 543 c98 298 182 546 187 552 5 5 9 -326
9 -773 l0 -782 185 0 185 0 0 1285 0 1285 -181 -2 -181 -3 -229 -665 c-126
-366 -232 -672 -235 -680 -5 -13 -6 -13 -14 0 -6 12 -355 1009 -452 1293 l-20
57 -174 0 -174 0 0 -1285z"/>
<path d="M22550 14906 l0 -1286 185 0 185 0 0 498 0 499 163 6 c89 4 190 13
225 22 209 50 374 232 417 459 34 179 28 506 -11 661 -37 144 -147 287 -269
352 -118 62 -144 65 -537 70 l-358 5 0 -1286z m717 909 c39 -18 60 -36 82 -71
45 -70 53 -129 49 -367 -3 -205 -4 -214 -30 -269 -32 -68 -86 -112 -159 -127
-27 -6 -104 -11 -169 -11 l-120 0 0 435 0 435 148 0 c135 0 151 -2 199 -25z"/>
<path d="M24040 14905 l0 -1285 180 0 180 0 0 1285 0 1285 -180 0 -180 0 0
-1285z"/>
<path d="M26290 14905 l0 -1285 180 0 180 0 0 770 c0 424 3 770 8 770 4 0 133
-347 287 -770 l280 -770 173 0 172 0 0 1285 0 1285 -185 0 -185 0 -2 -774 -3
-774 -269 752 c-149 413 -274 761 -279 774 -10 22 -13 22 -184 22 l-173 0 0
-1285z"/>
<path d="M29370 14905 l0 -1285 185 0 185 0 0 570 0 570 230 0 230 0 0 -570 0
-570 180 0 180 0 0 1285 0 1285 -180 0 -180 0 0 -550 0 -550 -230 0 -230 0 0
550 0 550 -185 0 -185 0 0 -1285z"/>
<path d="M30920 14905 l0 -1285 185 0 185 0 0 1285 0 1285 -185 0 -185 0 0
-1285z"/>
<path d="M31650 14906 l0 -1286 185 0 185 0 0 498 0 499 158 6 c248 10 360 48
476 163 101 101 157 227 177 402 15 124 6 452 -15 547 -47 212 -197 372 -403
432 -48 14 -118 17 -410 21 l-353 4 0 -1286z m683 922 c61 -18 122 -82 141
-147 37 -127 29 -497 -13 -580 -50 -97 -131 -131 -318 -131 l-123 0 0 435 0
435 136 0 c79 0 154 -5 177 -12z"/>
<path d="M2669 13036 c-158 -55 -268 -183 -299 -345 -6 -33 -10 -274 -10 -615
0 -611 3 -649 56 -746 15 -28 53 -75 85 -105 239 -228 639 -147 762 155 l22
55 0 640 0 640 -23 56 c-74 185 -234 289 -441 289 -64 0 -103 -6 -152 -24z
m213 -256 c45 -13 93 -51 116 -94 15 -28 17 -82 17 -606 0 -545 -1 -577 -19
-613 -50 -101 -207 -130 -293 -54 -65 57 -63 38 -63 668 0 496 2 575 16 604
20 44 54 74 101 90 46 17 76 18 125 5z"/>
<path d="M5936 13049 c-21 -5 -70 -26 -108 -46 -127 -67 -208 -187 -229 -338
-6 -52 -9 -279 -7 -640 3 -506 5 -565 22 -615 69 -213 294 -348 518 -311 154
25 280 116 345 249 l38 76 3 632 c3 619 2 634 -18 695 -52 153 -149 245 -309
293 -59 17 -191 20 -255 5z m229 -293 c83 -49 80 -26 83 -659 2 -362 -1 -571
-8 -596 -28 -105 -150 -160 -257 -116 -50 21 -72 42 -94 90 -17 37 -19 78 -19
605 0 530 2 568 19 606 44 97 173 130 276 70z"/>
<path d="M15261 12102 c-96 -526 -177 -970 -179 -985 l-4 -28 108 3 108 3 178
970 c97 534 177 976 177 983 1 9 -27 12 -106 12 l-108 0 -174 -958z"/>
<path d="M22400 13042 c-117 -39 -193 -95 -250 -184 -72 -110 -71 -106 -68
-809 l3 -625 38 -76 c65 -133 191 -224 345 -249 224 -37 449 98 518 311 16 50
18 110 22 615 2 357 -1 589 -7 640 -22 163 -109 282 -258 352 -70 34 -84 37
-182 40 -83 2 -118 -1 -161 -15z m203 -264 c53 -16 102 -64 116 -113 7 -27 11
-219 11 -595 0 -517 -2 -558 -19 -595 -22 -48 -44 -69 -94 -90 -107 -44 -229
11 -257 116 -7 25 -10 236 -8 601 3 543 4 564 23 596 30 49 101 89 164 91 13
1 42 -4 64 -11z"/>
<path d="M29433 13039 c-140 -44 -250 -157 -293 -297 -20 -66 -21 -87 -18
-687 3 -618 3 -620 26 -675 82 -199 296 -316 511 -280 141 24 272 113 334 228
50 92 57 154 57 520 l0 332 -250 0 -250 0 0 -125 0 -125 110 0 110 0 0 -210
c0 -235 -4 -255 -63 -307 -86 -76 -243 -47 -293 54 -18 36 -19 68 -19 613 0
524 2 578 17 606 67 122 241 137 325 28 24 -32 28 -47 31 -130 l4 -94 139 0
139 0 0 74 c0 147 -42 266 -125 355 -55 59 -107 91 -193 120 -82 28 -212 28
-299 0z"/>
<path d="M3440 13041 c0 -6 79 -210 175 -456 96 -245 175 -452 175 -460 0 -9
-84 -232 -186 -498 -103 -265 -189 -490 -192 -499 -4 -17 7 -18 140 -18 l145
0 119 324 c65 179 120 323 122 321 2 -2 56 -146 121 -322 l119 -318 147 -3
c138 -2 147 -1 141 15 -4 10 -93 236 -198 503 -105 266 -191 489 -191 495 0 6
81 214 181 462 100 248 182 454 182 457 0 3 -65 6 -144 6 l-144 0 -15 -37 c-8
-21 -54 -146 -102 -278 -49 -132 -91 -243 -95 -248 -3 -4 -53 121 -110 278
l-104 285 -143 0 c-82 0 -143 -4 -143 -9z"/>
<path d="M4600 12080 l0 -970 140 0 140 0 0 415 0 415 240 0 240 0 0 130 0
130 -240 0 -240 0 0 295 0 295 275 0 275 0 0 130 0 130 -415 0 -415 0 0 -970z"/>
<path d="M6770 12081 l0 -971 140 0 140 0 0 415 0 415 80 0 c65 0 81 -3 88
-17 5 -10 65 -197 133 -415 l123 -398 147 0 148 0 -30 88 c-104 300 -269 795
-267 796 123 78 177 151 214 287 24 87 25 316 1 412 -34 136 -112 249 -209
298 -91 47 -128 52 -425 56 l-283 5 0 -971z m561 678 c32 -18 51 -37 69 -74
23 -46 25 -61 25 -190 0 -164 -7 -204 -42 -245 -44 -53 -76 -63 -210 -68
l-123 -4 0 307 0 308 119 -5 c100 -4 125 -9 162 -29z"/>
<path d="M7930 12080 l0 -972 268 4 c242 4 273 6 334 26 131 44 220 133 270
272 23 65 23 67 26 635 2 396 -1 591 -9 638 -22 134 -104 253 -211 308 -90 46
-130 51 -410 56 l-268 5 0 -972z m497 695 c60 -18 96 -55 115 -118 10 -32 13
-173 13 -582 0 -492 -2 -544 -18 -586 -35 -91 -90 -119 -233 -119 l-94 0 0
710 0 710 83 0 c46 0 106 -7 134 -15z"/>
<path d="M9420 12080 l0 -970 140 0 140 0 0 380 0 380 123 0 c71 0 143 6 173
14 163 43 272 165 310 346 24 114 15 429 -15 522 -36 112 -118 205 -223 253
-80 36 -160 45 -415 45 l-233 0 0 -970z m546 684 c25 -13 48 -37 64 -65 23
-41 25 -54 28 -213 6 -304 -30 -355 -250 -356 l-108 0 0 331 0 332 113 -5 c88
-3 122 -9 153 -24z"/>
<path d="M10530 12080 l0 -970 415 0 415 0 0 140 0 140 -275 0 -275 0 0 830 0
830 -140 0 -140 0 0 -970z"/>
<path d="M11965 13028 c-8 -33 -415 -1857 -422 -1891 l-6 -28 139 3 138 3 41
205 41 205 189 0 190 0 40 -205 40 -205 138 -3 c75 -1 137 1 137 6 0 7 -404
1824 -425 1910 -5 21 -9 22 -120 22 -111 0 -115 -1 -120 -22z m189 -882 c36
-187 66 -343 66 -347 0 -5 -61 -9 -135 -9 -105 0 -135 3 -135 13 0 7 25 141
55 298 69 358 76 391 80 387 2 -2 33 -156 69 -342z"/>
<path d="M12510 12920 l0 -130 160 0 160 0 0 -840 0 -840 140 0 140 0 0 840 0
840 160 0 160 0 0 130 0 130 -460 0 -460 0 0 -130z"/>
<path d="M13560 12080 l0 -970 415 0 416 0 -3 138 -3 137 -278 3 -277 2 2 283
3 282 238 3 237 2 0 130 0 130 -240 0 -240 0 2 283 3 282 278 3 278 2 -3 128
-3 127 -412 3 -413 2 0 -970z"/>
<path d="M16617 13043 c-4 -3 -7 -348 -7 -767 0 -754 0 -760 -21 -804 -32 -65
-86 -97 -165 -97 -54 0 -68 4 -108 32 l-45 32 -107 -86 -108 -87 59 -53 c110
-100 234 -137 383 -115 189 29 329 155 377 339 13 48 15 178 15 835 l0 778
-133 0 c-74 0 -137 -3 -140 -7z"/>
<path d="M17460 13042 c0 -7 -404 -1824 -425 -1909 l-5 -23 138 0 139 0 38
198 c21 108 40 203 42 210 6 15 368 18 378 3 3 -6 23 -99 45 -207 22 -109 42
-199 44 -201 2 -2 64 -2 137 -1 l134 3 -215 965 -216 965 -117 3 c-64 1 -117
-1 -117 -6z m189 -906 l67 -346 -138 0 c-76 0 -138 3 -138 7 0 3 29 156 65
340 36 183 65 339 65 345 0 46 21 -47 79 -346z"/>
<path d="M18268 13044 c-5 -4 -8 -441 -8 -971 l0 -963 140 0 140 0 2 378 3
377 145 6 c93 4 160 12 186 22 136 51 233 167 270 324 22 92 23 379 1 479 -36
165 -133 278 -281 327 -53 18 -94 21 -326 25 -146 2 -268 0 -272 -4z m509
-269 c104 -31 127 -89 126 -325 0 -132 -3 -173 -17 -205 -38 -90 -88 -114
-238 -115 l-108 0 0 330 0 330 93 0 c54 0 115 -6 144 -15z"/>
<path d="M19560 13042 c0 -6 -403 -1819 -425 -1909 l-5 -23 138 0 139 0 38
198 c21 108 40 203 42 210 6 15 368 18 378 3 3 -6 23 -99 45 -207 22 -109 42
-199 44 -201 2 -2 64 -2 137 -1 l134 3 -215 965 -216 965 -117 3 c-64 1 -117
-1 -117 -6z m189 -906 l68 -346 -139 0 c-76 0 -138 3 -138 6 0 4 29 157 65
342 36 184 65 340 65 345 0 43 21 -48 79 -347z"/>
<path d="M20477 13044 c-4 -4 -7 -441 -7 -971 l0 -963 140 0 140 0 0 582 c0
320 4 578 8 572 7 -7 127 -333 420 -1141 3 -10 39 -13 133 -13 l129 0 0 970 0
970 -135 0 -135 0 0 -587 c0 -322 -3 -583 -7 -579 -4 4 -101 267 -214 584
l-207 577 -129 3 c-71 1 -132 -1 -136 -4z"/>
<path d="M23250 12080 l0 -970 140 0 140 0 0 380 0 380 123 0 c67 0 141 5 165
10 159 37 289 181 321 354 16 89 14 377 -4 461 -40 190 -169 315 -355 344 -36
6 -170 11 -297 11 l-233 0 0 -970z m500 699 c62 -13 110 -57 128 -116 17 -57
15 -366 -2 -416 -32 -89 -88 -116 -238 -117 l-108 0 0 330 0 330 85 0 c46 0
107 -5 135 -11z"/>
<path d="M24360 12080 l0 -970 415 0 415 0 0 140 0 140 -275 0 -275 0 0 285 0
285 240 0 240 0 0 130 0 130 -240 0 -240 0 0 285 0 285 275 0 275 0 0 130 0
130 -415 0 -415 0 0 -970z"/>
<path d="M25360 12080 l0 -970 140 0 140 0 2 583 3 582 212 -580 211 -580 131
-3 131 -3 0 971 0 971 -137 -3 -138 -3 -5 -580 -5 -580 -68 190 c-37 105 -131
367 -209 583 l-141 392 -133 0 -134 0 0 -970z"/>
<path d="M26960 12080 l0 -970 140 0 140 0 0 415 0 415 83 0 83 0 130 -415
129 -415 147 0 147 0 -150 442 c-113 334 -147 444 -137 449 163 92 239 274
225 535 -13 240 -90 385 -240 459 -98 47 -161 55 -449 55 l-248 0 0 -970z
m561 679 c73 -40 93 -88 97 -240 6 -165 -8 -231 -57 -280 -47 -47 -91 -59
-218 -59 l-103 0 0 306 0 307 119 -5 c101 -4 125 -9 162 -29z"/>
<path d="M28127 13043 c-4 -3 -7 -440 -7 -970 l0 -963 415 0 415 0 0 140 0
140 -275 0 -275 0 2 283 3 282 238 3 237 2 0 130 0 130 -240 0 -240 0 0 285 0
285 275 0 275 0 0 130 0 130 -408 0 c-225 0 -412 -3 -415 -7z"/>
<path d="M30391 12093 c-118 -527 -216 -964 -219 -970 -3 -10 28 -13 136 -13
l140 0 37 193 c20 105 39 200 41 210 5 15 23 17 195 17 104 0 189 -2 189 -4 0
-13 80 -409 83 -413 2 -2 65 -2 139 -1 l134 3 -216 965 -215 965 -115 3 -116
3 -213 -958z m398 44 l67 -342 -135 -3 c-73 -1 -135 -1 -138 1 -2 2 27 160 64
350 37 191 69 344 72 342 2 -3 34 -159 70 -348z"/>
<path d="M31270 12920 l0 -130 160 0 160 0 0 -840 0 -840 140 0 140 0 0 840 0
840 160 0 160 0 0 130 0 130 -460 0 -460 0 0 -130z"/>
<path d="M32350 12920 l0 -130 160 0 160 0 0 -840 0 -840 140 0 140 0 0 840 0
840 160 0 160 0 0 130 0 130 -460 0 -460 0 0 -130z"/>
<path d="M33645 13038 c-3 -7 -101 -443 -218 -968 l-214 -955 135 -3 c74 -1
136 -1 139 1 2 3 82 401 83 415 0 1 85 2 189 2 l189 0 10 -47 c6 -27 25 -121
43 -210 l32 -163 140 0 c107 0 138 3 134 13 -2 6 -100 443 -218 970 l-214 957
-113 0 c-81 0 -114 -4 -117 -12z m185 -893 c35 -181 65 -336 68 -342 3 -10
-29 -13 -138 -13 -134 0 -142 1 -137 18 2 11 33 168 68 350 35 182 67 328 70
324 3 -4 34 -155 69 -337z"/>
<path d="M9535 10659 c-647 -74 -1339 -366 -2025 -855 -293 -209 -600 -466
-857 -719 l-152 -150 40 -117 c105 -310 179 -722 179 -1012 l1 -111 27 31 c15
16 85 97 157 180 272 313 663 682 974 918 694 525 1372 783 1911 726 617 -65
1020 -460 1200 -1175 65 -261 89 -477 90 -815 1 -1003 -342 -2163 -958 -3240
-575 -1005 -1318 -1905 -2035 -2464 -916 -713 -1804 -920 -2513 -586 -139 65
-214 118 -319 224 -222 223 -356 533 -427 986 -20 130 -22 180 -22 495 0 200
4 360 10 372 7 18 60 -139 274 -825 l265 -847 623 -3 c495 -2 622 0 622 10 0
7 -286 857 -635 1888 -349 1031 -631 1876 -626 1878 4 1 48 28 97 59 529 332
806 817 896 1568 17 147 17 729 0 890 -55 508 -176 889 -376 1190 -280 419
-673 653 -1253 747 -136 22 -156 22 -1240 25 l-1103 4 0 -4131 0 -4130 590 0
590 0 0 1765 0 1765 335 0 c184 0 335 -3 335 -6 0 -4 -20 -70 -46 -148 -252
-784 -390 -1659 -370 -2356 34 -1210 437 -2045 1165 -2409 266 -134 584 -227
891 -262 137 -15 435 -15 580 0 1482 160 3065 1416 4339 3444 552 878 944
1813 1150 2742 22 99 43 199 47 223 4 23 9 40 12 37 3 -3 166 -1082 362 -2398
l356 -2392 557 -3 c306 -1 557 0 557 3 0 3 200 1207 445 2675 245 1468 445
2672 445 2675 0 3 6 5 14 5 9 0 17 -21 25 -62 88 -519 891 -5281 891 -5288 0
-16 1110 -13 1115 3 6 16 1225 8208 1225 8230 0 16 -43 17 -625 17 -493 0
-625 -3 -625 -12 1 -48 -565 -5345 -571 -5352 -5 -5 -11 -7 -14 -4 -5 5 -965
5338 -965 5360 0 4 -204 8 -454 8 l-453 0 -6 -27 c-2 -16 -211 -1195 -463
-2620 -308 -1739 -463 -2593 -471 -2593 -6 0 -14 19 -18 43 -7 50 -585 5177
-585 5189 0 4 -281 8 -625 8 l-625 0 0 -26 c0 -22 -6 -18 -51 38 -324 396
-780 646 -1302 713 -126 16 -458 19 -582 4z m-5173 -1850 c143 -15 278 -51
378 -101 124 -61 231 -170 294 -299 89 -183 124 -384 133 -769 14 -628 -57
-964 -248 -1165 -81 -85 -164 -136 -284 -174 -157 -51 -222 -56 -675 -56
l-415 0 -3 1288 -2 1287 360 0 c197 0 406 -5 462 -11z"/>
<path d="M18550 5800 l0 -4130 590 0 590 0 0 4130 0 4130 -590 0 -590 0 0
-4130z"/>
<path d="M20560 5800 l0 -4130 590 0 590 0 0 2485 c0 2081 2 2485 14 2485 8 0
158 -397 431 -1147 231 -632 638 -1749 906 -2483 l487 -1335 556 -3 556 -2 0
4130 0 4130 -590 0 -590 0 0 -2485 c0 -2128 -2 -2485 -14 -2485 -8 0 -21 19
-29 43 -8 23 -403 1122 -877 2442 -474 1320 -869 2419 -877 2443 l-15 42 -569
0 -569 0 0 -4130z"/>
<path d="M27170 9919 c-472 -54 -927 -280 -1231 -614 -243 -267 -386 -571
-462 -980 l-22 -120 -3 -2320 c-2 -1644 0 -2356 8 -2445 65 -728 468 -1308
1105 -1588 273 -121 530 -174 835 -174 376 0 722 92 1030 274 320 189 553 440
715 773 106 216 170 444 194 699 7 71 11 578 11 1448 l0 1338 -1045 0 -1045 0
0 -510 0 -510 465 0 466 0 -4 -847 c-3 -841 -3 -849 -25 -933 -61 -231 -190
-394 -387 -490 -131 -64 -187 -75 -375 -75 -143 0 -176 3 -245 23 -264 76
-442 263 -517 544 l-23 83 -3 2245 c-2 1628 0 2271 8 2340 34 287 172 492 405
605 130 62 212 80 375 80 163 0 245 -18 375 -80 183 -89 297 -220 364 -420 40
-122 51 -229 51 -497 l0 -228 581 0 581 0 -5 338 c-7 411 -28 552 -118 808
-240 680 -854 1150 -1611 1233 -112 13 -338 12 -448 0z"/>
<path d="M30200 9065 l0 -865 295 0 295 0 0 520 c0 286 3 520 6 520 3 0 368
-188 812 -419 1006 -522 1013 -525 1136 -566 147 -49 237 -58 530 -52 204 4
267 9 336 25 372 88 604 300 676 617 27 114 25 322 -4 426 -58 215 -184 390
-365 510 -180 118 -308 149 -613 149 l-204 0 0 -289 0 -290 213 -3 214 -3 59
-30 c107 -55 158 -169 136 -309 -19 -123 -93 -192 -232 -217 -97 -17 -487 -7
-565 15 -89 24 -174 68 -1215 620 l-954 506 -278 0 -278 0 0 -865z"/>
<path d="M30960 7800 c-123 -10 -204 -31 -315 -84 -448 -212 -611 -793 -348
-1246 51 -87 190 -227 278 -278 80 -47 219 -96 315 -111 90 -15 2610 -15 2700
0 406 65 689 381 716 799 24 359 -162 690 -471 836 -115 54 -191 73 -335 85
-137 10 -2403 9 -2540 -1z m2583 -596 c188 -64 245 -325 102 -469 -21 -21 -59
-47 -84 -59 l-46 -21 -1254 -3 c-1390 -3 -1314 -6 -1403 63 -133 101 -139 322
-11 435 83 73 -12 68 1389 69 1122 1 1266 -1 1307 -15z"/>
<path d="M30205 5668 c-3 -7 -4 -398 -3 -868 l3 -855 292 -3 293 -2 2 525 3
525 890 -462 c490 -254 927 -477 972 -495 177 -73 382 -101 658 -90 286 12
480 66 655 182 257 171 383 494 325 829 -48 277 -220 503 -480 631 -152 75
-214 87 -482 92 l-233 5 0 -290 0 -290 208 -5 c236 -5 261 -10 332 -74 62 -56
84 -112 85 -213 0 -88 -16 -139 -58 -186 -58 -67 -130 -90 -317 -99 -179 -10
-372 8 -474 43 -49 17 -485 242 -1104 570 l-1022 542 -270 0 c-207 0 -272 -3
-275 -12z"/>
<path d="M30807 3663 c-4 -3 -7 -262 -7 -575 l0 -568 -300 0 -300 0 0 -285 0
-285 300 0 300 0 0 -140 0 -140 270 0 270 0 0 140 0 140 570 0 570 0 0 285 0
285 -570 0 -570 0 0 285 c0 157 3 285 8 285 4 -1 648 -193 1432 -429 l1425
-427 3 299 c1 165 1 302 -2 304 -2 2 -651 191 -1442 418 l-1439 415 -256 0
c-141 0 -259 -3 -262 -7z"/>
</g>
</svg>
